<svg xmlns="http://www.w3.org/2000/svg" width="20" height="20" viewBox="0 0 20 20">
  <g fill="none" fill-rule="evenodd">
    <rect width="20" height="20"/>
    <g stroke="#D7E0F2" stroke-linecap="round" stroke-linejoin="round" stroke-width="1.5" transform="translate(2 2)">
      <path d="M5.68594735 8C5.25954765 7.57442076 5 6.99610751 5 6.34735867 5 5.0476367 6.04708936 4 7.34631072 4 7.98924731 4 8.58101594 4.26024096 9 4.6858202M10.5 7.5C10.3171068 8.51494886 9.51616082 9.315893 8.5 9.5"/>
      <path d="M3.21266968 11C1.90703414 10.0140845.801316331 8.57398323 0 6.77860421.809543398 4.97531255 1.92266557 3.52729862 3.23652818 2.53347049 4.54216372 1.53964235 6.0485397 1 7.61003702 1 9.18058412 1 10.6861374 1.54755499 12 2.54850451M13.6234935 5C14.1490409 5.69984686 14.6111866 6.50765697 15 7.40888208 13.4974537 10.8981623 10.8422169 13 7.93413682 13 7.27491088 13 6.62485147 12.8928025 6 12.6837672"/>
      <line x1="15" x2="2" y2="13"/>
    </g>
  </g>
</svg>
