<svg xmlns="http://www.w3.org/2000/svg" viewBox="0 0 2.4 2.4"><rect width="2.4" height="2.4" style="fill:none"/><path d="M.83105,2.14889l-.01416-.001-.28418-.0586a.18744.18744,0,0,1-.09765-.31445L.56592,1.5903a.09936.09936,0,0,1,.13965-.02246A.1004.1004,0,0,1,.728,1.70749l-.13672.18945.25.05371L.89941,1.854a.1.1,0,0,1,.16211.11719l-.07617.10547A.17109.17109,0,0,1,.83105,2.14889Z" style="fill:#fff"/><path d="M1.50152.46229a.0925.0925,0,0,1,.05469.0166l.249.168A.10046.10046,0,0,1,1.8316.78651L1.273,1.61464.858,1.33436,1.41559.50721A.10427.10427,0,0,1,1.50152.46229m0-.20019a.30441.30441,0,0,0-.251.13183L.58062,1.389,1.3277,1.892,1.99762.89784a.30019.30019,0,0,0-.08106-.417l-.248-.168a.30153.30153,0,0,0-.167-.05078Z" style="fill:#fff"/></svg>