<svg xmlns="http://www.w3.org/2000/svg" viewBox="0 0 2.4 2.4"><rect width="2.4" height="2.4" style="fill:none"/><path d="M.83105,2.14928l-.01416-.001-.28418-.0586A.17849.17849,0,0,1,.395,1.97448a.181.181,0,0,1,.04-.2002l.13086-.18457a.09938.09938,0,0,1,.13965-.02246A.1004.1004,0,0,1,.728,1.7069l-.13819.19141L.84131,1.951l.0581-.09668a.10106.10106,0,0,1,.13965-.02246.1.1,0,0,1,.02246.13965L.98535,2.077A.17109.17109,0,0,1,.83105,2.14928Z" style="fill:#d7e0f2"/><path d="M1.50172.46229a.09252.09252,0,0,1,.05469.0166l.249.168A.10225.10225,0,0,1,1.8318.78651l-.5586.82813-.415-.28028L1.41773.50624a.0987.0987,0,0,1,.084-.044m0-.20019a.29844.29844,0,0,0-.249.13183L.58082,1.389l.74707.50293L1.99781.89784a.30107.30107,0,0,0-.08105-.417l-.249-.168a.29839.29839,0,0,0-.166-.05078Z" style="fill:#d7e0f2"/></svg>