<svg xmlns="http://www.w3.org/2000/svg" viewBox="0 0 2.4 2.4"><rect width="2.4" height="2.4" style="fill:none"/><path d="M.82617,2.1485H.81836L.53271,2.08893A.17782.17782,0,0,1,.395,1.97467a.181.181,0,0,1,.04-.20019l.13086-.18457a.09936.09936,0,0,1,.13965-.02246A.1004.1004,0,0,1,.728,1.7071l-.13819.1914.24073.05078L.8999,1.85456a.099.099,0,0,1,.13965-.02246.1.1,0,0,1,.02149.13964l-.07569.1045A.17287.17287,0,0,1,.82617,2.1485Zm.01416-.19726h0Z" style="fill:#161b24"/><path d="M1.50133.46229A.09252.09252,0,0,1,1.556.47889l.249.168a.10156.10156,0,0,1,.02734.13965l-.56054.82813-.41407-.2793L1.41539.50721A.10429.10429,0,0,1,1.50133.46229m0-.20019a.30142.30142,0,0,0-.25.13183L.58043,1.389l.74512.50293L1.99742.89784a.30019.30019,0,0,0-.08105-.417l-.248-.168a.3015.3015,0,0,0-.167-.05078Z" style="fill:#161b24"/></svg>