<?xml version="1.0" encoding="utf-8"?>
<!-- Generator: Adobe Illustrator 25.1.0, SVG Export Plug-In . SVG Version: 6.00 Build 0)  -->
<svg version="1.1" id="Layer_1" xmlns="http://www.w3.org/2000/svg" xmlns:xlink="http://www.w3.org/1999/xlink" x="0px" y="0px"
	 viewBox="0 0 22 24" style="enable-background:new 0 0 22 24;" xml:space="preserve">
<style type="text/css">
	.st0{fill:none;}
	.st1{fill:none;stroke:#FFFFFF;stroke-width:2;}
	.st2{fill:none;stroke:#FFFFFF;stroke-width:2;stroke-linecap:round;}
</style>
<g transform="translate(0 1)">
	<path class="st0" d="M0,0"/>
	<path class="st1" d="M7,17c0.3,0,0.5,0.1,0.7,0.3C7.9,17.5,8,17.7,8,18c0,0.3-0.1,0.5-0.3,0.7C7.5,18.9,7.3,19,7,19
		c-0.3,0-0.5-0.1-0.7-0.3C6.1,18.5,6,18.3,6,18c0-0.3,0.1-0.5,0.3-0.7C6.5,17.1,6.7,17,7,17z"/>
	<path class="st1" d="M7,14c1.4,0.1,2.5,0.4,3.5,1.1c0.9,0.6,1.7,1.6,2.3,2.7c-0.5,1.4-1.4,2.4-2.3,3.1C9.4,21.6,8.2,22,7,22
		c-1.3-0.1-2.5-0.5-3.5-1.2c-1-0.7-1.8-1.6-2.4-2.8c0.6-1.2,1.5-2.2,2.4-2.9C4.6,14.4,5.8,14,7,14z"/>
	<path class="st2" d="M1,11V4.6C1,2.1,3,0,5.5,0h10.9C19,0,21,2.1,21,4.6v12.8c0,2.5-2,4.6-4.5,4.6H15"/>
	<path class="st2" d="M0,0"/>
</g>
<line class="st2" x1="16.1" y1="7.1" x2="8" y2="7.1"/>
<line class="st2" x1="16.1" y1="11" x2="10.7" y2="11"/>
</svg>
