<svg xmlns="http://www.w3.org/2000/svg" width="20" height="20" viewBox="0 0 20 20">
  <g fill="none" fill-rule="evenodd">
    <rect width="20" height="20"/>
    <g stroke="#FFF" stroke-linecap="round" stroke-linejoin="round" stroke-width="1.5" transform="translate(2 3)">
      <path d="M10.0633784,6.00016434 C10.0633784,7.43483977 8.91527027,8.59753492 7.49959459,8.59753492 C6.08391892,8.59753492 4.93662162,7.43483977 4.93662162,6.00016434 C4.93662162,4.56466721 6.08391892,3.40197206 7.49959459,3.40197206 C8.91527027,3.40197206 10.0633784,4.56466721 10.0633784,6.00016434 Z"/>
      <path d="M7.49837838,12 C10.5859459,12 13.41,9.75020542 15,6 C13.41,2.24979458 10.5859459,0 7.49837838,0 L7.50162162,0 C4.41405405,0 1.59,2.24979458 0,6 C1.59,9.75020542 4.41405405,12 7.50162162,12 L7.49837838,12 Z"/>
    </g>
  </g>
</svg>
