<?xml version="1.0" encoding="utf-8"?>
<!-- Generator: Adobe Illustrator 25.1.0, SVG Export Plug-In . SVG Version: 6.00 Build 0)  -->
<svg version="1.1" id="Layer_1" xmlns="http://www.w3.org/2000/svg" xmlns:xlink="http://www.w3.org/1999/xlink" x="0px" y="0px"
	 viewBox="0 0 24 24" style="enable-background:new 0 0 24 24;" xml:space="preserve">
<style type="text/css">
	.st0{fill:none;}
	.st1{fill-rule:evenodd;clip-rule:evenodd;fill:#FFFFFF;}
</style>
<g>
	<rect class="st0" width="24" height="24"/>
	<path class="st1" d="M6.2,15.9l9.2-9.2c0.4-0.4,1-0.4,1.4,0l0,0c0.4,0.4,0.4,1,0,1.4l-9.2,9.2c-0.4,0.4-1,0.4-1.4,0l0,0
		C5.8,16.9,5.8,16.3,6.2,15.9z"/>
	<path class="st1" d="M15.4,17.3L6.2,8.1c-0.4-0.4-0.4-1,0-1.4s1-0.4,1.4,0l9.2,9.2c0.4,0.4,0.4,1,0,1.4
		C16.4,17.7,15.8,17.7,15.4,17.3z"/>
</g>
</svg>
