<svg xmlns="http://www.w3.org/2000/svg" width="24" height="24" viewBox="0 0 24 24">
  <g fill="none" fill-rule="evenodd">
    <rect width="24" height="24"/>
    <path stroke="#3A4A69" stroke-width="2" d="M17.0407296,1.50065025 C17.3817792,1.49207139 17.6586115,1.60039935 17.8894735,1.78818712 C18.1574069,2.00612953 18.3634724,2.32657354 18.4840241,2.71471546 C18.6232031,3.24923364 18.6833127,3.84763749 18.7465721,4.43654649 C18.7702694,4.65715421 18.7938928,4.87666986 18.8208813,5.09509855 C18.934652,5.99339944 18.9911569,8.62234506 18.9990896,11.3686466 L18.9990896,11.3686466 L18.9990937,12.6299713 C18.9911569,15.3791599 18.934652,18.0081055 18.8205007,18.9094496 C18.7919234,19.1407774 18.7686252,19.3711062 18.745427,19.6012733 C18.6892913,20.1582396 18.637328,20.7149268 18.4842828,21.2846326 C18.3638554,21.6733338 18.157927,21.9940169 17.8899851,22.2119662 C17.659,22.3998541 17.3819457,22.5079317 17.0908218,22.4995373 C16.7302944,22.5068912 16.3142675,22.2847647 16.032041,22.0485843 L16.032041,22.0485843 L10.2716069,17.4248939 L6.86754574,17.4248939 C6.42410155,17.4248939 6.04355423,17.2908474 5.76438828,17.0157949 C5.44687283,16.702958 5.26501842,16.2380901 5.19635228,15.6785845 C4.91936618,13.7211968 4.9462564,10.2195534 5.19536088,8.2393723 C5.26669033,7.74832084 5.46712245,7.30301722 5.79389072,6.99233773 C6.06928821,6.73049973 6.43585472,6.57661107 6.86754574,6.57661107 L6.86754574,6.57661107 L10.2725959,6.57661107 L15.9210573,2.02642966 C16.2142132,1.77895264 16.7193957,1.49381407 17.0407296,1.50065025 Z" transform="matrix(-1 0 0 1 24 0)"/>
  </g>
</svg>
