<svg xmlns="http://www.w3.org/2000/svg" width="24" height="24" viewBox="0 0 24 24">
  <g fill="none" fill-rule="evenodd">
    <rect width="24" height="24"/>
    <path fill="#D7E0F2" fill-rule="nonzero" d="M16.3357 6.39573678L18.3628 6.27923678 18.4094 4.04243678C17.6405 3.94923678 16.7551 4.01913678 16.0794 4.15893678 16.0561 4.90453678 16.126 5.67343678 16.3357 6.39573678zM17.0813 17.9525368C19.5045 17.9525368 21.9743 17.3700368 23.1626 16.2050368 23.5587 15.3662368 23.7684 13.9915368 23.7684 11.9178368 23.7684 10.8926368 23.6985 9.23833678 23.6053 7.46753678L20.8326 7.74713678C20.9724 9.65773678 21.1355 12.1741368 21.1355 13.5954368L21.1355 14.2944368C20.1569 14.7371368 18.8521 14.9235368 17.5473 14.9235368 14.728 14.9235368 13.6562 13.8750368 13.6562 11.3120368 13.6562 10.5431368 13.796 9.65773678 13.9824 8.72573678L11.699 8.72573678C11.1864 10.0771368 11 11.3120368 11 12.3139368 11 15.9953368 13.1902 17.9525368 17.0813 17.9525368zM4.059 11.5784041L5.4156 11.5119041 5.4555 10.0356041C4.9235 9.95580414 4.3516 10.0223041 3.8861 10.1154041 3.8861 10.6208041 3.9393 11.1262041 4.059 11.5784041zM4.5511 18.1885041C5.9077 18.1885041 7.384 17.8959041 8.0756 17.2708041 8.3948 16.6058041 8.5278 15.6216041 8.5278 14.2783041 8.5278 13.7197041 8.5012 12.8951041 8.448 12.0705041L6.453 12.2567041C6.5195 13.1611041 6.6126 14.4778041 6.6126 15.4886041L6.6126 15.7812041C6.1072 15.9408041 5.4821 15.9940041 4.8836 15.9940041 3.3408 15.9940041 2.9019 15.4620041 2.9019 14.0788041 2.9019 13.7330041 2.9551 13.2808041 3.0216 12.8153041L1.3724 12.8153041C1.0931 13.5601041 1 14.2384041 1 14.7704041 1 16.9250041 2.1837 18.1885041 4.5511 18.1885041z"/>
  </g>
</svg>
