<?xml version="1.0" encoding="UTF-8"?>
<svg width="203px" height="58px" viewBox="0 0 203 58" version="1.1" xmlns="http://www.w3.org/2000/svg" xmlns:xlink="http://www.w3.org/1999/xlink">
    <title>logo_full</title>
    <g id="guidline" stroke="none" stroke-width="1" fill="none" fill-rule="evenodd">
        <g id="icons" transform="translate(-775.000000, -667.000000)">
            <g id="Group-8-Copy" transform="translate(775.214118, 667.857024)">
                <g id="Group" transform="translate(142.537882, 0.000000)">
                    <g id="Group-16" transform="translate(30.000000, 26.000000) scale(-1, 1) translate(-30.000000, -26.000000) ">
                        <polygon id="Fill-1" fill="#7B8D37" points="1.0692 38.3036727 23.7924 50.5106727 23.7924 21.1164909 0 9.96130909"></polygon>
                        <polygon id="Fill-2" fill="#B8CD1A" points="23.7924 21.1163727 23.7924 50.5105545 47.0616 37.9726455 47.514 9.96119091"></polygon>
                        <polygon id="Fill-3" fill="#C6D733" points="23.7924 0 0 9.96036364 23.7924 21.1167273 47.514 9.96036364"></polygon>
                        <polygon id="Fill-4" fill="#7B8D37" points="41.12124 35.7982182 41.47644 45.2279455 49.03764 49.2898545 49.03764 39.5103091"></polygon>
                        <polygon id="Fill-5" fill="#B8CD1A" points="49.03728 39.5098364 56.92968 35.7977455 56.57448 45.2286545 49.03728 49.2893818"></polygon>
                        <polygon id="Fill-6" fill="#C6D733" points="41.12124 35.7982182 49.03764 32.4832182 56.93004 35.7982182 49.03764 39.5103091"></polygon>
                        <polygon id="Fill-7" fill="#7B8D37" points="52.24392 49.1527636 55.87032 51.1015818 55.87032 46.4097636 52.07232 44.6275818"></polygon>
                        <polygon id="Fill-8" fill="#B8CD1A" points="55.87056 46.4096455 55.87056 51.1014636 59.48616 49.1526455 59.65656 44.6274636"></polygon>
                        <polygon id="Fill-9" fill="#C6D733" points="52.0722 44.6280545 55.8702 46.4102364 59.6574 44.6280545 55.8702 43.0373273"></polygon>
                        <polygon id="Fill-10" fill="#7B8D37" points="28.67508 48.1008273 33.46068 50.6712818 33.46068 44.4797364 28.44948 42.1302818"></polygon>
                        <polygon id="Fill-11" fill="#B8CD1A" points="33.46056 44.4802091 33.46056 50.6717545 38.23056 48.1013 38.45616 42.1307545"></polygon>
                        <polygon id="Fill-12" fill="#C6D733" points="28.44972 42.1308727 33.46092 40.0343273 38.45652 42.1308727 33.46092 44.4803273"></polygon>
                        <polygon id="Fill-13" fill="#7B8D37" points="40.10688 48.7836818 42.85728 50.2621364 42.85728 46.7025 39.97728 45.3528636"></polygon>
                        <polygon id="Fill-14" fill="#B8CD1A" points="42.85764 46.7021455 42.85764 50.2617818 45.59964 48.7833273 45.72924 45.3525091"></polygon>
                        <polygon id="Fill-15" fill="#C6D733" points="39.97692 45.3520364 42.85692 44.1465818 45.72852 45.3520364 42.85692 46.7028545"></polygon>
                    </g>
                </g>
                <g id="logo-text" transform="translate(0.000000, 0.142976)" fill-rule="nonzero">
                    <g id="Group-5" transform="translate(65.478682, 0.000000)">
                        <path d="M13.3355657,28.888665 L13.2179644,3.79969589 L21.6646679,3.79969589 L21.6646679,0 L0.3072,0 L0.3072,3.79969589 L8.75390348,3.79969589 L8.8715048,28.888665 L13.3355657,28.888665 Z M26.54099,29 C29.0793776,29 31.4864692,28.2341698 33.762265,26.7025095 L33.762265,26.7025095 L32.2304794,23.8748288 C30.538221,24.9646641 28.8313742,25.5095817 27.1099389,25.5095817 C25.3009731,25.5095817 23.7618932,24.9425728 22.4926995,23.808555 C21.2235057,22.6745373 20.4867897,21.0176931 20.2825516,18.8380226 L20.2825516,18.8380226 L34.4187445,18.8380226 C34.535452,18.1311025 34.5938057,17.3652723 34.5938057,16.5405321 C34.5938057,13.4183014 33.8352071,10.936717 32.31801,9.0957791 C30.8008128,7.25484117 28.656313,6.3343722 25.8845104,6.3343722 C24.1922521,6.3343722 22.6021127,6.79828856 21.1140924,7.72612128 C19.6260721,8.65395399 18.4225263,9.9794293 17.5034549,11.7025472 C16.5843835,13.4256651 16.1248479,15.4212418 16.1248479,17.6892774 C16.1248479,19.9867679 16.5843835,21.9897084 17.5034549,23.6980988 C18.4225263,25.4064892 19.6698374,26.717237 21.2453883,27.6303422 C22.8209392,28.5434474 24.5861398,29 26.54099,29 Z M30.982061,15.7452469 L20.6096842,15.7452469 C20.9014528,13.8012164 21.5725208,12.3284661 22.6228881,11.3269959 C23.6732554,10.3255256 24.869507,9.82479052 26.2116429,9.82479052 C27.758017,9.82479052 28.9396802,10.3402531 29.7566325,11.3711784 C30.5735848,12.4021036 30.982061,13.8601265 30.982061,15.7452469 L30.982061,15.7452469 Z M44.0079392,29 C45.7001976,29 47.1590411,28.7054499 48.3844695,28.1163498 C49.609898,27.5272497 50.5362636,26.7393282 51.1635663,25.7525855 C51.790869,24.7658428 52.1045203,23.6539162 52.1045203,22.416806 C52.1045203,21.1502407 51.8054574,20.1045879 51.2073316,19.2798477 C50.6092058,18.4551075 49.8797841,17.7997336 49.0190664,17.313726 C48.1583488,16.8277184 47.0860989,16.3490745 45.8023167,15.8777944 C44.6352419,15.4359693 43.7818185,15.0972367 43.2420464,14.8615967 C42.7022744,14.6259566 42.2281503,14.3093153 41.8196741,13.9116727 C41.4111979,13.5140301 41.2069599,13.0206588 41.2069599,12.4315586 C41.2069599,11.6362734 41.5060228,10.9882633 42.1041486,10.4875282 C42.7022744,9.98679305 43.5702862,9.7364255 44.7081841,9.7364255 C45.5543133,9.7364255 46.3566772,9.89842803 47.1152758,10.2224331 C47.8738743,10.5464382 48.6616498,11.0177183 49.4786021,11.6362734 L49.4786021,11.6362734 L51.5355714,8.85277529 C49.4348368,7.1738399 47.1298642,6.3343722 44.6206535,6.3343722 C42.286504,6.3343722 40.4337728,6.92347234 39.06246,8.10167261 C37.6911472,9.27987289 37.0054908,10.7968057 37.0054908,12.6524712 C37.0054908,14.2724966 37.5598513,15.5464256 38.6685723,16.4742583 C39.7772933,17.402091 41.279902,18.2194675 43.1763985,18.9263876 C44.7519494,19.5154878 45.9336126,20.0677692 46.721388,20.5832318 C47.5091635,21.0986944 47.9030512,21.7982508 47.9030512,22.681901 C47.9030512,23.5360962 47.5821057,24.2356526 46.9402145,24.7805703 C46.2983234,25.3254879 45.3646636,25.5979467 44.1392352,25.5979467 C43.0305141,25.5979467 41.9947353,25.3843979 41.0318986,24.9573003 C40.069062,24.5302027 39.0770484,23.9190113 38.055858,23.1237261 L38.055858,23.1237261 L35.9551235,25.9955893 C37.0346676,26.8792395 38.289273,27.6008872 39.7189396,28.1605323 C41.1486061,28.7201774 42.5782727,29 44.0079392,29 Z M63.1057309,29 C64.3311594,29 65.7316491,28.7349049 67.3072,28.2047148 L67.3072,28.2047148 L66.5194245,24.8910265 C65.6441185,25.2444866 64.8709315,25.4212167 64.1998635,25.4212167 C63.0911425,25.4212167 62.2887786,25.0898478 61.7927718,24.4271102 C61.2967651,23.7643725 61.0487617,22.770266 61.0487617,21.4447907 L61.0487617,21.4447907 L61.0487617,10.4433457 L66.6507205,10.4433457 L66.6507205,6.86456232 L61.0487617,6.86456232 L61.0487617,0.899923429 L57.3724762,0.899923429 L56.8472926,6.86456232 L53.5211296,7.08547488 L53.5211296,10.4433457 L56.6284661,10.4433457 L56.6284661,21.4447907 C56.6284661,26.4815969 58.7875543,29 63.1057309,29 Z" id="Test" fill="#ECEFF6"></path>
                        <path d="M3.387904,12.4381456 C3.94511897,12.4381456 4.40430538,12.2771305 4.76546323,11.9551004 C5.12662108,11.6330702 5.3072,11.2163253 5.3072,10.7048656 C5.3072,10.2123489 5.12662108,9.80507542 4.76546323,9.48304525 C4.40430538,9.16101508 3.94511897,9 3.387904,9 C2.83068903,9 2.37150263,9.16101508 2.01034478,9.48304525 C1.64918693,9.80507542 1.468608,10.2123489 1.468608,10.7048656 C1.468608,11.2163253 1.64918693,11.6330702 2.01034478,11.9551004 C2.37150263,12.2771305 2.83068903,12.4381456 3.387904,12.4381456 Z M5.145792,29 L5.145792,14.5055594 L1.3072,14.5055594 L1.3072,29 L5.145792,29 Z" id="i" fill="#BAD104"></path>
                    </g>
                    <path d="M133.22,50.964992 L133.22,49.744992 L131.8,49.744992 L131.8,43.584992 C131.8,41.104992 130.68,39.864992 128.44,39.864992 L128.44,39.864992 L124.5,39.864992 L124.5,41.084992 L128.1,41.084992 C128.793333,41.084992 129.326667,41.274992 129.7,41.654992 C130.073333,42.034992 130.26,42.6583253 130.26,43.524992 L130.26,43.524992 L130.26,49.744992 L124.5,49.744992 L124.5,50.964992 L133.22,50.964992 Z M115.02,50.964992 L115.02,41.084992 L118.42,41.084992 C119.126667,41.084992 119.663333,41.314992 120.03,41.774992 C120.396667,42.234992 120.58,42.9116587 120.58,43.804992 L120.58,43.804992 L120.58,50.964992 L122.12,50.964992 L122.12,43.864992 C122.12,42.544992 121.826667,41.5483253 121.24,40.874992 C120.653333,40.2016587 119.826667,39.864992 118.76,39.864992 L118.76,39.864992 L113.48,39.864992 L113.48,50.964992 L115.02,50.964992 Z M109.3,46.764992 L110.82,46.444992 L110.84,45.184992 L110.84,42.204992 L110.56,39.864992 L109.04,39.864992 L109.3,42.204992 L109.3,46.764992 Z M106.36,50.964992 L106.36,43.044992 C106.36,42.1383253 106.146667,41.4216587 105.72,40.894992 C105.293333,40.3683253 104.68,40.0383253 103.88,39.904992 L103.88,39.904992 L102.14,39.644992 L101.92,40.844992 L103.26,41.044992 C103.78,41.124992 104.17,41.3216587 104.43,41.634992 C104.69,41.9483253 104.82,42.4316587 104.82,43.084992 L104.82,43.084992 L104.82,49.744992 L101.34,49.744992 L101.34,50.964992 L106.36,50.964992 Z M99,50.964992 L99,42.204992 L98.72,39.864992 L97.2,39.864992 L97.46,42.204992 L97.46,50.964992 L99,50.964992 Z M84.4,51.244992 C85.6133333,51.1383253 86.4933333,50.794992 87.04,50.214992 C87.5866667,49.634992 87.86,48.7583253 87.86,47.584992 L87.86,47.584992 L87.86,41.084992 L90.88,41.084992 C91.5733333,41.084992 92.1066667,41.274992 92.48,41.654992 C92.8533333,42.034992 93.04,42.6583253 93.04,43.524992 L93.04,43.524992 L93.04,50.964992 L94.58,50.964992 L94.58,43.584992 C94.58,41.104992 93.46,39.864992 91.22,39.864992 L91.22,39.864992 L86.32,39.864992 L86.32,47.744992 C86.32,48.5183253 86.17,49.094992 85.87,49.474992 C85.57,49.854992 85.0266667,50.0783253 84.24,50.144992 L84.24,50.144992 L84.4,51.244992 Z M74.18,51.184992 C75.66,51.184992 76.7966667,50.6783253 77.59,49.664992 C78.3833333,48.6516587 78.78,47.1983253 78.78,45.304992 C78.78,43.344992 78.41,41.9283253 77.67,41.054992 C76.93,40.1816587 75.9266667,39.744992 74.66,39.744992 C73.9133333,39.744992 73.2466667,39.954992 72.66,40.374992 C72.0733333,40.794992 71.6466667,41.424992 71.38,42.264992 L71.38,42.264992 L70.38,39.864992 L68.78,39.864992 L70.32,43.184992 L68.84,50.964992 L70.38,50.964992 L71.8,43.244992 C71.96,42.5783253 72.26,42.0383253 72.7,41.624992 C73.14,41.2116587 73.72,41.004992 74.44,41.004992 C76.3466667,41.004992 77.3,42.4583253 77.3,45.364992 C77.3,46.884992 77.0366667,48.0283253 76.51,48.794992 C75.9833333,49.5616587 75.1666667,49.944992 74.06,49.944992 C73.5933333,49.944992 73.14,49.8916587 72.7,49.784992 L72.7,49.784992 L72.54,51.004992 C73.1266667,51.124992 73.6733333,51.184992 74.18,51.184992 Z M56.2,51.244992 C57.4133333,51.1383253 58.2933333,50.794992 58.84,50.214992 C59.3866667,49.634992 59.66,48.7583253 59.66,47.584992 L59.66,47.584992 L59.66,41.084992 L62.68,41.084992 C63.3733333,41.084992 63.9066667,41.274992 64.28,41.654992 C64.6533333,42.034992 64.84,42.6583253 64.84,43.524992 L64.84,43.524992 L64.84,50.964992 L66.38,50.964992 L66.38,43.584992 C66.38,41.104992 65.26,39.864992 63.02,39.864992 L63.02,39.864992 L58.12,39.864992 L58.12,47.744992 C58.12,48.5183253 57.97,49.094992 57.67,49.474992 C57.37,49.854992 56.8266667,50.0783253 56.04,50.144992 L56.04,50.144992 L56.2,51.244992 Z M54.22,50.964992 L54.22,42.204992 L53.94,39.864992 L52.42,39.864992 L52.68,42.204992 L52.68,50.964992 L54.22,50.964992 Z M44.7,50.964992 C46.18,50.9116587 47.3633333,50.384992 48.25,49.384992 C49.1366667,48.384992 49.6266667,46.9183253 49.72,44.984992 L49.72,44.984992 L50.04,40.964992 L50.1,39.864992 L41.26,39.864992 L41.26,41.084992 L48.46,41.084992 L48.12,45.284992 C48.04,46.4183253 47.84,47.2983253 47.52,47.924992 C47.2,48.5516587 46.8,48.9916587 46.32,49.244992 C45.84,49.4983253 45.2466667,49.664992 44.54,49.744992 L44.54,49.744992 L44.7,50.964992 Z M42.84,54.964992 L42.84,43.924992 L41.52,43.924992 L41.3,45.284992 L41.3,54.964992 L42.84,54.964992 Z M29.92,51.164992 C33,51.1383253 35.2966667,50.4316587 36.81,49.044992 C38.3233333,47.6583253 39.0733333,45.5516587 39.06,42.724992 L39.06,42.724992 L39.04,39.864992 L37.5,39.864992 L37.52,42.784992 C37.5333333,45.0516587 37.0133333,46.754992 35.96,47.894992 C34.9066667,49.034992 33.32,49.6716587 31.2,49.804992 L31.2,49.804992 L30.82,46.724992 C32.1666667,46.1383253 33.12,45.414992 33.68,44.554992 C34.24,43.694992 34.5333333,42.5316587 34.56,41.064992 L34.56,41.064992 L34.58,39.904992 L33.1,39.904992 L33.08,41.084992 C33.0533333,41.924992 32.9633333,42.6116587 32.81,43.144992 C32.6566667,43.6783253 32.4133333,44.1283253 32.08,44.494992 C31.7466667,44.8616587 31.28,45.204992 30.68,45.524992 L30.68,45.524992 L30,39.864992 L28.52,39.864992 L29.92,51.164992 Z M26.76,50.964992 L26.76,49.744992 L25.34,49.744992 L25.34,43.584992 C25.34,41.104992 24.22,39.864992 21.98,39.864992 L21.98,39.864992 L18.04,39.864992 L18.04,41.084992 L21.64,41.084992 C22.3333333,41.084992 22.8666667,41.274992 23.24,41.654992 C23.6133333,42.034992 23.8,42.6583253 23.8,43.524992 L23.8,43.524992 L23.8,49.744992 L18.04,49.744992 L18.04,50.964992 L26.76,50.964992 Z M15.64,50.964992 L15.64,42.204992 L15.36,39.864992 L13.84,39.864992 L14.1,42.204992 L14.1,50.964992 L15.64,50.964992 Z M1.04,51.244992 C2.25333333,51.1383253 3.13333333,50.794992 3.68,50.214992 C4.22666667,49.634992 4.5,48.7583253 4.5,47.584992 L4.5,47.584992 L4.5,41.084992 L7.52,41.084992 C8.21333333,41.084992 8.74666667,41.274992 9.12,41.654992 C9.49333333,42.034992 9.68,42.6583253 9.68,43.524992 L9.68,43.524992 L9.68,50.964992 L11.22,50.964992 L11.22,43.584992 C11.22,41.104992 10.1,39.864992 7.86,39.864992 L7.86,39.864992 L2.96,39.864992 L2.96,47.744992 C2.96,48.5183253 2.81,49.094992 2.51,49.474992 C2.21,49.854992 1.66666667,50.0783253 0.88,50.144992 L0.88,50.144992 L1.04,51.244992 Z" id="בחינותמתוקשבות" fill="#D7E0F2"></path>
                </g>
            </g>
        </g>
    </g>
</svg>