<svg xmlns="http://www.w3.org/2000/svg" width="201" height="59" viewBox="0 0 201 59">
  <g fill="none" fill-rule="evenodd" transform="translate(.094 .857)">
    <g transform="matrix(-1 0 0 1 200.658 0)">
      <polygon fill="#7B8D37" points="1.069 38.304 23.792 50.511 23.792 21.116 0 9.961"/>
      <polygon fill="#B8CD1A" points="23.792 21.116 23.792 50.511 47.062 37.973 47.514 9.961"/>
      <polygon fill="#C6D733" points="23.792 0 0 9.96 23.792 21.117 47.514 9.96"/>
      <polygon fill="#7B8D37" points="41.121 35.798 41.476 45.228 49.038 49.29 49.038 39.51"/>
      <polygon fill="#B8CD1A" points="49.037 39.51 56.93 35.798 56.574 45.229 49.037 49.289"/>
      <polygon fill="#C6D733" points="41.121 35.798 49.038 32.483 56.93 35.798 49.038 39.51"/>
      <polygon fill="#7B8D37" points="52.244 49.153 55.87 51.102 55.87 46.41 52.072 44.628"/>
      <polygon fill="#B8CD1A" points="55.871 46.41 55.871 51.101 59.486 49.153 59.657 44.627"/>
      <polygon fill="#C6D733" points="52.072 44.628 55.87 46.41 59.657 44.628 55.87 43.037"/>
      <polygon fill="#7B8D37" points="28.675 48.101 33.461 50.671 33.461 44.48 28.449 42.13"/>
      <polygon fill="#B8CD1A" points="33.461 44.48 33.461 50.672 38.231 48.101 38.456 42.131"/>
      <polygon fill="#C6D733" points="28.45 42.131 33.461 40.034 38.457 42.131 33.461 44.48"/>
      <polygon fill="#7B8D37" points="40.107 48.784 42.857 50.262 42.857 46.703 39.977 45.353"/>
      <polygon fill="#B8CD1A" points="42.858 46.702 42.858 50.262 45.6 48.783 45.729 45.353"/>
      <polygon fill="#C6D733" points="39.977 45.352 42.857 44.147 45.729 45.352 42.857 46.703"/>
    </g>
    <g fill-rule="nonzero" transform="translate(63.599 .143)">
      <path fill="#ECEFF6" d="M13.3355657,28.888665 L13.2179644,3.79969589 L21.6646679,3.79969589 L21.6646679,0 L0.3072,0 L0.3072,3.79969589 L8.75390348,3.79969589 L8.8715048,28.888665 L13.3355657,28.888665 Z M26.54099,29 C29.0793776,29 31.4864692,28.2341698 33.762265,26.7025095 L33.762265,26.7025095 L32.2304794,23.8748288 C30.538221,24.9646641 28.8313742,25.5095817 27.1099389,25.5095817 C25.3009731,25.5095817 23.7618932,24.9425728 22.4926995,23.808555 C21.2235057,22.6745373 20.4867897,21.0176931 20.2825516,18.8380226 L20.2825516,18.8380226 L34.4187445,18.8380226 C34.535452,18.1311025 34.5938057,17.3652723 34.5938057,16.5405321 C34.5938057,13.4183014 33.8352071,10.936717 32.31801,9.0957791 C30.8008128,7.25484117 28.656313,6.3343722 25.8845104,6.3343722 C24.1922521,6.3343722 22.6021127,6.79828856 21.1140924,7.72612128 C19.6260721,8.65395399 18.4225263,9.9794293 17.5034549,11.7025472 C16.5843835,13.4256651 16.1248479,15.4212418 16.1248479,17.6892774 C16.1248479,19.9867679 16.5843835,21.9897084 17.5034549,23.6980988 C18.4225263,25.4064892 19.6698374,26.717237 21.2453883,27.6303422 C22.8209392,28.5434474 24.5861398,29 26.54099,29 Z M30.982061,15.7452469 L20.6096842,15.7452469 C20.9014528,13.8012164 21.5725208,12.3284661 22.6228881,11.3269959 C23.6732554,10.3255256 24.869507,9.82479052 26.2116429,9.82479052 C27.758017,9.82479052 28.9396802,10.3402531 29.7566325,11.3711784 C30.5735848,12.4021036 30.982061,13.8601265 30.982061,15.7452469 L30.982061,15.7452469 Z M44.0079392,29 C45.7001976,29 47.1590411,28.7054499 48.3844695,28.1163498 C49.609898,27.5272497 50.5362636,26.7393282 51.1635663,25.7525855 C51.790869,24.7658428 52.1045203,23.6539162 52.1045203,22.416806 C52.1045203,21.1502407 51.8054574,20.1045879 51.2073316,19.2798477 C50.6092058,18.4551075 49.8797841,17.7997336 49.0190664,17.313726 C48.1583488,16.8277184 47.0860989,16.3490745 45.8023167,15.8777944 C44.6352419,15.4359693 43.7818185,15.0972367 43.2420464,14.8615967 C42.7022744,14.6259566 42.2281503,14.3093153 41.8196741,13.9116727 C41.4111979,13.5140301 41.2069599,13.0206588 41.2069599,12.4315586 C41.2069599,11.6362734 41.5060228,10.9882633 42.1041486,10.4875282 C42.7022744,9.98679305 43.5702862,9.7364255 44.7081841,9.7364255 C45.5543133,9.7364255 46.3566772,9.89842803 47.1152758,10.2224331 C47.8738743,10.5464382 48.6616498,11.0177183 49.4786021,11.6362734 L49.4786021,11.6362734 L51.5355714,8.85277529 C49.4348368,7.1738399 47.1298642,6.3343722 44.6206535,6.3343722 C42.286504,6.3343722 40.4337728,6.92347234 39.06246,8.10167261 C37.6911472,9.27987289 37.0054908,10.7968057 37.0054908,12.6524712 C37.0054908,14.2724966 37.5598513,15.5464256 38.6685723,16.4742583 C39.7772933,17.402091 41.279902,18.2194675 43.1763985,18.9263876 C44.7519494,19.5154878 45.9336126,20.0677692 46.721388,20.5832318 C47.5091635,21.0986944 47.9030512,21.7982508 47.9030512,22.681901 C47.9030512,23.5360962 47.5821057,24.2356526 46.9402145,24.7805703 C46.2983234,25.3254879 45.3646636,25.5979467 44.1392352,25.5979467 C43.0305141,25.5979467 41.9947353,25.3843979 41.0318986,24.9573003 C40.069062,24.5302027 39.0770484,23.9190113 38.055858,23.1237261 L38.055858,23.1237261 L35.9551235,25.9955893 C37.0346676,26.8792395 38.289273,27.6008872 39.7189396,28.1605323 C41.1486061,28.7201774 42.5782727,29 44.0079392,29 Z M63.1057309,29 C64.3311594,29 65.7316491,28.7349049 67.3072,28.2047148 L67.3072,28.2047148 L66.5194245,24.8910265 C65.6441185,25.2444866 64.8709315,25.4212167 64.1998635,25.4212167 C63.0911425,25.4212167 62.2887786,25.0898478 61.7927718,24.4271102 C61.2967651,23.7643725 61.0487617,22.770266 61.0487617,21.4447907 L61.0487617,21.4447907 L61.0487617,10.4433457 L66.6507205,10.4433457 L66.6507205,6.86456232 L61.0487617,6.86456232 L61.0487617,0.899923429 L57.3724762,0.899923429 L56.8472926,6.86456232 L53.5211296,7.08547488 L53.5211296,10.4433457 L56.6284661,10.4433457 L56.6284661,21.4447907 C56.6284661,26.4815969 58.7875543,29 63.1057309,29 Z"/>
      <path fill="#BAD104" d="M3.387904,12.4381456 C3.94511897,12.4381456 4.40430538,12.2771305 4.76546323,11.9551004 C5.12662108,11.6330702 5.3072,11.2163253 5.3072,10.7048656 C5.3072,10.2123489 5.12662108,9.80507542 4.76546323,9.48304525 C4.40430538,9.16101508 3.94511897,9 3.387904,9 C2.83068903,9 2.37150263,9.16101508 2.01034478,9.48304525 C1.64918693,9.80507542 1.468608,10.2123489 1.468608,10.7048656 C1.468608,11.2163253 1.64918693,11.6330702 2.01034478,11.9551004 C2.37150263,12.2771305 2.83068903,12.4381456 3.387904,12.4381456 Z M5.145792,29 L5.145792,14.5055594 L1.3072,14.5055594 L1.3072,29 L5.145792,29 Z"/>
    </g>
    <path fill="#D7E0F2" fill-rule="nonzero" d="M131.081,50.142976 L131.081,36.215976 L129.428,36.386976 L129.428,50.142976 L131.081,50.142976 Z M124.735,50.332976 C125.324,50.332976 125.875,50.256976 126.236,50.047976 C126.654,49.648976 126.958,48.907976 126.958,47.862976 C126.958,45.487976 125.495,43.359976 123.348,43.359976 C121.353,43.359976 120.726,44.670976 119.776,46.855976 C119.567,47.368976 119.396,47.824976 119.225,48.052976 C118.94,48.318976 118.712,48.413976 118.18,48.413976 C117.838,48.413976 117.705,48.679976 117.705,49.268976 C117.705,49.857976 117.838,50.142976 118.18,50.142976 C119.073,50.142976 119.662,49.990976 120.308,48.907976 C122.132,49.971976 123.348,50.332976 124.735,50.332976 Z M124.735,48.546976 C123.633,48.546976 122.626,48.242976 121.011,47.387976 C121.714,45.696976 122.113,45.088976 123.082,45.088976 C124.412,45.088976 125.419,46.494976 125.419,47.995976 C125.419,48.185976 125.362,48.375976 125.324,48.451976 C125.229,48.508976 125.096,48.546976 124.735,48.546976 Z M115.387,42.029976 L116.736,41.972976 L116.774,40.452976 C116.28,40.395976 115.691,40.433976 115.235,40.509976 C115.216,41.003976 115.273,41.516976 115.387,42.029976 Z M112.86,42.105976 L114.209,42.048976 L114.247,40.528976 C113.753,40.471976 113.164,40.509976 112.708,40.585976 C112.689,41.079976 112.746,41.592976 112.86,42.105976 Z M118.18,50.142976 C118.503,50.142976 118.655,49.876976 118.655,49.268976 C118.655,48.679976 118.503,48.413976 118.18,48.413976 C116.356,48.413976 115.691,47.900976 115.691,46.190976 L115.691,44.005976 L114.152,44.157976 L114.152,46.342976 C114.152,46.950976 114.152,47.273976 114.095,47.539976 C113.601,48.128976 112.594,48.413976 111.473,48.413976 C111.131,48.413976 110.998,48.679976 110.998,49.268976 C110.998,49.876976 111.131,50.142976 111.473,50.142976 C113.012,50.142976 114.171,49.591976 114.779,48.774976 C115.406,49.686976 116.546,50.142976 118.18,50.142976 Z M111.473,50.142976 C111.796,50.142976 111.948,49.876976 111.948,49.268976 C111.948,48.679976 111.796,48.413976 111.473,48.413976 C108.946,48.413976 108.775,48.204976 108.433,46.665976 C108.87,46.475976 109.326,46.266976 109.801,46.076976 L109.839,46.076976 L110.086,44.442976 C107.426,44.404976 105.317,42.827976 102.6,42.827976 C101.84,42.827976 100.89,42.979976 100.168,43.340976 L99.94,45.031976 C101.042,44.518976 101.783,44.442976 102.315,44.442976 C104.329,44.442976 105.944,45.278976 107.692,45.753976 C104.348,47.197976 102.068,48.413976 98.629,48.413976 C98.287,48.413976 98.154,48.679976 98.154,49.268976 C98.154,49.876976 98.287,50.142976 98.629,50.142976 C102.106,50.142976 104.386,48.679976 107.445,47.159976 C107.844,49.268976 108.566,50.142976 111.473,50.142976 Z M98.629,50.142976 C98.952,50.142976 99.104,49.876976 99.104,49.268976 C99.104,48.679976 98.952,48.413976 98.629,48.413976 C97.014,48.413976 96.539,48.223976 96.539,47.007976 L96.539,36.215976 L94.886,36.386976 L94.886,47.197976 C94.886,49.439976 95.931,50.142976 98.629,50.142976 Z M89.851,41.725976 L91.2,41.668976 L91.238,40.148976 C90.744,40.091976 90.155,40.129976 89.699,40.205976 C89.68,40.699976 89.737,41.212976 89.851,41.725976 Z M87.4,50.142976 C88.901,50.142976 90.554,49.743976 91.238,49.059976 C91.409,48.660976 91.466,48.109976 91.466,47.197976 C91.466,45.962976 91.371,44.689976 91.276,43.169976 L89.68,43.359976 C89.813,44.993976 89.946,46.570976 90.022,48.033976 C89.3,48.299976 88.464,48.413976 87.4,48.413976 C87.058,48.413976 86.925,48.679976 86.925,49.268976 C86.925,49.876976 87.058,50.142976 87.4,50.142976 Z M87.4,50.142976 C87.723,50.142976 87.875,49.876976 87.875,49.268976 C87.875,48.679976 87.723,48.413976 87.4,48.413976 C85.785,48.413976 85.31,48.223976 85.31,47.007976 L85.31,36.215976 L83.657,36.386976 L83.657,47.197976 C83.657,49.439976 84.702,50.142976 87.4,50.142976 Z M74.423,42.086976 L75.772,42.029976 L75.81,40.509976 C75.316,40.452976 74.727,40.490976 74.271,40.566976 C74.252,41.060976 74.309,41.573976 74.423,42.086976 Z M71.896,42.162976 L73.245,42.105976 L73.283,40.585976 C72.789,40.528976 72.2,40.566976 71.744,40.642976 C71.725,41.136976 71.782,41.649976 71.896,42.162976 Z M73.663,50.370976 C76.171,50.370976 79.002,50.028976 80.313,48.964976 C80.465,48.489976 80.522,47.881976 80.522,47.045976 C80.522,45.639976 80.427,44.461976 80.313,43.169976 L78.717,43.359976 C78.869,44.898976 79.002,46.418976 79.059,47.976976 C77.653,48.432976 75.81,48.584976 73.948,48.584976 C70.034,48.584976 68.799,47.710976 68.799,45.829976 C68.799,45.373976 68.875,44.651976 69.103,43.910976 L67.659,43.910976 C67.298,44.917976 67.184,45.867976 67.184,46.532976 C67.184,49.135976 69.388,50.370976 73.663,50.370976 Z M59.85,50.332976 C60.439,50.332976 60.99,50.256976 61.351,50.047976 C61.769,49.648976 62.073,48.907976 62.073,47.862976 C62.073,45.487976 60.61,43.359976 58.463,43.359976 C56.468,43.359976 55.841,44.670976 54.891,46.855976 C54.682,47.368976 54.511,47.824976 54.34,48.052976 C54.055,48.318976 53.827,48.413976 53.295,48.413976 C52.953,48.413976 52.82,48.679976 52.82,49.268976 C52.82,49.857976 52.953,50.142976 53.295,50.142976 C54.188,50.142976 54.777,49.990976 55.423,48.907976 C57.247,49.971976 58.463,50.332976 59.85,50.332976 Z M59.85,48.546976 C58.748,48.546976 57.741,48.242976 56.126,47.387976 C56.829,45.696976 57.228,45.088976 58.197,45.088976 C59.527,45.088976 60.534,46.494976 60.534,47.995976 C60.534,48.185976 60.477,48.375976 60.439,48.451976 C60.344,48.508976 60.211,48.546976 59.85,48.546976 Z M53.295,50.142976 C53.618,50.142976 53.77,49.876976 53.77,49.268976 C53.77,48.679976 53.618,48.413976 53.295,48.413976 C50.768,48.413976 50.597,48.204976 50.255,46.665976 C50.692,46.475976 51.148,46.266976 51.623,46.076976 L51.661,46.076976 L51.908,44.442976 C49.248,44.404976 47.139,42.827976 44.422,42.827976 C43.662,42.827976 42.712,42.979976 41.99,43.340976 L41.762,45.031976 C42.864,44.518976 43.605,44.442976 44.137,44.442976 C46.151,44.442976 47.766,45.278976 49.514,45.753976 C46.17,47.197976 43.89,48.413976 40.451,48.413976 C40.109,48.413976 39.976,48.679976 39.976,49.268976 C39.976,49.876976 40.109,50.142976 40.451,50.142976 C43.928,50.142976 46.208,48.679976 49.267,47.159976 C49.666,49.268976 50.388,50.142976 53.295,50.142976 Z M32.737,54.493976 C36.233,54.493976 38.532,53.011976 39.102,50.142976 L40.432,50.142976 C40.774,50.142976 40.926,49.876976 40.926,49.268976 C40.926,48.679976 40.774,48.413976 40.432,48.413976 L39.254,48.413976 C39.197,45.316976 37.563,43.625976 35.91,43.625976 C33.915,43.625976 32.775,45.582976 32.775,47.387976 C32.775,49.591976 34.428,50.085976 37.715,50.123976 C37.259,51.928976 35.663,52.745976 32.547,52.935976 L32.737,54.493976 Z M37.867,48.489976 C35.188,48.470976 34.029,48.128976 34.029,47.026976 C34.029,46.304976 34.466,45.354976 35.625,45.354976 C36.689,45.354976 37.753,46.342976 37.867,48.489976 Z M27.721,50.275976 C28.823,50.275976 29.545,50.123976 29.887,49.876976 C30.058,49.458976 30.115,48.907976 30.115,47.767976 C30.115,46.836976 30.077,45.411976 29.849,43.948976 L28.234,44.138976 C28.481,45.601976 28.614,46.893976 28.633,48.432976 C28.386,48.508976 28.101,48.527976 27.683,48.527976 C25.821,48.527976 25.099,48.204976 25.099,46.779976 L25.099,44.879976 L23.56,45.012976 L23.56,46.988976 C23.56,47.444976 23.541,47.862976 23.484,48.090976 C23.218,48.413976 22.724,48.546976 21.831,48.546976 C20.596,48.546976 20.045,48.242976 20.045,47.007976 L20.045,45.183976 L18.487,45.316976 L18.487,47.235976 C18.487,47.520976 18.468,47.843976 18.373,48.033976 C18.031,48.299976 17.29,48.413976 16.245,48.413976 C15.903,48.413976 15.77,48.679976 15.77,49.268976 C15.77,49.876976 15.903,50.142976 16.245,50.142976 C17.613,50.142976 18.639,49.876976 19.171,49.230976 C19.665,49.952976 20.52,50.237976 21.603,50.237976 C22.838,50.237976 23.883,49.895976 24.396,49.173976 C25.004,49.952976 26.106,50.275976 27.721,50.275976 Z M16.245,50.142976 C16.568,50.142976 16.72,49.876976 16.72,49.268976 C16.72,48.679976 16.568,48.413976 16.245,48.413976 C14.421,48.413976 13.756,47.900976 13.756,46.190976 L13.756,44.005976 L12.217,44.157976 L12.217,46.342976 C12.217,46.950976 12.217,47.273976 12.16,47.539976 C11.666,48.128976 10.659,48.413976 9.538,48.413976 C9.196,48.413976 9.063,48.679976 9.063,49.268976 C9.063,49.876976 9.196,50.142976 9.538,50.142976 C11.077,50.142976 12.236,49.591976 12.844,48.774976 C13.471,49.686976 14.611,50.142976 16.245,50.142976 Z M11.894,53.372976 L13.243,53.315976 L13.281,51.795976 C12.787,51.738976 12.198,51.776976 11.742,51.852976 C11.723,52.346976 11.78,52.859976 11.894,53.372976 Z M7.201,38.457976 L8.55,38.400976 L8.588,36.880976 C8.094,36.823976 7.505,36.861976 7.049,36.937976 C7.03,37.431976 7.087,37.944976 7.201,38.457976 Z M4.674,38.533976 L6.023,38.476976 L6.061,36.956976 C5.567,36.899976 4.978,36.937976 4.522,37.013976 C4.503,37.507976 4.56,38.020976 4.674,38.533976 Z M9.538,50.142976 C9.861,50.142976 10.013,49.876976 10.013,49.268976 C10.013,48.679976 9.861,48.413976 9.538,48.413976 C7.961,48.413976 7.467,48.128976 7.467,46.532976 L7.467,40.015976 L5.89,40.186976 L5.871,41.136976 C2.109,42.371976 1.14,44.214976 1.14,45.487976 C1.14,46.779976 1.9,47.881976 4.18,47.881976 C4.693,47.881976 5.377,47.805976 5.928,47.691976 C6.251,49.534976 7.296,50.142976 9.538,50.142976 Z M4.332,46.228976 C3.116,46.228976 2.413,45.905976 2.413,45.107976 C2.413,44.309976 3.553,43.340976 5.871,42.713976 L5.871,46.076976 C5.396,46.190976 4.807,46.228976 4.332,46.228976 Z"/>
  </g>
</svg>
