<?xml version="1.0" encoding="utf-8"?>
<!-- Generator: Adobe Illustrator 19.2.1, SVG Export Plug-In . SVG Version: 6.00 Build 0)  -->
<svg version="1.1" id="Layer_1" xmlns="http://www.w3.org/2000/svg" xmlns:xlink="http://www.w3.org/1999/xlink" x="0px" y="0px" viewBox="0 0 18.7 22.2" style="enable-background:new 0 0 18.7 22.2;" xml:space="preserve">
<style type="text/css">
	.st0{fill:#faae3c;}
</style>
<rect x="14" y="18.3" class="st0" width="2" height="2"/>
<rect x="2" y="18.3" class="st0" width="10" height="2"/>
<path class="st0" d="M15,13.3H3c-0.6,0-1,0.4-1,1v1c0,0.6,0.4,1,1,1h12c0.6,0,1-0.4,1-1v-1C16,13.8,15.5,13.3,15,13.3z"/>
<rect x="14" y="6.8" class="st0" width="2" height="2"/>
<rect x="2" y="6.8" class="st0" width="10" height="2"/>
<path class="st0" d="M15,1.8H3c-0.6,0-1,0.4-1,1v1c0,0.6,0.4,1,1,1h12c0.6,0,1-0.4,1-1v-1C16,2.3,15.5,1.8,15,1.8z"/>
</svg>
