<svg xmlns="http://www.w3.org/2000/svg" width="21" height="23" viewBox="0 0 21 23">
  <g fill="none">
    <polygon fill="#FFF" points="0 16 0 0 11.6 11.6 4.8 11.6 4.4 11.7"/>
    <polygon fill="#FFF" points="9.1 16.7 5.5 18.2 .8 7.1 4.5 5.6"/>
    <rect width="2" height="8" x="4.301" y="8.694" fill="#000" transform="rotate(-22.773 5.3 12.694)"/>
    <polygon fill="#000" points="1 2.4 1 13.6 4 10.7 4.4 10.6 9.2 10.6"/>
    <path fill="#BAD104" d="M20.6606237,20.0861219 C20.5927711,20.6353758 20.5728145,21.1757865 20.4211439,21.7348661 C20.1796685,22.5317263 19.5480407,23.0190786 18.8665212,22.9994273 C18.5432236,23.0072878 18.088212,22.8127399 17.7818775,22.5582556 L14.20864,19.6901482 L12.2179646,19.6901482 C11.2590478,19.6901482 10.6114546,19.0436204 10.4807386,17.9785198 C10.2951418,16.667778 10.3121049,14.2997962 10.4807386,12.9625252 C10.6114546,12.038914 11.2590478,11.3108333 12.2179646,11.3108333 L14.20864,11.3108333 L17.7080379,8.49185414 C18.0143724,8.23540466 18.5432236,7.99369366 18.8665212,8.00057161 C19.5480407,7.98092031 20.1796685,8.46925515 20.4211439,9.26513285 C20.5558513,9.77410155 20.5927711,10.3656057 20.6606237,10.9148596 C20.8232704,12.1990721 20.8232704,18.8019093 20.6606237,20.0861219 Z" transform="matrix(-1 0 0 1 31.13 0)"/>
  </g>
</svg>
