<?xml version="1.0" encoding="utf-8"?>
<!-- Generator: Adobe Illustrator 19.2.1, SVG Export Plug-In . SVG Version: 6.00 Build 0)  -->
<svg version="1.1" xmlns="http://www.w3.org/2000/svg" xmlns:xlink="http://www.w3.org/1999/xlink" x="0px" y="0px"
	 viewBox="0 0 50 35" style="enable-background:new 0 0 50 35;" xml:space="preserve">
<style type="text/css">
	.st0{fill:#A2A1A1;}
	.st1{fill:#FFFFFF;}
	.st2{fill:#666666;}
	.st3{fill:#333333;}
	.st4{fill:#FBB03B;}
	.st5{fill:#CCCCCC;}
	.st6{fill:#E6E6E6;}
	.st7{display:none;}
	.st8{display:inline;}
	.st9{fill:#FFFFFF;stroke:#FFFFFF;stroke-width:0.5;stroke-miterlimit:10;}
	.st10{fill:#FBB03B;stroke:#FBB03B;stroke-width:0.5;stroke-miterlimit:10;}
	.st11{fill:#E6E6E6;stroke:#E6E6E6;stroke-width:0.5;stroke-miterlimit:10;}
	.st12{display:inline;fill:#FBB03B;stroke:#FBB03B;stroke-width:0.5;stroke-miterlimit:10;}
	.st13{display:none;fill:#FBB03B;stroke:#FBB03B;stroke-width:0.6;stroke-miterlimit:10;}
	.st14{fill:none;stroke:#FFFFFF;stroke-miterlimit:10;}
	.st15{fill:none;stroke:#FFFFFF;stroke-width:2;stroke-linecap:round;stroke-miterlimit:10;}
	.st16{fill:none;stroke:#FFFFFF;stroke-width:1.2;stroke-linecap:round;stroke-miterlimit:10;}
	.st17{fill:#FFFFFF;stroke:#FFFFFF;stroke-width:0.25;stroke-miterlimit:10;}
	.st18{fill:none;stroke:#E6E6E6;stroke-miterlimit:10;}
	.st19{fill:none;stroke:#E6E6E6;stroke-width:2;stroke-linecap:round;stroke-miterlimit:10;}
	.st20{fill:none;stroke:#E6E6E6;stroke-width:1.2;stroke-linecap:round;stroke-miterlimit:10;}
	.st21{fill:#E6E6E6;stroke:#E6E6E6;stroke-width:0.25;stroke-miterlimit:10;}
	.st22{fill:none;stroke:#FBB03B;stroke-miterlimit:10;}
	.st23{fill:none;stroke:#FBB03B;stroke-width:2;stroke-linecap:round;stroke-miterlimit:10;}
	.st24{fill:none;stroke:#FBB03B;stroke-width:1.2;stroke-linecap:round;stroke-miterlimit:10;}
	.st25{fill:#FBB03B;stroke:#FBB03B;stroke-width:0.25;stroke-miterlimit:10;}
	.st26{fill:none;stroke:#FBB03B;stroke-width:0.25;stroke-miterlimit:10;}
	.st27{fill:none;stroke:#FFFFFF;stroke-width:0.8145;stroke-miterlimit:10;}
	.st28{fill:none;stroke:#FFFFFF;stroke-width:1.4375;stroke-linecap:round;stroke-miterlimit:10;}
	.st29{display:inline;fill:#FFFFFF;}
	.st30{fill:#FFFFFF;stroke:#FFFFFF;stroke-miterlimit:10;}
	.st31{display:inline;fill-rule:evenodd;clip-rule:evenodd;fill:#FFFFFF;stroke:#FFFFFF;stroke-width:0.3;stroke-miterlimit:10;}
	.st32{fill:none;stroke:#FBB03B;stroke-width:1.4;stroke-miterlimit:1;}
	.st33{fill:none;stroke:#FBB03B;stroke-width:1.4;stroke-miterlimit:10;}
	.st34{fill:none;stroke:#E6E6E6;stroke-width:1.4;stroke-miterlimit:1;}
	.st35{fill:none;stroke:#E6E6E6;stroke-width:1.4;stroke-miterlimit:10;}
	.st36{fill:none;stroke:#FFFFFF;stroke-width:1.4;stroke-miterlimit:1;}
	.st37{fill:none;stroke:#FFFFFF;stroke-width:1.4;stroke-miterlimit:10;}
</style>
<g id="Layer_1">
	<g>
		<g>
			<path class="st1" d="M22,5.8h4.9l6.1,8.4c0.6-0.6,1.1-1.2,1.4-2c0.3-0.8,0.6-1.8,0.7-3.1l0.3-3.3h4.1l-0.4,3.6
				c-0.1,1-0.3,1.9-0.6,2.7c-0.3,0.8-0.7,1.5-1.2,2.2c-0.5,0.7-1.3,1.5-2.5,2.5l5.6,7.6h-4.9l-7.5-10.4c-0.5,0.3-0.9,0.8-1.1,1.4
				c-0.2,0.6-0.5,1.8-0.8,3.6l-0.9,5.4h-4.2l1.3-6.2c0.4-1.7,0.7-2.9,1-3.7s0.7-1.3,1.1-1.8c0.4-0.4,1.1-0.8,1.9-1.2L22,5.8z"/>
		</g>
		<g>
			<path class="st1" d="M9.8,21.7h1.7l2.2,3.4c0.2-0.2,0.4-0.5,0.5-0.8c0.1-0.3,0.2-0.7,0.3-1.3l0.1-1.3h1.5l-0.1,1.4
				c0,0.4-0.1,0.8-0.2,1.1c-0.1,0.3-0.3,0.6-0.4,0.9c-0.2,0.3-0.5,0.6-0.9,1l2,3.1h-1.7L12,25c-0.2,0.1-0.3,0.3-0.4,0.5
				c-0.1,0.2-0.2,0.7-0.3,1.4L11,29.2H9.5l0.4-2.5c0.1-0.7,0.2-1.2,0.4-1.5s0.2-0.5,0.4-0.7c0.2-0.2,0.4-0.3,0.7-0.5L9.8,21.7z"/>
		</g>
	</g>
</g>
<g id="Layer_5">
</g>
<g id="Layer_2">
</g>
<g id="Layer_4" class="st7">
</g>
<g id="Layer_3" class="st7">
</g>
<g id="Layer_6">
</g>
</svg>
