<?xml version="1.0" encoding="utf-8"?>
<!-- Generator: Adobe Illustrator 19.2.1, SVG Export Plug-In . SVG Version: 6.00 Build 0)  -->
<svg version="1.1" xmlns="http://www.w3.org/2000/svg" xmlns:xlink="http://www.w3.org/1999/xlink" x="0px" y="0px"
	 viewBox="0 0 50 35" style="enable-background:new 0 0 50 35;" xml:space="preserve">
<style type="text/css">
	.st0{fill:#A2A1A1;}
	.st1{fill:#FFFFFF;}
	.st2{fill:#666666;}
	.st3{fill:#333333;}
	.st4{fill:#FBB03B;}
	.st5{fill:#CCCCCC;}
	.st6{fill:#E6E6E6;}
	.st7{display:none;}
	.st8{display:inline;}
	.st9{fill:#FFFFFF;stroke:#FFFFFF;stroke-width:0.5;stroke-miterlimit:10;}
	.st10{fill:#FBB03B;stroke:#FBB03B;stroke-width:0.5;stroke-miterlimit:10;}
	.st11{fill:#E6E6E6;stroke:#E6E6E6;stroke-width:0.5;stroke-miterlimit:10;}
	.st12{display:inline;fill:#FBB03B;stroke:#FBB03B;stroke-width:0.5;stroke-miterlimit:10;}
	.st13{display:none;fill:#FBB03B;stroke:#FBB03B;stroke-width:0.6;stroke-miterlimit:10;}
	.st14{fill:none;stroke:#FFFFFF;stroke-miterlimit:10;}
	.st15{fill:none;stroke:#FFFFFF;stroke-width:2;stroke-linecap:round;stroke-miterlimit:10;}
	.st16{fill:none;stroke:#FFFFFF;stroke-width:1.2;stroke-linecap:round;stroke-miterlimit:10;}
	.st17{fill:#FFFFFF;stroke:#FFFFFF;stroke-width:0.25;stroke-miterlimit:10;}
	.st18{fill:none;stroke:#E6E6E6;stroke-miterlimit:10;}
	.st19{fill:none;stroke:#E6E6E6;stroke-width:2;stroke-linecap:round;stroke-miterlimit:10;}
	.st20{fill:none;stroke:#E6E6E6;stroke-width:1.2;stroke-linecap:round;stroke-miterlimit:10;}
	.st21{fill:#E6E6E6;stroke:#E6E6E6;stroke-width:0.25;stroke-miterlimit:10;}
	.st22{fill:none;stroke:#FBB03B;stroke-miterlimit:10;}
	.st23{fill:none;stroke:#FBB03B;stroke-width:2;stroke-linecap:round;stroke-miterlimit:10;}
	.st24{fill:none;stroke:#FBB03B;stroke-width:1.2;stroke-linecap:round;stroke-miterlimit:10;}
	.st25{fill:#FBB03B;stroke:#FBB03B;stroke-width:0.25;stroke-miterlimit:10;}
	.st26{fill:none;stroke:#FBB03B;stroke-width:0.25;stroke-miterlimit:10;}
	.st27{fill:none;stroke:#FFFFFF;stroke-width:0.8145;stroke-miterlimit:10;}
	.st28{fill:none;stroke:#FFFFFF;stroke-width:1.4375;stroke-linecap:round;stroke-miterlimit:10;}
	.st29{display:inline;fill:#FFFFFF;}
	.st30{fill:#FFFFFF;stroke:#FFFFFF;stroke-miterlimit:10;}
	.st31{display:inline;fill-rule:evenodd;clip-rule:evenodd;fill:#FFFFFF;stroke:#FFFFFF;stroke-width:0.3;stroke-miterlimit:10;}
	.st32{fill:none;stroke:#FBB03B;stroke-width:1.4;stroke-miterlimit:1;}
	.st33{fill:none;stroke:#FBB03B;stroke-width:1.4;stroke-miterlimit:10;}
	.st34{fill:none;stroke:#E6E6E6;stroke-width:1.4;stroke-miterlimit:1;}
	.st35{fill:none;stroke:#E6E6E6;stroke-width:1.4;stroke-miterlimit:10;}
	.st36{fill:none;stroke:#FFFFFF;stroke-width:1.4;stroke-miterlimit:1;}
	.st37{fill:none;stroke:#FFFFFF;stroke-width:1.4;stroke-miterlimit:10;}
</style>
<g id="Layer_1">
	<g>
		<g>
			<g>
				<path class="st1" d="M27.5,29.1c-0.6,0-1.3-0.3-1.8-0.8l-5.9-5.7h-2.8c-1.2,0-2.1-1-2.1-2.1v-5.7c0-1.2,1-2.1,2.1-2.1h2.8
					l5.9-5.8c0.7-0.7,1.7-1,2.6-0.6c0.8,0.3,1.3,1.2,1.3,2.2v18.3c0,1.1-0.5,2-1.4,2.4C28,29,27.8,29.1,27.5,29.1z M17.3,20.1h3.5
					l6.4,6.3V8.6l-6.4,6.3h-3.5V20.1z"/>
			</g>
		</g>
		<g>
			<path class="st1" d="M32,21.2c-0.4,0-0.8-0.3-0.9-0.7c-0.1-0.5,0.2-1,0.7-1.2c0.8-0.2,1.4-1,1.4-1.8s-0.6-1.6-1.4-1.8
				c-0.5-0.1-0.8-0.7-0.7-1.2c0.1-0.5,0.6-0.8,1.2-0.7c1.7,0.4,2.8,1.9,2.8,3.7s-1.2,3.2-2.8,3.7C32.2,21.2,32.1,21.2,32,21.2z"/>
		</g>
	</g>
</g>
<g id="Layer_5">
</g>
<g id="Layer_2">
</g>
<g id="Layer_4" class="st7">
</g>
<g id="Layer_3" class="st7">
</g>
<g id="Layer_6">
</g>
</svg>
