<svg xmlns="http://www.w3.org/2000/svg" width="20" height="21" viewBox="0 0 20 21">
  <g fill="none" fill-rule="evenodd" transform="translate(0 1)">
    <rect width="20" height="20"/>
    <g stroke="#3A4A69" stroke-linecap="round" stroke-linejoin="round" stroke-width="1.5" transform="translate(2.714 .714)">
      <path d="M0,8.21809524 C0,12.307619 3.31428571,15.6219048 7.40380952,15.6219048 C11.4933333,15.6219048 14.807619,12.307619 14.807619,8.21809524"/>
      <line x1="7.404" x2="7.404" y1="18.433" y2="15.622"/>
      <path d="M7.53019048,11.8704762 L7.27780952,11.8704762 C5.25685714,11.8704762 3.61780952,10.232381 3.61780952,8.21047619 L3.61780952,3.66 C3.61780952,1.63904762 5.25685714,0 7.27780952,0 L7.53019048,0 C9.55114286,0 11.1901905,1.63904762 11.1901905,3.66 L11.1901905,8.21047619 C11.1901905,10.232381 9.55114286,11.8704762 7.53019048,11.8704762 Z"/>
    </g>
  </g>
</svg>
