<svg xmlns="http://www.w3.org/2000/svg" width="20" height="20" viewBox="0 0 20 20">
  <g fill="none" fill-rule="evenodd">
    <rect width="20" height="20"/>
    <path fill="#3A4A69" fill-rule="nonzero" d="M15.4448861,7 C15.6013312,7 15.7432765,7.07193866 15.8554591,7.19349019 C15.9600102,7.32331053 16.0126673,7.48455236 15.9974044,7.65488987 C15.9974044,7.71111779 15.5791999,12.2842968 15.3403349,14.6301586 C15.1907581,16.0697587 14.3100866,16.9437721 12.9890794,16.9677516 C11.9733309,16.9917312 10.9804768,17 10.0028856,17 C8.96500588,17 7.95002053,16.9917312 6.9647979,16.9677516 C5.68805317,16.9355033 4.80661852,16.0457791 4.6646732,14.6301586 C4.59825879,13.9939071 4.5198035,13.1961669 4.44051656,12.3695948 L4.39293427,11.871253 C4.19500618,9.78925661 4.00589181,7.69288171 4.00073541,7.65488987 C3.99310394,7.48455236 4.04499793,7.32331053 4.1503122,7.19349019 C4.25410018,7.07193866 4.40367696,7 4.56088522,7 L15.4448861,7 Z M12,2 C12.5522847,2 13,2.44771525 13,3 L13,3 L13.0067277,3.11662113 C13.0644928,3.61395981 13.4871642,4 14,4 L14,4 L16,4 C16.5522847,4 17,4.44771525 17,5 C17,5.55228475 16.5522847,6 16,6 L16,6 L4,6 C3.44771525,6 3,5.55228475 3,5 C3,4.44771525 3.44771525,4 4,4 L4,4 L6,4 C6.55228475,4 7,3.55228475 7,3 L7,3 L7.00672773,2.88337887 C7.06449284,2.38604019 7.48716416,2 8,2 L8,2 Z"/>
  </g>
</svg>
