<?xml version="1.0" encoding="utf-8"?>
<!-- Generator: Adobe Illustrator 25.1.0, SVG Export Plug-In . SVG Version: 6.00 Build 0)  -->
<svg version="1.1" id="Layer_1" xmlns="http://www.w3.org/2000/svg" xmlns:xlink="http://www.w3.org/1999/xlink" x="0px" y="0px"
	 viewBox="0 0 24 24" style="enable-background:new 0 0 24 24;" xml:space="preserve">
<style type="text/css">
	.st0{fill:none;}
	.st1{fill:none;stroke:#CCE603;stroke-width:2;stroke-linecap:round;}
	.st2{fill:none;stroke:#CCE603;stroke-width:2;}
	.st3{fill:none;stroke:#CCE603;stroke-width:2;stroke-linecap:round;stroke-miterlimit:10;}
</style>
<g>
	<rect y="0" class="st0" width="24" height="24"/>
	<line class="st1" x1="7.5" y1="8.5" x2="16.5" y2="8.5"/>
	<line class="st1" x1="12.5" y1="12.5" x2="16.5" y2="12.5"/>
	<path class="st2" d="M17,2c1.1,0,2.1,0.4,2.8,1.2C20.6,3.9,21,4.9,21,6l0,0v12c0,1.1-0.4,2.1-1.2,2.8C19.1,21.6,18.1,22,17,22l0,0
		H9.8L3,15.6V6c0-1.1,0.4-2.1,1.2-2.8S5.9,2,7,2l0,0H17z"/>
	<path class="st3" d="M10.3,21v-3.2c0-1.6-1.6-2.8-3.5-2.8c-1.8,0-2.6,0-2.7,0"/>
</g>
</svg>
