<?xml version="1.0" encoding="utf-8"?>
<!-- Generator: Adobe Illustrator 25.1.0, SVG Export Plug-In . SVG Version: 6.00 Build 0)  -->
<svg version="1.1" id="Layer_1" xmlns="http://www.w3.org/2000/svg" xmlns:xlink="http://www.w3.org/1999/xlink" x="0px" y="0px"
	 viewBox="0 0 24 24" style="enable-background:new 0 0 24 24;" xml:space="preserve">
<style type="text/css">
	.st0{fill:none;}
	.st1{fill:none;stroke:#D7E0F2;stroke-width:2;}
	.st2{fill:none;stroke:#D7E0F2;stroke-width:2;stroke-linecap:round;}
</style>
<g>
	<rect y="0" class="st0" width="24" height="24"/>
	<g transform="translate(2 1)">
		<path class="st1" d="M15,1c1.1,0,2.1,0.4,2.8,1.2C18.6,2.9,19,3.9,19,5l0,0v12c0,1.1-0.4,2.1-1.2,2.8C17.1,20.6,16.1,21,15,21l0,0
			H5c-1.1,0-2.1-0.4-2.8-1.2C1.4,19.1,1,18.1,1,17l0,0V5c0-1.1,0.4-2.1,1.2-2.8S3.9,1,5,1l0,0H15z"/>
		<path class="st1" d="M7,6h6c0.6,0,1,0.4,1,1v1c0,0.6-0.4,1-1,1H7C6.4,9,6,8.6,6,8V7C6,6.4,6.4,6,7,6z"/>
		<line class="st2" x1="11.6" y1="13.2" x2="14" y2="13.2"/>
		<line class="st2" x1="6" y1="13.2" x2="8.4" y2="13.2"/>
		<line class="st2" x1="11.6" y1="16.8" x2="14" y2="16.8"/>
		<line class="st2" x1="6" y1="16.8" x2="8.4" y2="16.8"/>
	</g>
</g>
</svg>
