<?xml version="1.0" encoding="utf-8"?>
<!-- Generator: Adobe Illustrator 25.1.0, SVG Export Plug-In . SVG Version: 6.00 Build 0)  -->
<svg version="1.1" id="Layer_1" xmlns="http://www.w3.org/2000/svg" xmlns:xlink="http://www.w3.org/1999/xlink" x="0px" y="0px"
	 viewBox="0 0 24 24" style="enable-background:new 0 0 24 24;" xml:space="preserve">
<style type="text/css">
	.st0{fill:none;}
	.st1{fill:none;stroke:#D7E0F2;stroke-width:2;}
	.st2{fill:none;stroke:#D7E0F2;stroke-width:2;stroke-linecap:round;stroke-miterlimit:10;}
</style>
<rect y="0" class="st0" width="24" height="24"/>
<path class="st1" d="M8.3,3c0.5,0,0.9,0.2,1.2,0.5S10,4.2,10,4.7l0,0v3.6c0,0.5-0.2,0.9-0.5,1.2C9.2,9.8,8.8,10,8.3,10l0,0H4.7
	c-0.5,0-0.9-0.2-1.2-0.5C3.2,9.2,3,8.8,3,8.3l0,0V4.7c0-0.5,0.2-0.9,0.5-1.2S4.2,3,4.7,3l0,0H8.3z"/>
<path class="st1" d="M8.3,14c0.5,0,0.9,0.2,1.2,0.5c0.3,0.3,0.5,0.7,0.5,1.2l0,0v3.6c0,0.5-0.2,0.9-0.5,1.2C9.2,20.8,8.8,21,8.3,21
	l0,0H4.7c-0.5,0-0.9-0.2-1.2-0.5C3.2,20.2,3,19.8,3,19.3l0,0v-3.6c0-0.5,0.2-0.9,0.5-1.2C3.8,14.2,4.2,14,4.7,14l0,0H8.3z"/>
<path class="st1" d="M19.3,14c0.5,0,0.9,0.2,1.2,0.5c0.3,0.3,0.5,0.7,0.5,1.2l0,0v3.6c0,0.5-0.2,0.9-0.5,1.2
	c-0.3,0.3-0.7,0.5-1.2,0.5l0,0h-3.6c-0.5,0-0.9-0.2-1.2-0.5c-0.3-0.3-0.5-0.7-0.5-1.2l0,0v-3.6c0-0.5,0.2-0.9,0.5-1.2
	c0.3-0.3,0.7-0.5,1.2-0.5l0,0H19.3z"/>
<path class="st1" d="M2,2"/>
<polyline class="st2" points="13.9,6.5 16.6,9 21.9,4 "/>
</svg>
