<svg xmlns="http://www.w3.org/2000/svg" width="24" height="26" viewBox="0 0 24 26">
  <g fill="none" fill-rule="evenodd" transform="translate(0 .925)">
    <rect width="24" height="24" y=".075"/>
    <g fill-rule="nonzero" stroke="#CCE603" stroke-width="2" transform="translate(2)">
      <path d="M10.0306512,1.07499457 C12.5198554,1.0831949 14.7714104,2.06341315 16.3976133,3.64602028 C18.0095787,5.21477165 19.0061861,7.37641356 19.0000264,9.76280982 C18.93391,13.0886708 17.0317137,16.0461221 14.7615126,18.3618959 C13.409869,19.7186142 11.9004079,20.9196379 10.2633239,21.9411984 C7.30168682,20.4092545 5.16162247,18.4728931 3.4113851,16.2137604 C1.93131017,14.3445606 1.08786287,12.077254 1.00008576,9.72473487 C1.01394754,7.32900519 2.02358463,5.17084853 3.6429767,3.61083299 C5.28038678,2.0334601 7.53998732,1.06684085 10.0306512,1.07499457 Z"/>
      <circle cx="10" cy="10.075" r="3"/>
    </g>
  </g>
</svg>
