<?xml version="1.0" encoding="utf-8"?>
<!-- Generator: Adobe Illustrator 25.1.0, SVG Export Plug-In . SVG Version: 6.00 Build 0)  -->
<svg version="1.1" id="Layer_1" xmlns="http://www.w3.org/2000/svg" xmlns:xlink="http://www.w3.org/1999/xlink" x="0px" y="0px"
	 viewBox="0 0 24 24" style="enable-background:new 0 0 24 24;" xml:space="preserve">
<style type="text/css">
	.st0{fill:none;}
	.st1{fill:none;stroke:#D7E0F2;stroke-width:2;stroke-linecap:round;}
	.st2{fill:none;stroke:#D7E0F2;stroke-width:2;}
</style>
<g>
	<rect y="0" class="st0" width="24" height="24"/>
	<path class="st1" d="M17.9,11.4c-0.2,1.4-0.9,2.6-1.8,3.5c-1.2,1.2-2.8,1.9-4.5,1.9S8.2,16.1,7.1,15c-0.9-0.9-1.6-2.2-1.8-3.5l0,0"
		/>
	<line class="st1" x1="11.6" y1="20.6" x2="11.6" y2="17.8"/>
	<path class="st2" d="M11.5,3.2c0.8,0,1.6,0.3,2.1,0.8c0.5,0.5,0.8,1.1,0.8,1.9l0,0v4.6c0,0.7-0.3,1.4-0.8,1.9
		c-0.5,0.5-1.1,0.8-1.9,0.8c-0.9,0-1.6-0.3-2.1-0.8c-0.5-0.5-0.8-1.1-0.8-1.9l0,0V5.9c0-0.7,0.3-1.4,0.8-1.9S10.8,3.2,11.5,3.2z"/>
</g>
</svg>
