<svg xmlns="http://www.w3.org/2000/svg" xmlns:xlink="http://www.w3.org/1999/xlink" width="1903" height="751" viewBox="0 0 1903 751">
  <defs>
    <rect id="bg-a" width="1903" height="751" x="0" y="0"/>
  </defs>
  <g fill="none" fill-rule="evenodd">
    <mask id="bg-b" fill="#fff">
      <use xlink:href="#bg-a"/>
    </mask>
    <use fill="#DDDFEB" xlink:href="#bg-a"/>
    <g fill="#EDEFF8" mask="url(#bg-b)" opacity=".563">
      <g transform="translate(-462.711 -49.17)">
        <path d="M2047.02165,299.185244 L2047.02165,299.185244 C2064.36186,315.846195 2092.4969,315.83291 2109.85285,299.155577 L2135.10799,274.894204 C2152.46395,258.210584 2152.47672,231.176655 2135.1365,214.515704 C2117.78975,197.854756 2089.66125,197.868038 2072.29875,214.545374 L2047.05015,238.819315 C2029.68765,255.496652 2029.67489,282.524296 2047.02165,299.185244" transform="rotate(-138 2091.077 256.85)"/>
        <path d="M2552.65082,168.192549 C2570.05421,151.534688 2570.06696,124.538653 2552.67929,107.897219 C2535.28507,91.2557878 2507.07965,91.2691057 2489.67627,107.926967 L2117.02591,464.607462 C2099.61597,481.265327 2099.60322,508.26764 2116.99744,524.909071 C2134.3851,541.556783 2162.59708,541.543462 2180.00047,524.879322 L2261.09815,447.255698 C2278.5081,430.597833 2306.71351,430.584515 2324.10118,447.225949 C2341.4954,463.86738 2341.48265,490.869693 2324.0727,507.533836 L2216.35807,610.640468 C2198.94812,627.298332 2198.93537,654.294368 2216.3296,670.935798 C2233.71726,687.577232 2261.92268,687.563915 2279.33262,670.90605 L2346.80684,606.328568 C2364.21023,589.670707 2392.41564,589.657389 2409.80986,606.298819 C2427.19753,622.940253 2427.18478,649.936289 2409.78139,666.600428 L2310.58471,761.547726 C2293.17476,778.205591 2293.16201,805.207904 2310.55624,821.849335 C2327.9439,838.490769 2356.15587,838.477448 2373.55926,821.819586 L2664.16695,543.660937 C2681.5769,526.996794 2681.58965,500.000759 2664.19543,483.35305 C2646.80776,466.711616 2618.60235,466.724934 2601.1924,483.382799 L2556.79145,525.881702 C2539.38807,542.539563 2511.18265,542.552881 2493.78843,525.91145 C2476.40076,509.270016 2476.41351,482.273981 2493.8169,465.61612 L2628.22066,336.963665 C2645.63061,320.3058 2645.64336,293.303487 2628.24913,276.662056 C2610.86147,260.014344 2582.6495,260.027665 2565.24611,276.691805 L2537.32326,303.412224 C2519.91987,320.076363 2491.70789,320.089684 2474.32023,303.441972 C2456.93257,286.800538 2456.94532,259.798225 2474.3487,243.140363 L2552.65082,168.192549 Z" transform="rotate(-136 2390.596 464.873)"/>
        <path d="M713.880887,748.73923 L713.880887,748.73923 C731.205529,765.400188 759.315309,765.386915 776.655692,748.709589 L801.88817,724.448226 C819.228557,707.764615 819.241322,680.730685 801.91668,664.069727 C784.585502,647.408771 756.482258,647.422041 739.135339,664.099371 L713.90939,688.373301 C696.562471,705.05063 696.549709,732.078274 713.880887,748.73923" transform="rotate(41 757.896 706.404)"/>
        <path d="M624.553297,201.93854 C641.941069,185.280686 641.953816,158.284651 624.581767,141.643209 C607.203165,125.001771 579.02307,125.015077 561.635298,141.672931 L189.319311,498.353268 C171.924986,515.011125 171.912236,542.013439 189.290838,558.654877 C206.662884,575.302596 234.849533,575.289287 252.237308,558.625155 L333.262226,481.001565 C350.656551,464.343708 378.836647,464.330402 396.208695,480.971843 C413.587297,497.613281 413.574547,524.615595 396.180219,541.27973 L288.562235,644.386316 C271.16791,661.044173 271.155163,688.040209 288.533765,704.681647 C305.905814,721.323088 334.08591,721.309782 351.480235,704.651925 L418.893908,640.074472 C436.28168,623.416617 464.461775,623.403312 481.840377,640.04475 C499.212426,656.686191 499.199679,683.682226 481.811904,700.346358 L382.704228,795.293614 C365.309903,811.951472 365.297153,838.953785 382.675755,855.595223 C400.047804,872.236664 428.234453,872.223355 445.622225,855.565501 L735.969164,577.406975 C753.363492,560.74284 753.376239,533.746805 735.99764,517.099088 C718.625591,500.457647 690.445496,500.470953 673.051171,517.12881 L628.690061,559.627694 C611.302289,576.285548 583.122193,576.298854 565.743591,559.657416 C548.371543,543.015975 548.384289,516.01994 565.772061,499.362086 L700.055229,370.709688 C717.449554,354.05183 717.462304,327.049517 700.083702,310.408079 C682.711656,293.760359 654.525007,293.773669 637.137232,310.437801 L609.239434,337.158208 C591.851659,353.82234 563.66501,353.835649 546.292965,337.18793 C528.920916,320.546488 528.933666,293.544175 546.321438,276.886321 L624.553297,201.93854 Z" transform="rotate(44 462.644 498.62)"/>
        <path d="M468.044811,86.2442513 L262.522969,283.737535 C245.127871,300.446279 245.115086,327.524823 262.494409,344.223445 C279.873733,360.922066 308.055042,360.90876 325.443589,344.193722 L530.965431,146.700438 C548.360529,129.991694 548.373317,102.906853 530.993991,86.2145282 C513.621218,69.5222006 485.439909,69.5355071 468.044811,86.2442513" transform="rotate(44 396.744 215.221)"/>
      </g>
    </g>
  </g>
</svg>
