<svg xmlns="http://www.w3.org/2000/svg" xmlns:xlink="http://www.w3.org/1999/xlink" viewBox="0 0 2.4 2.4"><defs><clipPath id="a"><rect x="0.1" y="0.25" width="2.2" height="1.9" style="fill:none"/></clipPath><clipPath id="b"><rect x="0.1" y="0.35" width="2.1" height="1.7" style="fill:none"/></clipPath></defs><g style="opacity:0.699999988079071;isolation:isolate"><g style="clip-path:url(#a)"><g style="clip-path:url(#b)"><path d="M.95391,1.48105A.07622.07622,0,0,1,.9002,1.45859a.38238.38238,0,0,1,.541-.54052.07543.07543,0,0,1,0,.10644.07426.07426,0,0,1-.10547,0,.23219.23219,0,1,0-.32812.32861.07576.07576,0,0,1-.001.106A.0735.0735,0,0,1,.95391,1.48105Z" style="fill:#3a4a69"/><path d="M1.22637,1.56553A.07507.07507,0,0,1,1.2127,1.4166a.23129.23129,0,0,0,.18652-.186.07575.07575,0,0,1,.07422-.062L1.48711,1.17a.07588.07588,0,0,1,.06055.08691A.38326.38326,0,0,1,1.24,1.56406Z" style="fill:#3a4a69"/><path d="M.65215,1.78232a.07311.07311,0,0,1-.0459-.01611,1.37587,1.37587,0,0,1-.40234-.54785.0761.0761,0,0,1,0-.05859A1.38729,1.38729,0,0,1,.60918.609a.88765.88765,0,0,1,1.12695.002.075.075,0,1,1-.09375.11718A.738.738,0,0,0,.702.72666a1.22753,1.22753,0,0,0-.34668.4624,1.20489,1.20489,0,0,0,.34278.459.07518.07518,0,0,1-.0459.13427Z" style="fill:#3a4a69"/><path d="M1.17168,1.97373a.83191.83191,0,0,1-.27051-.04492A.0752.0752,0,0,1,.8543,1.83408.0741.0741,0,0,1,.95,1.78721a.69392.69392,0,0,0,.22168.03613.94765.94765,0,0,0,.81641-.63428A1.43292,1.43292,0,0,0,1.83477.92832a.07542.07542,0,0,1,.01562-.105.07631.07631,0,0,1,.10547.01514,1.60762,1.60762,0,0,1,.18262.3208.07058.07058,0,0,1,0,.05957A1.10215,1.10215,0,0,1,1.17168,1.97373Z" style="fill:#3a4a69"/><path d="M.40508,2.03037a.07353.07353,0,0,1-.05274-.022.07546.07546,0,0,1,0-.10645L1.88457.36973a.07426.07426,0,0,1,.10547,0,.07543.07543,0,0,1,0,.10644L.45781,2.0084A.0735.0735,0,0,1,.40508,2.03037Z" style="fill:#3a4a69"/></g></g></g></svg>