<svg xmlns="http://www.w3.org/2000/svg" xmlns:xlink="http://www.w3.org/1999/xlink" viewBox="0 0 2.4 2.4"><defs><clipPath id="a"><rect x="0.07583" y="0.2875" width="2.14292" height="1.84688" style="fill:none"/></clipPath><clipPath id="b"><rect x="0.17324" y="0.3847" width="2.04551" height="1.65247" style="fill:none"/></clipPath></defs><g style="opacity:0.699999988079071;isolation:isolate"><g style="clip-path:url(#a)"><g style="clip-path:url(#b)"><path d="M1.17129,1.57432a.38257.38257,0,1,1,.38379-.38282A.38343.38343,0,0,1,1.17129,1.57432Zm0-.61475a.23218.23218,0,1,0,.2334.23193A.23256.23256,0,0,0,1.17129.95957Z" style="fill:#3a4a69"/><path d="M1.17227,1.97666h-.002a1.10413,1.10413,0,0,1-.96875-.75537.07866.07866,0,0,1,0-.05957A1.10429,1.10429,0,0,1,1.17031.40684h.00293a1.10564,1.10564,0,0,1,.96875.75488.07866.07866,0,0,1,0,.05957,1.10622,1.10622,0,0,1-.96875.75537ZM.35293,1.1915a.94622.94622,0,0,0,.81836.63477.94853.94853,0,0,0,.81934-.63477A.94794.94794,0,0,0,1.17129.55723.94563.94563,0,0,0,.35293,1.1915Z" style="fill:#3a4a69"/></g></g></g></svg>