<svg xmlns="http://www.w3.org/2000/svg" width="89" height="27" viewBox="0 0 89 27">
  <path fill="#D7E0F2" fill-rule="evenodd" d="M25.2798106 27L26.5998843 27 26.5998843 24.5796584 25.2798106 24.5796584 25.2798106 27zM29.6383986 27L28.3183249 27 28.3183249 24.4756881C28.3183249 24.0706372 28.2535156 23.8089787 28.1234547 23.6904959 27.993615 23.5717965 27.7365899 23.5126634 27.3528219 23.5126634L25.2798106 23.5126634 25.2798106 22.6451613 27.9374323 22.6451613C28.5399592 22.6451613 28.9739379 22.7781566 29.2398107 23.0441473 29.5054622 23.3101379 29.6383986 23.7613256 29.6383986 24.3974938L29.6383986 27zM76.7111494 27L78.0312231 27 78.0312231 24.5796584 76.7111494 24.5796584 76.7111494 27zM81.0697374 27L79.7496637 27 79.7496637 24.4756881C79.7496637 24.0706372 79.6846332 23.8089787 79.5547935 23.6904959 79.4249538 23.5717965 79.1679287 23.5126634 78.7841606 23.5126634L76.7111494 23.5126634 76.7111494 22.6451613 79.3687711 22.6451613C79.971298 22.6451613 80.4052767 22.7781566 80.6709283 23.0441473 80.936801 23.3101379 81.0697374 23.7613256 81.0697374 24.3974938L81.0697374 27zM76.7111494 24.8307564C76.7111494 25.4145084 76.6363809 25.8758278 76.4866362 26.2141014 76.2536077 26.7381701 75.8488194 27 75.2720635 27 75.1557569 27 75.0406965 26.9918242 74.9268823 26.9754726 74.8132757 26.959121 74.6816 26.929075 74.5318554 26.8853344L74.5318554 26.0830843C74.5650858 26.0996403 74.5929163 26.1104732 74.6151392 26.1159919 74.6926076 26.1431764 74.7619762 26.1568708 74.8230371 26.1568708 75.0060122 26.1568708 75.1501493 26.07777 75.2554483 25.9193639 75.405193 25.7010701 75.4801691 25.3382691 75.4801691 24.8307564 75.4801691 24.3232438 75.4386311 23.97659 75.3553473 23.7909994 75.2500483 23.5618726 75.0448503 23.4472071 74.7397533 23.4472071 74.3239574 23.4472071 74.029868 23.6246219 73.8581081 23.9792471 73.7415939 24.2194112 73.6834406 24.5413332 73.6834406 24.945422L73.6834406 26.8853344 72.4522527 26.8853344 72.4522527 23.9876273C72.4522527 23.7364259 72.4412451 23.4719388 72.4190222 23.1935529 72.3967994 22.915167 72.3747842 22.7759741 72.3525613 22.7759741L73.3922588 22.7759741C73.4310969 22.7759741 73.472635 22.8605936 73.5170807 23.0296282 73.5613187 23.1990716 73.5835416 23.3488931 73.5835416 23.4801146L73.6335949 23.4964662C73.7499015 23.2781724 73.924569 23.0870632 74.1575975 22.9233428 74.4180411 22.7377522 74.7148305 22.6451613 75.0475503 22.6451613 75.7242052 22.6451613 76.1844468 22.844242 76.4284829 23.2426077 76.616858 23.5536968 76.7111494 24.0830797 76.7111494 24.8307564M71.4808437 27L70.1885384 27 70.1885384 24.5103449C70.1885384 24.1633441 70.1398334 23.9146818 70.0422205 23.7643581 69.9230962 23.5850093 69.7116355 23.495335 69.4082441 23.495335L67.9939733 23.495335 67.9939733 22.6451613 69.8309627 22.6451613C70.4649391 22.6451613 70.8984134 22.752164 71.1313855 22.9661695 71.3643577 23.180175 71.4808437 23.5704968 71.4808437 24.1373515L71.4808437 27zM65.9308196 27L64.5071029 27 64.5071029 26.1411621 65.7709604 26.1411621C66.1009433 26.1411621 66.3623065 26.0053509 66.55505 25.733512 66.732777 25.4848497 66.8215454 25.1811698 66.8215454 24.8226889 66.8215454 24.4581431 66.7352481 24.1546799 66.5626533 23.9116493 66.3647776 23.633962 66.1009433 23.495335 65.7709604 23.495335L64.5071029 23.495335 64.5071029 22.6451613 65.9308196 22.6451613C66.580331 22.6451613 67.0954541 22.8706468 67.476189 23.3218346 67.8213785 23.7325172 67.9939733 24.2326576 67.9939733 24.8226889 67.9939733 25.418352 67.8238496 25.9184924 67.4837923 26.3233267 67.1030574 26.7745144 66.5854632 27 65.9308196 27M63.6353853 23.5039992C63.2921669 23.5039992 63.0864807 23.5460205 63.0183267 23.6302797 62.9501728 23.7143224 62.9162999 23.9621182 62.9162999 24.3736673L62.9162999 27 61.6985071 27 61.6985071 24.6838453 61.6985071 24.423703C61.6985071 24.1806724 61.728503 23.9985078 61.7884948 23.8769926 61.8754217 23.6978604 62.0527444 23.5763452 62.3196467 23.5126634 62.3141373 23.506815 62.2623076 23.5039992 62.1643618 23.5039992L61.9027649 23.5039992 61.4083427 23.5039992 61.0202325 23.5039992 61.0202325 22.6451613 63.6353853 22.6451613 63.6353853 23.5039992zM58.3967343 23.5838133L57.8604403 27 56.6929227 27 57.1504368 24.4040782C57.1715104 24.3082223 57.1872664 24.2250345 57.1979016 24.1547261 57.20834 24.0842066 57.2136576 24.0179097 57.2136576 23.9558356 57.2136576 23.8430888 57.180767 23.7529336 57.1149858 23.6851588 57.0492046 23.6175951 56.9347769 23.5838133 56.7718995 23.5838133L55.8805053 23.5838133C55.6280158 23.5838133 55.4308692 23.5303958 55.2888685 23.4237719 55.1102351 23.2888558 55.020623 23.0669515 55.020623 22.7576367L55.020623 21.7378479C55.020623 21.4737163 54.9995494 21.2404106 54.9575991 21.038142 54.9522815 21.0043601 54.9390859 20.9593881 54.9182092 20.9032258L56.054018 20.9032258C56.0697739 20.9424972 56.0804092 20.9790238 56.0855299 21.0125945 56.1434331 21.2260533 56.1723847 21.4447906 56.1723847 21.6694397 56.1723847 22.2135382 56.1932614 22.530665 56.2354086 22.620398 56.2775558 22.710131 56.4246772 22.755103 56.6771667 22.755103L57.6709747 22.755103C57.9130259 22.755103 58.0969769 22.8313233 58.2232216 22.9835526 58.37054 23.1695637 58.4282462 23.3695099 58.3967343 23.5838133M54.9182092 24.9316177C54.9182092 25.6909508 54.7298128 26.2350288 54.3534409 26.5636503 54.0162219 26.8546172 53.4933429 27 52.7854354 27 51.9647006 27 51.3633056 26.8145463 50.9810398 26.4434376 50.7000239 26.1691837 50.5596212 25.8224397 50.5596212 25.4032057L50.5596212 22.7903427 51.815878 22.7903427 51.815878 25.0967339C51.815878 25.4193146 51.8802906 25.6665861 52.0097474 25.8385486 52.1726734 26.0590391 52.431166 26.1691837 52.7854354 26.1691837 53.1843306 26.1691837 53.4455596 26.034473 53.5693329 25.7648504 53.6369031 25.6138295 53.6705829 25.3361524 53.6705829 24.9316177 53.6705829 24.500302 53.6396395 24.1902058 53.5777529 24.0015303 53.47103 23.6725061 53.2546372 23.507994 52.9285746 23.507994 52.8161683 23.507994 52.7094454 23.5267206 52.6081954 23.5643752 52.5745156 23.5752487 52.5351524 23.5939753 52.4903161 23.6209577L52.4903161 22.8789416C52.6364023 22.787725 52.775542 22.7257058 52.9075247 22.693488 53.039718 22.6612702 53.1984341 22.6451613 53.3838835 22.6451613 53.9008685 22.6451613 54.2860813 22.8267891 54.5388904 23.1904474 54.7916994 23.5541058 54.9182092 24.1344287 54.9182092 24.9316177M48.4964675 27L47.0727508 27 47.0727508 26.1411621 48.3366082 26.1411621C48.6665912 26.1411621 48.9279544 26.0053509 49.1206979 25.733512 49.2982348 25.4848497 49.3871933 25.1811698 49.3871933 24.8226889 49.3871933 24.4581431 49.3008959 24.1546799 49.1283012 23.9116493 48.9304255 23.633962 48.6665912 23.495335 48.3366082 23.495335L47.0727508 23.495335 47.0727508 22.6451613 48.4964675 22.6451613C49.1459788 22.6451613 49.661102 22.8706468 50.0418369 23.3218346 50.3870264 23.7325172 50.5596212 24.2326576 50.5596212 24.8226889 50.5596212 25.418352 50.3894975 25.9184924 50.0494402 26.3233267 49.6687053 26.7745144 49.151111 27 48.4964675 27M46.2010331 27L43.5858803 27 43.5858803 26.1411621 44.9560402 26.1411621 44.9560402 24.4930165C44.9560402 24.1169906 44.9172384 23.8655125 44.8392178 23.7381489 44.7388757 23.5763452 44.5327676 23.495335 44.2208935 23.495335L43.6445001 23.495335 43.6445001 22.6451613 44.8141844 22.6451613C45.2318245 22.6451613 45.5576755 22.752164 45.7917375 22.9661695 46.0646013 23.2148318 46.2010331 23.5906411 46.2010331 24.0938139L46.2010331 27zM43.5858803 27L41.9922716 27 41.9922716 23.495335C41.9922716 23.2061676 41.9602231 22.9631371 41.8958592 22.7666766 41.8889154 22.7318032 41.8710216 22.6912981 41.8424451 22.6451613L43.3826398 22.6451613C43.425371 22.7491316 43.4576866 22.8359901 43.4790522 22.9055202 43.55036 23.1368541 43.5858803 23.3391629 43.5858803 23.5126634L43.5858803 27zM40.9623115 23.5838133L40.4260285 27 39.2585345 27 39.7160393 24.4040782C39.7371125 24.3082223 39.7528682 24.2250345 39.7635032 24.1547261 39.7739414 24.0842066 39.7792589 24.0179097 39.7792589 23.9558356 39.7792589 23.8430888 39.746369 23.7529336 39.6805891 23.6851588 39.6148092 23.6175951 39.5005808 23.5838133 39.3375097 23.5838133L38.4461336 23.5838133C38.1936493 23.5838133 37.9965067 23.5303958 37.8545088 23.4237719 37.6758791 23.2888558 37.5862688 23.0669515 37.5862688 22.7576367L37.5862688 21.7378479C37.5862688 21.4737163 37.5653926 21.2404106 37.5232462 21.038142 37.5179287 21.0043601 37.5049303 20.9593881 37.4838571 20.9032258L38.6196428 20.9032258C38.6355954 20.9424972 38.6460335 20.9790238 38.6511541 21.0125945 38.7090561 21.2260533 38.7380071 21.4447906 38.7380071 21.6694397 38.7380071 22.2135382 38.7588834 22.530665 38.8010297 22.620398 38.8431761 22.710131 38.9904915 22.755103 39.2427789 22.755103L40.2365667 22.755103C40.478613 22.755103 40.6625602 22.8313233 40.7888024 22.9835526 40.9361178 23.1695637 40.9940198 23.3695099 40.9623115 23.5838133M37.4838571 27L35.8899813 27 35.8899813 23.495335C35.8899813 23.2061676 35.8579328 22.9631371 35.7938359 22.7666766 35.786625 22.7318032 35.7687313 22.6912981 35.7404219 22.6451613L37.2806165 22.6451613C37.3233478 22.7491316 37.3553962 22.8359901 37.3767619 22.9055202 37.4480697 23.1368541 37.4838571 23.3391629 37.4838571 23.5126634L37.4838571 27zM34.8687043 26.8735991L33.8525295 26.8735991C33.7829439 26.789472 33.7405955 26.6981941 33.7256709 26.5997654 33.7105598 26.501547 33.7030976 26.3793524 33.7030976 26.2333919 33.7030976 26.115614 33.6907848 26.0565147 33.6657862 26.0565147 33.6607492 26.0565147 33.596014 26.2138324 33.4715806 26.5282574 33.3469607 26.8426823 33.1277565 27 32.813968 27 32.5798392 27 32.4180945 26.9802301 32.3283607 26.9409007 32.2985116 26.9297539 32.273513 26.9072499 32.2535514 26.8735991L32.2535514 25.9219114C32.4096995 26.0115067 32.5658475 26.0565147 32.7219955 26.0565147 32.9788842 26.0565147 33.1917454 25.9330582 33.3603928 25.6859349 33.5290401 25.4388116 33.6133637 25.0850572 33.6133637 24.6246717 33.6133637 24.0742702 33.5504941 23.7472261 33.4245683 23.6433292 33.2984559 23.5394322 32.9380282 23.4874838 32.3432852 23.4874838L32.3432852 22.6451613 33.2380115 22.6451613C33.8043979 22.6451613 34.1943015 22.7812369 34.4071628 23.0535983 34.6202106 23.3259597 34.7267346 23.8271469 34.7267346 24.5571597L34.7267346 25.8628121C34.7267346 26.0369552 34.737928 26.2195109 34.7603148 26.4102691 34.7828881 26.6012376 34.8188936 26.7556108 34.8687043 26.8735991M32.2535514 25.2580645L30.7494064 25.2580645 30.7494064 23.525172C30.7494064 23.3514119 30.7260246 23.1868443 30.6795098 23.031245 30.632995 22.8756456 30.5765304 22.7467269 30.5101162 22.6451613L32.0045603 22.6451613C32.0841579 22.758834 32.1373888 22.8635385 32.1640042 22.9594989 32.2237024 23.1449177 32.2535514 23.3334754 32.2535514 23.525172L32.2535514 25.2580645zM22.6646578 27L21.3788032 27 21.3788032 24.486735C21.3788032 24.0634893 21.3326874 23.7938163 21.2406713 23.6779328 21.1486553 23.5618326 20.9385483 23.5039992 20.610566 23.5039992L19.5921398 23.5039992 19.5921398 27 18.3060697 27 18.3060697 22.6451613 21.1717131 22.6451613C21.747083 22.6451613 22.1496264 22.7783732 22.3799898 23.0450137 22.5698403 23.2653007 22.6646578 23.6129514 22.6646578 24.0881822L22.6646578 27zM18.3060697 25.2580645L16.8019247 25.2580645 16.8019247 23.525172C16.8019247 23.3514119 16.7785429 23.1868443 16.7320281 23.031245 16.6855133 22.8756456 16.6290487 22.7467269 16.5626345 22.6451613L18.0570786 22.6451613C18.1366762 22.758834 18.1899071 22.8635385 18.2165225 22.9594989 18.2762207 23.1449177 18.3060697 23.3334754 18.3060697 23.525172L18.3060697 25.2580645zM15.6909169 27L13.0757641 27 13.0757641 26.1411621 14.4459239 26.1411621 14.4459239 24.4930165C14.4459239 24.1169906 14.4069136 23.8655125 14.3291015 23.7381489 14.2287594 23.5763452 14.0226514 23.495335 13.7107773 23.495335L13.1341753 23.495335 13.1341753 22.6451613 14.3040682 22.6451613C14.7217082 22.6451613 15.0475593 22.752164 15.2814127 22.9661695 15.554485 23.2148318 15.6909169 23.5906411 15.6909169 24.0938139L15.6909169 27zM13.0757641 27L11.4818883 27 11.4818883 23.495335C11.4818883 23.2061676 11.4498398 22.9631371 11.385743 22.7666766 11.3785321 22.7318032 11.3609054 22.6912981 11.3323289 22.6451613L12.8725236 22.6451613C12.9152548 22.7491316 12.9473033 22.8359901 12.9686689 22.9055202 13.0399767 23.1368541 13.0757641 23.3391629 13.0757641 23.5126634L13.0757641 27zM8.39734509 27L6.97374085 27 6.97374085 26.1411621 8.23747713 26.1411621C8.56747806 26.1411621 8.82885553 26.0053509 9.02160953 25.733512 9.1993462 25.4848497 9.28811949 25.1811698 9.28811949 24.8226889 9.28811949 24.4581431 9.20181741 24.1546799 9.02921324 23.9116493 8.83132673 23.633962 8.56747806 23.495335 8.23747713 23.495335L6.97374085 23.495335 6.97374085 22.6451613 8.39734509 22.6451613C9.04708195 22.6451613 9.56223317 22.8706468 9.94279876 23.3218346 10.2880071 23.7325172 10.4606113 24.2326576 10.4606113 24.8226889 10.4606113 25.418352 10.2904783 25.9184924 9.95040247 26.3233267 9.56983688 26.7745144 9.05202436 27 8.39734509 27M6.97374085 25.2580645L5.46959579 25.2580645 5.46959579 23.525172C5.46959579 23.3514119 5.44621401 23.1868443 5.39969919 23.031245 5.35318437 22.8756456 5.29671985 22.7467269 5.23030564 22.6451613L6.72474975 22.6451613C6.8043473 22.758834 6.85757817 22.8635385 6.8841936 22.9594989 6.94389177 23.1449177 6.97374085 23.3334754 6.97374085 23.525172L6.97374085 25.2580645zM4.35858803 26.8735991L3.25964197 26.8735991 3.25964197 24.4475842C3.25964197 24.0433535 3.21784224 23.7823492 3.13442693 23.664361 3.05064334 23.5463727 2.85158827 23.4874838 2.53689342 23.4874838L1.71102662 23.4874838 1.71102662 25.500645C1.71102662 26.1126695 1.65191775 26.5156383 1.53406831 26.7093409 1.41603473 26.9030435 1.15289901 27 .744845314 27 .454825198 27 .258163938 26.9802301.154861535 26.9409007.0515591318 26.9017816 0 26.8510951 0 26.789472L0 25.9469392C.0441935415 25.9808003.078627676 26.003094.103302403 26.0144512.191689486 26.0649274.267923345 26.0901655.331819841 26.0901655.410631657 26.0901655.476921969 26.0495742.530874918 25.9681813.585012006 25.8867883.61208055 25.7448238.61208055 25.5427085L.61208055 22.6451613 2.89099417 22.6451613C3.50546854 22.6451613 3.90376283 22.757471 4.08569291 22.9820903 4.26762299 23.2067096 4.35858803 23.664361 4.35858803 24.3550444L4.35858803 26.8735991zM53.7540966.803388929C54.3325161.259578366 54.9217913 0 55.5411754 0L76.0353344.000611252038C76.0353344.000611252038 78.4973044-.0381013771 78.747393 3.3730925 79.3907414 2.19704358 80.4341087 2.00674044 81.4770664 1.95111651L85.7087052 1.95111651C85.7087052 1.95111651 88.9877133 1.74736583 87.7739335 4.78793722L82.1550298 18.5409043C82.1550298 18.5409043 81.4180774 20.0282843 79.7211206 20.0282843L66.2906852 20.0282843C66.2962154 20.0282843 66.2988781 20.0286918 66.2988781 20.0290993 66.2992878 20.0378606 65.1231953 20.1040795 64.6998266 18.7829601 64.6455486 18.8599779 63.7258942 19.9765316 62.683551 20.0282843 62.5655731 20.0282843 58.1557384 20.0354156 56.9872243 20.0213568 56.0765822 20.0282843 55.5288861 19.6303592 55.3115691 18.3332824 55.3115691 18.3332824 53.2121355 2.12043332 53.1752673 2.0676619 53.1758818 2.08701821 53.1767011 2.09740949 53.1767011 2.09740949 53.174774 2.07601567 53.1742432 2.06623564 53.1752673 2.0676619 53.1719902 1.92931518 53.1920628 1.33191819 53.7540966.803388929M76.5324393 3.30402098L64.9863737 3.30402098C63.9131022 3.30402098 62.6739244 4.18096394 62.2186033 5.26288005L57.3882674 16.7377108C56.9329463 17.8194232 57.433738 18.6963661 58.5070095 18.6963661L61.6092555 18.6963661C62.6823221 18.6963661 63.9215 17.8194232 64.3770259 16.7377108L69.1528789 5.41610056C69.3351712 4.98333412 69.8052395 4.63247545 70.2028006 4.63247545 70.6005664 4.63247545 70.7752803 4.98333412 70.592988 5.41610056L65.832087 16.7377108C65.3767659 17.8194232 65.8775577 18.6963661 66.9508291 18.6963661L78.406363 18.6963661C80.0166798 18.7310037 80.7188124 17.8194232 81.1743383 16.7377108L86.0044694 5.26288005C86.4599953 4.18096394 86.5361893 3.30381727 84.8859321 3.30402098L81.7836861 3.30402098C80.7104146 3.30402098 79.4712367 4.18096394 79.0157109 5.26288005L74.2472314 16.5893803C74.065144 17.0221468 73.6118711 17.3728017 73.2347924 17.3728017 72.8579184 17.3728017 72.7002049 17.0221468 72.8822923 16.5893803L77.6771939 5.19829108C78.086225 4.14632633 77.5842044 3.30402098 76.5324393 3.30402098M33.9969867 11.3683144C33.9969867 14.0064224 33.2842384 16.0950499 31.8589432 17.6339963 30.3732116 19.2327038 28.2553136 20.0322581 25.5048466 20.0322581 23.0757005 20.0322581 21.1584519 19.47255 19.7531008 18.3533345 18.2073355 17.1342498 17.4343521 15.3755112 17.4343521 13.0771185L17.4343521 5.55244442C17.4343521 4.89286729 17.695438 4.37326731 18.2174083 3.99344393 18.6589979 3.65372862 19.2210578 3.48387097 19.9035878 3.48387097 20.5863193 3.48387097 21.1483791 3.65372862 21.5901703 3.99344393 22.1119391 4.37326731 22.3730249 4.89286729 22.3730249 5.55244442L22.3730249 13.2570032C22.3730249 15.5953034 23.4572565 16.7644535 25.6253168 16.7644535 26.7697834 16.7644535 27.6330187 16.1648379 28.2152241 14.9658073 28.6568137 14.0264764 28.8776086 12.8673533 28.8776086 11.4882375 28.8776086 8.45045266 28.3256215 6.9313597 27.2214459 6.9313597 26.96036 6.9313597 26.5989495 7.25122152 26.1372143 7.89074461 25.6754791 8.53026771 25.2439622 8.85012953 24.8424621 8.85012953 24.4208165 8.85012953 24.0795515 8.66021784 23.8184656 8.28059501 23.6178163 7.96073319 23.5172902 7.62081734 23.5172902 7.26124853 23.5172902 6.74164855 23.6881241 6.13200596 24.0291877 5.43252131 24.6718296 4.13342108 25.9766545 3.48387097 27.9440654 3.48387097 30.0722376 3.48387097 31.6681652 4.35321328 32.7322513 6.0918979 33.575341 7.49106775 33.9969867 9.2498064 33.9969867 11.3683144M16.5626345 18.0102268C16.5626345 18.6547787 16.2955718 19.1628396 15.76124 19.5340167 15.3089862 19.8661121 14.7336155 20.0322581 14.0349216 20.0322581 13.3360214 20.0322581 12.7606507 19.8663085 12.3086031 19.5346059 11.7742714 19.1632324 11.5070024 18.6555643 11.5070024 18.0116016L11.5070024 10.7182669C11.5070024 8.72667606 10.3869886 7.73097886 8.14696098 7.73097886L5.92734976 7.73097886 5.92734976 18.0116016C5.92734976 18.6555643 5.66008077 19.1632324 5.12574902 19.5346059 4.67370147 19.8663085 4.09833073 20.0322581 3.39943057 20.0322581 2.70073664 20.0322581 2.1253659 19.8661121 1.67311212 19.5340167 1.13878037 19.1628396.871717607 18.6547787.871717607 18.0102268L.871717607 6.28869085C.871717607 4.99939063 1.62176183 4.35483871 3.1220565 4.35483871L9.56497145 4.35483871C11.5789753 4.35483871 13.2230095 4.84326059 14.4972804 5.81990796 15.8742519 6.87511133 16.5626345 8.32073797 16.5626345 10.1567879L16.5626345 18.0102268zM52.3030564 11.6667994C52.3030564 13.9584996 51.8185355 15.834267 50.8496962 17.2945086 49.6789057 19.0587637 47.9328479 19.9410947 45.6113202 19.9410947L44.2185251 19.9410947C43.2091741 19.9410947 42.7045998 19.3629807 42.7045998 18.2071596 42.7045998 17.030786 43.2091741 16.442701 44.2185251 16.442701L44.703046 16.442701C45.7729622 16.442701 46.4894131 15.854616 46.8528038 14.6782424 47.0748083 13.9888196 47.1858106 12.9646563 47.1858106 11.605956 47.1858106 8.50314616 46.1059691 6.95174122 43.9460834 6.95174122 41.7861977 6.95174122 40.7061536 8.50965782 40.7061536 11.625491L40.7061536 17.9379428C40.7061536 18.6057958 40.4438398 19.1318165 39.9190097 19.5166153 39.474798 19.8603093 38.9096586 20.0322581 38.223389 20.0322581 37.5371194 20.0322581 36.9717775 19.8601058 36.5277684 19.5160049 36.0029382 19.1314095 35.7404219 18.6049818 35.7404219 17.9371288L35.7404219 5.57900019C35.7404219 4.91094374 36.0029382 4.38471956 36.5277684 4.00012416 36.9717775 3.6558197 37.5371194 3.48387097 38.223389 3.48387097 39.4344887 3.48387097 40.1813234 4.02128708 40.4638931 5.0961193 40.5246608 5.31914393 40.5951513 5.43065625 40.6759723 5.43065625 40.7567933 5.43065625 40.877721 5.34966738 41.039363 5.18728265 42.1293325 4.05160703 43.5725647 3.48387097 45.3692623 3.48387097 47.8117176 3.48387097 49.6183406 4.30515511 50.7891311 5.94792688 51.7982796 7.34712157 52.3030564 9.25341242 52.3030564 11.6667994" transform="translate(.043)"/>
</svg>
