<svg xmlns="http://www.w3.org/2000/svg" width="62" height="58" viewBox="0 0 62 58">
  <g fill="none" fill-rule="evenodd">
    <rect width="62" height="58"/>
    <g transform="matrix(-1 0 0 1 61.752 .857)">
      <polygon fill="#7B8D37" points="1.069 38.304 23.792 50.511 23.792 21.116 0 9.961"/>
      <polygon fill="#B8CD1A" points="23.792 21.116 23.792 50.511 47.062 37.973 47.514 9.961"/>
      <polygon fill="#C6D733" points="23.792 0 0 9.96 23.792 21.117 47.514 9.96"/>
      <polygon fill="#7B8D37" points="41.121 35.798 41.476 45.228 49.038 49.29 49.038 39.51"/>
      <polygon fill="#B8CD1A" points="49.037 39.51 56.93 35.798 56.574 45.229 49.037 49.289"/>
      <polygon fill="#C6D733" points="41.121 35.798 49.038 32.483 56.93 35.798 49.038 39.51"/>
      <polygon fill="#7B8D37" points="52.244 49.153 55.87 51.102 55.87 46.41 52.072 44.628"/>
      <polygon fill="#B8CD1A" points="55.871 46.41 55.871 51.101 59.486 49.153 59.657 44.627"/>
      <polygon fill="#C6D733" points="52.072 44.628 55.87 46.41 59.657 44.628 55.87 43.037"/>
      <polygon fill="#7B8D37" points="28.675 48.101 33.461 50.671 33.461 44.48 28.449 42.13"/>
      <polygon fill="#B8CD1A" points="33.461 44.48 33.461 50.672 38.231 48.101 38.456 42.131"/>
      <polygon fill="#C6D733" points="28.45 42.131 33.461 40.034 38.457 42.131 33.461 44.48"/>
      <polygon fill="#7B8D37" points="40.107 48.784 42.857 50.262 42.857 46.703 39.977 45.353"/>
      <polygon fill="#B8CD1A" points="42.858 46.702 42.858 50.262 45.6 48.783 45.729 45.353"/>
      <polygon fill="#C6D733" points="39.977 45.352 42.857 44.147 45.729 45.352 42.857 46.703"/>
    </g>
  </g>
</svg>
