<?xml version="1.0" encoding="utf-8"?>
<!-- Generator: Adobe Illustrator 25.2.0, SVG Export Plug-In . SVG Version: 6.00 Build 0)  -->
<svg version="1.1" id="Layer_1" xmlns="http://www.w3.org/2000/svg" xmlns:xlink="http://www.w3.org/1999/xlink" x="0px" y="0px"
	 viewBox="0 0 387 593" style="enable-background:new 0 0 387 593;" xml:space="preserve">
<style type="text/css">
	.st0{filter:url(#Adobe_OpacityMaskFilter);}
	.st1{fill-rule:evenodd;clip-rule:evenodd;fill:#FFFFFF;}
	.st2{mask:url(#_x31_-enter-b_1_);fill-rule:evenodd;clip-rule:evenodd;fill:#EDEFF8;}
	.st3{filter:url(#Adobe_OpacityMaskFilter_1_);}
	.st4{mask:url(#_x31_-enter-d_1_);}
	.st5{fill-rule:evenodd;clip-rule:evenodd;fill:#677089;}
	.st6{filter:url(#Adobe_OpacityMaskFilter_2_);}
	.st7{mask:url(#_x31_-enter-f_1_);fill-rule:evenodd;clip-rule:evenodd;fill:#DDDFEB;}
	.st8{filter:url(#Adobe_OpacityMaskFilter_3_);}
	.st9{mask:url(#_x31_-enter-f_2_);fill-rule:evenodd;clip-rule:evenodd;fill:#E7F859;}
	.st10{filter:url(#Adobe_OpacityMaskFilter_4_);}
	.st11{mask:url(#_x31_-enter-f_3_);fill-rule:evenodd;clip-rule:evenodd;fill:#677089;}
	.st12{filter:url(#Adobe_OpacityMaskFilter_5_);}
	.st13{mask:url(#_x31_-enter-f_4_);fill-rule:evenodd;clip-rule:evenodd;fill:#FFFFFF;}
	.st14{filter:url(#Adobe_OpacityMaskFilter_6_);}
	.st15{mask:url(#_x31_-enter-f_5_);fill-rule:evenodd;clip-rule:evenodd;fill:#677089;}
	.st16{filter:url(#Adobe_OpacityMaskFilter_7_);}
	.st17{mask:url(#_x31_-enter-f_6_);fill-rule:evenodd;clip-rule:evenodd;fill:#677089;}
	.st18{filter:url(#Adobe_OpacityMaskFilter_8_);}
	.st19{mask:url(#_x31_-enter-f_7_);fill-rule:evenodd;clip-rule:evenodd;fill:#717791;}
	.st20{filter:url(#Adobe_OpacityMaskFilter_9_);}
	.st21{mask:url(#_x31_-enter-f_8_);fill-rule:evenodd;clip-rule:evenodd;fill:#FFFFFF;}
	.st22{filter:url(#Adobe_OpacityMaskFilter_10_);}
	.st23{mask:url(#_x31_-enter-f_9_);fill-rule:evenodd;clip-rule:evenodd;fill:#FFFFFF;}
	.st24{filter:url(#Adobe_OpacityMaskFilter_11_);}
	.st25{mask:url(#_x31_-enter-f_10_);fill-rule:evenodd;clip-rule:evenodd;fill:#717791;}
	.st26{filter:url(#Adobe_OpacityMaskFilter_12_);}
	.st27{mask:url(#_x31_-enter-f_11_);fill-rule:evenodd;clip-rule:evenodd;fill:#717791;}
	.st28{filter:url(#Adobe_OpacityMaskFilter_13_);}
	.st29{mask:url(#_x31_-enter-f_12_);fill-rule:evenodd;clip-rule:evenodd;fill:#FFFFFF;}
	.st30{filter:url(#Adobe_OpacityMaskFilter_14_);}
	.st31{mask:url(#_x31_-enter-f_13_);fill-rule:evenodd;clip-rule:evenodd;fill:#E7F859;}
	.st32{filter:url(#Adobe_OpacityMaskFilter_15_);}
	.st33{mask:url(#_x31_-enter-f_14_);fill-rule:evenodd;clip-rule:evenodd;fill:#717791;}
	.st34{filter:url(#Adobe_OpacityMaskFilter_16_);}
	.st35{mask:url(#_x31_-enter-f_15_);fill-rule:evenodd;clip-rule:evenodd;fill:#FFFFFF;}
	.st36{filter:url(#Adobe_OpacityMaskFilter_17_);}
	.st37{mask:url(#_x31_-enter-f_16_);fill-rule:evenodd;clip-rule:evenodd;fill:#E7F859;}
	.st38{filter:url(#Adobe_OpacityMaskFilter_18_);}
	.st39{mask:url(#_x31_-enter-f_17_);fill-rule:evenodd;clip-rule:evenodd;fill:#717791;}
	.st40{filter:url(#Adobe_OpacityMaskFilter_19_);}
	.st41{mask:url(#_x31_-enter-f_18_);fill-rule:evenodd;clip-rule:evenodd;fill:#FFFFFF;}
	.st42{filter:url(#Adobe_OpacityMaskFilter_20_);}
	.st43{mask:url(#_x31_-enter-f_19_);fill-rule:evenodd;clip-rule:evenodd;fill:#717791;}
	.st44{filter:url(#Adobe_OpacityMaskFilter_21_);}
	.st45{mask:url(#_x31_-enter-f_20_);fill-rule:evenodd;clip-rule:evenodd;fill:#717791;}
	.st46{filter:url(#Adobe_OpacityMaskFilter_22_);}
	.st47{mask:url(#_x31_-enter-f_21_);fill-rule:evenodd;clip-rule:evenodd;fill:#717791;}
</style>
<g transform="translate(-329)">
	<defs>
		<filter id="Adobe_OpacityMaskFilter" filterUnits="userSpaceOnUse" x="358.2" y="-129" width="979.1" height="766.7">
			<feColorMatrix  type="matrix" values="1 0 0 0 0  0 1 0 0 0  0 0 1 0 0  0 0 0 1 0"/>
		</filter>
	</defs>
	<mask maskUnits="userSpaceOnUse" x="358.2" y="-129" width="979.1" height="766.7" id="_x31_-enter-b_1_">
		<g class="st0">
			<path id="_x31_-enter-a_1_" class="st1" d="M2,0h712c1.1,0,2,0.9,2,2v589c0,1.1-0.9,2-2,2H2c-1.1,0-2-0.9-2-2V2C0,0.9,0.9,0,2,0z
				"/>
		</g>
	</mask>
	<path class="st2" d="M468.2-106.9c0,12.2,9.9,22.1,22.1,22.1l31.3,0.1c11.4,0,20.6,9.3,20.6,20.6c0,11.4-9.2,20.6-20.6,20.6
		c0,0,0,0,0,0l-40.5,0c-12,0-21.7,9.7-21.7,21.7c0,0,0,0,0,0c0,12,9.7,21.7,21.7,21.7c0,0,0,0,0,0l90.8-0.1c11,0,19.8,8.9,19.8,19.8
		c0,0,0,0,0,0c0,11-8.9,19.9-19.8,19.9l-1.5,0c-11.8,0.1-21.3,9.6-21.3,21.4v1.5c0,11.7,9.5,21.3,21.3,21.3c0,0,0.1,0,0.1,0l1.5,0
		c10.9,0,19.8,8.8,19.8,19.7c0,0,0,0.1,0,0.1c0,11-8.9,19.9-19.8,19.9l-63.8,0.1c-12,0-21.7,9.7-21.7,21.7c0,12,9.7,21.7,21.7,21.7
		c0,0,0,0,0,0l73.9-0.1c12,0,21.7,9.7,21.7,21.6c0,0,0,0,0,0c0,12-9.7,21.7-21.7,21.7l-63.1,0c-12.2,0-22.1,9.9-22.1,22.1
		c0,12.2,9.9,22.1,22.1,22.1h27.9c11.4,0,20.6,9.2,20.6,20.6c0,11.4-9.2,20.6-20.6,20.6l-106.7,0.1c-12.2,0-22.1,9.9-22.1,22.1
		c0,12.1,9.8,22,22,22c0,0,0.1,0,0.1,0l19.4-0.1c10.7-0.1,19.4,8.5,19.4,19.2c0,0.2,0,0.4,0,0.6c-0.3,11.1-9.4,20-20.5,19.9
		l-78.4-0.2c-12,0-21.7,9.6-21.7,21.6c0,0.2,0,0.4,0,0.6c0.3,12.4,10.4,22.2,22.8,22.2h31c11.6,0,21,9.4,21,21c0,0.2,0,0.4,0,0.6
		c-0.3,12-10.1,21.5-22.1,21.4l-10.4,0c-12.1-0.1-22,9.7-22.1,21.9c0,0,0,0.1,0,0.1c0,12.2,9.9,22.1,22.1,22.1c0,0,0,0,0,0
		l206.5-0.3c10.9,0,19.8,8.8,19.8,19.8c0,0,0,0,0,0c0,11-8.9,19.8-19.8,19.9l-140.6,0.1c-12.2,0-22.1,9.9-22.1,22.1
		c0,12.2,9.9,22.1,22.1,22.1h127.3c12,0,21.7,9.7,21.7,21.7c0,12,9.7,21.7,21.7,21.7h569.3c12.2,0,22.1-9.9,22.1-22.1
		s-9.9-22.1-22.1-22.1h-128.8c-11.2,0-20.2-9.1-20.2-20.2c0-11.2,9.1-20.2,20.2-20.2h48.9c12,0,21.7-9.7,21.7-21.7
		c0-12-9.7-21.7-21.7-21.7h-47.4c-12,0-21.7-9.7-21.7-21.7s9.7-21.7,21.7-21.7h89.8c12.2,0,22.1-9.9,22.1-22.1
		c0-12.2-9.9-22.1-22.1-22.1h-32.4c-11,0-19.8-8.9-19.8-19.8c0-11,8.9-19.8,19.8-19.8h77c12,0,21.7-9.7,21.7-21.7
		s-9.7-21.7-21.7-21.7h-101.8c-11.8,0-21.3-9.6-21.3-21.3c0-11.8,9.6-21.3,21.3-21.3h60.1c12.2,0,22.1-9.9,22.1-22.1
		c0-12.2-9.9-22.1-22.1-22.1h-41c-11.6,0-21-9.4-21-21s9.4-21,21-21h105.5c12.2,0,22.1-9.9,22.1-22.1s-9.9-22.1-22.1-22.1h-58.6
		c-11.4,0-20.6-9.2-20.6-20.6c0-11.4,9.2-20.6,20.6-20.6h103.7c12.2,0,22.1-9.9,22.1-22.1s-9.9-22.1-22.1-22.1h-146.1
		c-11.2,0-20.2-9.1-20.2-20.2s9.1-20.2,20.2-20.2h179.8c12.2,0,22.1-9.9,22.1-22.1S1327.4-4,1315.2-4h-154.3
		c-10.8,0-19.5-8.7-19.5-19.5s8.7-19.5,19.5-19.5h31.2c12.2,0,22.1-9.9,22.1-22.1s-9.9-22.1-22.1-22.1h-89c-11.6,0-21-9.4-21-21
		s-9.4-21-21-21H490.3C478.1-129,468.2-119.1,468.2-106.9z"/>
	<defs>
		<filter id="Adobe_OpacityMaskFilter_1_" filterUnits="userSpaceOnUse" x="330" y="140" width="436" height="384">
			<feColorMatrix  type="matrix" values="1 0 0 0 0  0 1 0 0 0  0 0 1 0 0  0 0 0 1 0"/>
		</filter>
	</defs>
	<mask maskUnits="userSpaceOnUse" x="330" y="140" width="436" height="384" id="_x31_-enter-d_1_">
		<g class="st3">
			<rect id="_x31_-enter-c_1_" x="316" y="2" class="st1" width="400" height="592"/>
		</g>
	</mask>
	<g class="st4">
		<g transform="translate(330 140)">
			<path class="st1" d="M403.4,364.5V196.3c0-6.3-5.1-11.4-11.4-11.4H135.2c-6.3,0-11.4,5.1-11.4,11.4v168.2H92.9
				c0,9.9,8,17.9,17.9,17.9h305.7c9.9,0,17.9-8,17.9-17.9H403.4z"/>
			<path class="st5" d="M416.3,384H110c-10.8,0-19.7-9-19.7-20v-1.8h207.1c1,0,1.7,0.8,1.7,1.8c0,1-0.8,1.8-1.7,1.8H93.9
				c0.9,8.3,7.8,14.7,16.1,14.7h306.3c8.3,0,15.2-6.5,16.1-14.7h-82.9c-1,0-1.7-0.8-1.7-1.8c0-1,0.8-1.8,1.7-1.8H436v1.8
				C436,375,427.2,384,416.3,384"/>
			<path class="st5" d="M338.7,365.6h-13c-1,0-1.9-0.7-1.9-1.7s0.8-1.7,1.9-1.7h13c1,0,1.9,0.7,1.9,1.7S339.8,365.6,338.7,365.6"/>
			<path class="st5" d="M402.5,364.8c-1,0-1.7-0.8-1.7-1.7V193.1c0-5.4-4.3-9.8-9.7-9.8H134.5c-5.3,0-9.7,4.4-9.7,9.8V363
				c0,1-0.8,1.7-1.7,1.7c-0.9,0-1.7-0.8-1.7-1.7V193.1c0-7.3,5.9-13.2,13.1-13.2h256.6c7.2,0,13.1,5.9,13.1,13.2V363
				C404.2,364,403.4,364.8,402.5,364.8"/>
			<path class="st5" d="M381.5,350.5c-1,0-1.7-0.8-1.7-1.7V212.1c0-4.3-3.5-7.9-7.9-7.9H155.3c-4.4,0-7.9,3.5-7.9,7.9v136.7
				c0,1-0.8,1.7-1.7,1.7c-1,0-1.7-0.8-1.7-1.7V212.1c0-6.2,5.1-11.3,11.4-11.3h216.6c6.3,0,11.4,5.1,11.4,11.3v136.7
				C383.3,349.8,382.5,350.5,381.5,350.5 M58.7,309.4c0,0.8-0.5,1.6-1.3,1.8c-0.9,0.2-1.9-0.3-2.1-1.2c-0.5-1.8-0.8-3.6-0.9-5.4
				c-0.1-1,0.6-1.8,1.6-1.9c0.9-0.1,1.8,0.6,1.9,1.6c0.2,1.6,0.4,3.2,0.8,4.8C58.7,309.2,58.7,309.3,58.7,309.4 M59.8,289
				c0,0.2,0,0.4-0.1,0.6c-0.5,1.7-1,3.3-1.3,4.8c-0.2,0.9-1.1,1.5-2,1.3c-0.9-0.2-1.5-1.1-1.4-2c0.3-1.7,0.8-3.4,1.4-5.2
				c0.3-0.9,1.3-1.4,2.2-1.1C59.3,287.7,59.7,288.3,59.8,289 M65.2,323.4c0,0.6-0.2,1.2-0.8,1.6c-0.8,0.5-1.9,0.3-2.4-0.5
				c-1-1.6-1.9-3.1-2.7-4.6c-0.4-0.8-0.1-1.9,0.7-2.3c0.8-0.5,1.9-0.1,2.3,0.7c0.7,1.4,1.6,2.8,2.6,4.3
				C65.1,322.8,65.2,323.1,65.2,323.4 M62.4,224.7c0,0.4-0.1,0.9-0.4,1.2c-0.6,0.7-1.7,0.8-2.4,0.2c-2.3-1.9-4-2.9-4-2.9
				c-0.8-0.5-1.1-1.6-0.6-2.4c0.5-0.8,1.6-1.1,2.4-0.6c0.1,0,1.9,1.2,4.4,3.2C62.2,223.8,62.4,224.3,62.4,224.7 M66.1,274.9
				c0,0.3-0.1,0.6-0.2,0.9c-0.9,1.5-1.6,3.1-2.4,4.5c-0.4,0.9-1.5,1.2-2.3,0.8c-0.9-0.4-1.2-1.5-0.8-2.3c0.7-1.5,1.6-3.1,2.4-4.7
				c0.5-0.8,1.5-1.1,2.3-0.7C65.8,273.7,66.1,274.3,66.1,274.9 M75.4,335c0,0.4-0.1,0.8-0.3,1.1c-0.6,0.8-1.7,0.9-2.4,0.4
				c-1.5-1.1-2.8-2.3-4.1-3.5c-0.7-0.7-0.7-1.8,0-2.4c0.7-0.7,1.8-0.7,2.4,0c1.2,1.2,2.4,2.2,3.7,3.2C75.2,334,75.4,334.5,75.4,335
				 M73.8,261.4c0,0.3,0,0.5-0.1,0.8c-0.7,1.6-1.5,3.2-2.5,4.8c-0.5,0.8-1.5,1.1-2.4,0.6c-0.8-0.5-1.1-1.5-0.6-2.4
				c0.9-1.5,1.6-2.9,2.2-4.4c0.4-0.9,1.4-1.3,2.3-0.9C73.3,260.1,73.7,260.7,73.8,261.4 M72.4,236.5c0,0.6-0.3,1.3-0.9,1.6
				c-0.8,0.5-1.9,0.2-2.4-0.7c-0.8-1.4-1.7-2.8-2.7-4.1c-0.6-0.8-0.4-1.8,0.3-2.4c0.8-0.6,1.8-0.4,2.4,0.3c1.1,1.5,2.1,3,3,4.5
				C72.3,236,72.4,236.2,72.4,236.5 M76.1,248.7c0.1,0.9,0.1,1.9,0,2.8c0,1-0.9,1.7-1.8,1.6c-1,0-1.7-0.8-1.6-1.8
				c0.1-1.6,0-3.2-0.3-4.8c-0.1-1,0.5-1.8,1.4-2c0.9-0.1,1.8,0.5,2,1.4C76,246.9,76.1,247.8,76.1,248.7 M89.5,341.4
				c0,0.2,0,0.3,0,0.5c-0.2,0.9-1.1,1.5-2.1,1.3c-1.8-0.4-3.5-0.9-5.2-1.5c-0.9-0.3-1.3-1.3-1-2.2c0.3-0.9,1.3-1.3,2.2-1
				c1.5,0.6,3.1,1,4.7,1.4C88.9,339.9,89.4,340.6,89.5,341.4 M104.9,341.1c0,0.8-0.5,1.6-1.3,1.8c-1.7,0.5-3.6,0.8-5.4,0.9
				c-1,0.1-1.8-0.6-1.9-1.6c-0.1-1,0.6-1.8,1.6-1.9c1.6-0.1,3.3-0.4,4.8-0.8c0.9-0.2,1.9,0.3,2.1,1.2
				C104.9,340.9,104.9,341,104.9,341.1 M118.2,333.5c0,0.5-0.1,0.9-0.5,1.3c-1.3,1.3-2.7,2.5-4.2,3.5c-0.8,0.5-1.9,0.4-2.4-0.4
				c-0.5-0.8-0.4-1.9,0.4-2.4c1.3-0.9,2.6-2,3.7-3.1c0.7-0.7,1.8-0.7,2.4,0C118,332.7,118.2,333.1,118.2,333.5 M124.7,324
				c0,0.3,0,0.5-0.2,0.8c-0.2,0.4-0.4,0.8-0.5,1.1c-0.4,0.9-1.5,1.2-2.3,0.8c-0.9-0.4-1.2-1.5-0.8-2.3c0.2-0.3,0.3-0.7,0.5-1
				c0.4-0.9,1.4-1.3,2.3-0.9C124.3,322.8,124.7,323.4,124.7,324"/>
			<path class="st5" d="M27.8,262.2c0,0.3-0.1,0.7-0.3,1c-0.9,1.4-1.7,2.9-2.5,4.4c-0.4,0.8-1.5,1.2-2.3,0.7
				c-0.8-0.4-1.2-1.5-0.7-2.3c0.8-1.6,1.7-3.1,2.6-4.6c0.5-0.8,1.6-1.1,2.4-0.6C27.5,261.2,27.8,261.7,27.8,262.2L27.8,262.2z
				 M37.6,250.3c0,0.5-0.2,1-0.6,1.4c-1.2,1.1-2.4,2.3-3.5,3.5c-0.6,0.7-1.7,0.8-2.4,0.1c-0.7-0.6-0.8-1.7-0.1-2.4
				c1.2-1.4,2.5-2.6,3.8-3.8c0.7-0.6,1.8-0.6,2.4,0.1C37.4,249.5,37.5,249.9,37.6,250.3L37.6,250.3z M50.7,242.1
				c0,0.7-0.4,1.4-1.1,1.7c-1.5,0.6-3.1,1.3-4.5,2.1c-0.8,0.5-1.9,0.1-2.3-0.7c-0.5-0.8-0.1-1.9,0.7-2.3c1.6-0.9,3.2-1.6,4.9-2.3
				c0.9-0.3,1.9,0.1,2.2,1C50.6,241.7,50.6,241.9,50.7,242.1L50.7,242.1z M65.8,238.9c0.1,0.9-0.7,1.8-1.6,1.8
				c-1.7,0.1-3.4,0.3-5,0.5c-0.9,0.1-1.8-0.5-2-1.4c-0.1-0.9,0.5-1.8,1.4-2c1.7-0.3,3.5-0.4,5.3-0.5
				C64.9,237.2,65.8,237.9,65.8,238.9z M81.3,239.7c0,0.1,0,0.2,0,0.3c-0.1,0.9-1,1.6-2,1.5c-1.7-0.2-3.4-0.4-5.1-0.6
				c-1-0.1-1.7-0.9-1.6-1.9c0.1-0.9,0.9-1.6,1.9-1.6c1.7,0.1,3.4,0.3,5.2,0.6C80.7,238.2,81.3,238.9,81.3,239.7L81.3,239.7z
				 M96.6,242.6c0,0.2,0,0.3,0,0.5c-0.2,0.9-1.1,1.5-2.1,1.3c-1.7-0.4-3.3-0.8-5-1.1c-0.9-0.2-1.5-1.1-1.3-2c0.2-0.9,1.1-1.5,2-1.3
				c1.7,0.4,3.4,0.7,5.1,1.1C96,241.2,96.5,241.9,96.6,242.6L96.6,242.6z M112,243.5c0,0.9-0.5,1.6-1.4,1.8
				c-1.4,0.3-2.9,0.4-4.3,0.5c-0.4,0-0.8,0-1.1,0c-1,0-1.7-0.7-1.8-1.7c0-1,0.7-1.7,1.7-1.8c0.3,0,0.7,0,1,0
				c1.3-0.1,2.6-0.2,3.8-0.5c0.9-0.2,1.8,0.4,2,1.4C111.9,243.4,112,243.5,112,243.5L112,243.5z M126.2,237.6c0,0.6-0.3,1.2-0.8,1.6
				c-1.5,1-3.1,1.9-4.7,2.6c-0.9,0.4-1.9,0.1-2.3-0.8c-0.4-0.8-0.1-1.9,0.8-2.3c1.4-0.7,2.9-1.5,4.3-2.5c0.8-0.5,1.9-0.3,2.4,0.5
				C126.1,237.1,126.2,237.3,126.2,237.6L126.2,237.6z M138.2,227.8c0,0.5-0.1,0.9-0.5,1.3c-1.3,1.3-2.5,2.5-3.8,3.6
				c-0.7,0.6-1.8,0.6-2.4-0.1c-0.6-0.7-0.6-1.8,0.1-2.4c1.2-1.1,2.5-2.3,3.7-3.5c0.7-0.7,1.8-0.7,2.4,0
				C138,227,138.2,227.4,138.2,227.8L138.2,227.8z M148.1,215.8c0,0.4-0.1,0.7-0.3,1c0,0.1-1.1,1.8-3.2,4.3
				c-0.6,0.8-1.7,0.9-2.4,0.3c-0.8-0.6-0.9-1.7-0.3-2.4c1.9-2.4,3-4.1,3-4.1c0.5-0.8,1.6-1,2.4-0.5
				C147.8,214.8,148.1,215.3,148.1,215.8L148.1,215.8z M199.5,108.3c-0.7,0.3-1.7,0.1-2.2-0.6c-0.6-0.8-0.4-1.9,0.4-2.4
				c1.5-1.1,3.1-2,4.7-2.8c0.9-0.5,1.9-0.1,2.4,0.8c0.4,0.9,0.1,1.9-0.8,2.3c-1.5,0.7-2.9,1.6-4.3,2.5
				C199.7,108.2,199.6,108.3,199.5,108.3 M219.2,101.9c-0.2,0.1-0.4,0.1-0.6,0.1c-1.8,0.1-3.5,0.3-5,0.5c-1,0.2-1.9-0.5-2-1.4
				c-0.2-0.9,0.5-1.8,1.4-2c1.7-0.3,3.5-0.5,5.4-0.6c1-0.1,1.8,0.7,1.9,1.6C220.3,101,219.9,101.7,219.2,101.9 M188.5,119.5
				c-0.6,0.3-1.2,0.2-1.8-0.2c-0.8-0.6-0.9-1.7-0.4-2.4c1.1-1.5,2.3-2.9,3.4-4.2c0.6-0.7,1.7-0.8,2.5-0.2c0.7,0.6,0.8,1.7,0.2,2.5
				c-1,1.2-2.1,2.5-3.2,4C189,119.2,188.8,119.4,188.5,119.5 M281.3,81.1c-0.4,0.2-0.8,0.2-1.3,0.1c-0.9-0.3-1.4-1.3-1.1-2.2
				c1-2.8,1.3-4.8,1.3-4.8c0.2-0.9,1.1-1.6,2-1.4c1,0.2,1.6,1.1,1.4,2c0,0.1-0.4,2.2-1.5,5.3C282,80.6,281.7,81,281.3,81.1
				 M235,102.8c-0.3,0.1-0.6,0.2-1,0.1c-1.8-0.2-3.5-0.4-5.1-0.6c-1-0.1-1.7-0.9-1.6-1.9c0.1-1,0.9-1.7,1.9-1.6
				c1.7,0.1,3.5,0.4,5.3,0.6c1,0.1,1.6,1,1.5,2C235.9,102,235.5,102.5,235,102.8 M181.3,133.3c-0.4,0.2-0.8,0.2-1.2,0.1
				c-0.9-0.3-1.5-1.2-1.2-2.1c0.5-1.8,1.1-3.5,1.9-5.1c0.4-0.9,1.4-1.3,2.3-0.9c0.9,0.4,1.3,1.4,0.9,2.3c-0.7,1.5-1.2,3.1-1.7,4.7
				C182.1,132.7,181.7,133.1,181.3,133.3 M250.6,105.1c-0.2,0.1-0.5,0.2-0.8,0.2c-1.8-0.1-3.6-0.3-5.5-0.6c-1-0.2-1.6-1.1-1.4-2
				c0.2-0.9,1.1-1.6,2-1.4c1.7,0.3,3.4,0.5,5,0.5c1,0,1.7,0.8,1.7,1.8C251.6,104.2,251.2,104.8,250.6,105.1 M273.7,94.8
				c-0.6,0.3-1.3,0.2-1.8-0.2c-0.7-0.6-0.8-1.7-0.2-2.4c1-1.2,2-2.6,2.9-4c0.5-0.8,1.6-1.1,2.4-0.6c0.8,0.5,1.1,1.6,0.6,2.4
				c-1,1.6-2.1,3.1-3.2,4.4C274.2,94.6,274,94.7,273.7,94.8 M263.5,102.7c-0.9,0.4-1.8,0.7-2.7,1c-0.9,0.3-1.9-0.2-2.2-1.1
				c-0.3-0.9,0.2-1.9,1.1-2.2c1.5-0.5,3.1-1.2,4.5-2c0.9-0.5,1.9-0.2,2.4,0.6c0.5,0.8,0.2,1.9-0.6,2.4
				C265.1,101.9,264.3,102.3,263.5,102.7 M180.3,148.8c-0.1,0.1-0.3,0.1-0.5,0.1c-1,0.1-1.9-0.5-2-1.5c-0.3-1.8-0.4-3.6-0.5-5.4
				c0-1,0.8-1.7,1.7-1.8c1,0,1.8,0.8,1.8,1.7c0,1.7,0.2,3.3,0.4,4.9C181.5,147.7,181,148.4,180.3,148.8 M186.2,163.1
				c-0.7,0.3-1.6,0.1-2.1-0.6c-1.1-1.5-2-3.1-2.8-4.7c-0.4-0.9-0.1-1.9,0.8-2.3c0.9-0.5,1.9-0.1,2.3,0.8c0.7,1.5,1.6,2.9,2.6,4.2
				c0.6,0.8,0.4,1.9-0.4,2.4C186.4,163,186.3,163.1,186.2,163.1 M198.3,172.9c-0.4,0.2-1,0.2-1.4,0c-1.7-0.7-3.3-1.6-4.9-2.7
				c-0.8-0.5-1-1.6-0.5-2.4c0.5-0.8,1.6-1,2.4-0.5c1.4,0.9,2.8,1.7,4.3,2.4c0.9,0.4,1.3,1.4,0.9,2.3
				C199,172.4,198.6,172.7,198.3,172.9 M209.6,175.5c-0.2,0.1-0.5,0.2-0.8,0.1c-0.4,0-0.9-0.1-1.3-0.1c-1-0.1-1.7-0.9-1.6-1.9
				c0.1-1,0.9-1.7,1.9-1.6c0.4,0,0.8,0.1,1.2,0.1c1,0.1,1.7,0.9,1.6,1.8C210.6,174.7,210.2,175.3,209.6,175.5 M233.6,62.7
				c-0.3,0.1-0.7,0.2-1,0.1c-1.6-0.3-3.3-0.6-5.1-0.8c-1-0.1-1.6-1-1.5-1.9c0.1-1,1-1.6,1.9-1.5c1.8,0.2,3.6,0.5,5.3,0.8
				c0.9,0.2,1.6,1.1,1.4,2C234.5,62,234.1,62.5,233.6,62.7 M248.5,67.5c-0.5,0.2-1,0.2-1.5,0c-1.5-0.7-3-1.4-4.6-2
				c-0.9-0.3-1.4-1.3-1-2.2c0.3-0.9,1.3-1.4,2.2-1c1.7,0.6,3.4,1.4,5,2.2c0.9,0.4,1.2,1.5,0.8,2.3C249.1,67.1,248.8,67.4,248.5,67.5
				 M261,76.8c-0.7,0.3-1.5,0.2-2-0.4c-1.1-1.2-2.3-2.4-3.6-3.5c-0.7-0.6-0.8-1.7-0.2-2.4c0.6-0.7,1.7-0.8,2.5-0.2
				c1.4,1.2,2.7,2.4,3.9,3.8c0.7,0.7,0.6,1.8-0.1,2.5C261.3,76.7,261.1,76.8,261,76.8 M269.5,89.9c-0.9,0.4-1.9,0-2.3-0.9
				c-0.7-1.6-1.5-3.1-2.3-4.5c-0.5-0.8-0.2-1.9,0.7-2.4c0.8-0.5,1.9-0.2,2.4,0.7c0.9,1.5,1.7,3.1,2.4,4.8
				C270.7,88.5,270.3,89.5,269.5,89.9 M274.3,104.8c-0.1,0-0.2,0.1-0.3,0.1c-0.9,0.2-1.9-0.4-2.1-1.3c-0.4-1.7-0.8-3.4-1.3-5
				c-0.3-0.9,0.3-1.9,1.2-2.1c0.9-0.3,1.9,0.3,2.2,1.2c0.5,1.6,0.9,3.4,1.3,5.1C275.5,103.6,275.1,104.4,274.3,104.8 M277.1,120.1
				c-0.1,0.1-0.3,0.1-0.5,0.1c-1,0.1-1.8-0.5-2-1.5c-0.2-1.7-0.5-3.4-0.8-5.1c-0.2-0.9,0.5-1.8,1.4-2c1-0.2,1.8,0.5,2,1.4
				c0.3,1.7,0.5,3.5,0.8,5.2C278.2,119.1,277.8,119.8,277.1,120.1 M281.8,134.9c-0.8,0.4-1.7,0.1-2.2-0.7c-0.8-1.2-1.5-2.5-2.1-3.8
				c-0.2-0.3-0.3-0.7-0.5-1.1c-0.4-0.9,0.1-1.9,1-2.3c0.9-0.4,1.9,0.1,2.3,1c0.1,0.3,0.3,0.6,0.4,0.9c0.5,1.2,1.1,2.3,1.8,3.4
				c0.5,0.8,0.3,1.9-0.6,2.4C281.9,134.8,281.9,134.9,281.8,134.9 M292.6,146.1c-0.6,0.3-1.2,0.2-1.8-0.2c-1.5-1.1-2.9-2.2-4.2-3.4
				c-0.7-0.6-0.8-1.7-0.1-2.5c0.6-0.7,1.8-0.8,2.5-0.1c1.2,1.1,2.5,2.2,3.9,3.2c0.8,0.6,0.9,1.7,0.4,2.4
				C293.1,145.8,292.8,146,292.6,146.1 M306.2,153.8c-0.4,0.2-0.9,0.2-1.4,0c-1.7-0.7-3.3-1.5-4.8-2.3c-0.9-0.4-1.2-1.5-0.8-2.3
				c0.4-0.9,1.5-1.2,2.4-0.8c1.5,0.8,3,1.5,4.6,2.2c0.9,0.4,1.3,1.4,0.9,2.3C306.9,153.4,306.6,153.7,306.2,153.8 M321.2,158.8
				c-0.3,0.1-0.7,0.2-1.1,0.1c-0.1,0-2.1-0.4-5.2-1.4c-0.9-0.3-1.4-1.2-1.2-2.2c0.3-0.9,1.3-1.4,2.2-1.2c3,0.9,4.9,1.3,4.9,1.3
				c0.9,0.2,1.5,1.1,1.3,2.1C322,158.1,321.6,158.6,321.2,158.8"/>
			<path class="st1" d="M217.2,128.8h121.3c5.3,0,9.6,4.3,9.6,9.6v195.9c0,5.3-4.3,9.6-9.6,9.6H186.2c-5.3,0-9.6-4.3-9.6-9.6V168.7
				L217.2,128.8z"/>
			<path class="st5" d="M187,345.5h151.4c6.2,0,11.3-5.1,11.3-11.3v-32.1c0-1-0.8-1.7-1.7-1.7c-1,0-1.7,0.8-1.7,1.7v32.1
				c0,4.3-3.5,7.9-7.9,7.9H187c-4.3,0-7.9-3.5-7.9-7.9V168.7l38.4-39h120.9c4.3,0,7.9,3.5,7.9,7.9V291c0,1,0.8,1.7,1.7,1.7
				c1,0,1.7-0.8,1.7-1.7V137.6c0-6.2-5.1-11.3-11.3-11.3H216.9c-0.5,0-0.9,0.2-1.2,0.5l-39.4,40c-0.3,0.3-0.5,0.8-0.5,1.2v166.2
				C175.7,340.4,180.8,345.5,187,345.5"/>
			<path class="st5" d="M175.8,170.7H194c1,0,1.8-0.7,1.8-1.7c0-0.9-0.8-1.7-1.8-1.7h-18.2c-1,0-1.8,0.7-1.8,1.7
				C174.1,169.9,174.9,170.7,175.8,170.7 M206,170.7h12.2c1,0,1.8-0.8,1.8-1.7v-40c0-1-0.8-1.7-1.8-1.7s-1.8,0.8-1.8,1.7v38.3H206
				c-1,0-1.8,0.8-1.8,1.7S205,170.7,206,170.7"/>
			<defs>
				<filter id="Adobe_OpacityMaskFilter_2_" filterUnits="userSpaceOnUse" x="201.7" y="297" width="120.5" height="10">
					<feColorMatrix  type="matrix" values="1 0 0 0 0  0 1 0 0 0  0 0 1 0 0  0 0 0 1 0"/>
				</filter>
			</defs>
			<mask maskUnits="userSpaceOnUse" x="201.7" y="297" width="120.5" height="10" id="_x31_-enter-f_1_">
				<g class="st6">
					<polygon id="_x31_-enter-e_1_" class="st1" points="0,384 436,384 436,0 0,0 					"/>
				</g>
			</mask>
			<polygon class="st7" points="201.7,307 322.2,307 322.2,297 201.7,297 			"/>
			<defs>
				<filter id="Adobe_OpacityMaskFilter_3_" filterUnits="userSpaceOnUse" x="201.7" y="205.8" width="54.4" height="31">
					<feColorMatrix  type="matrix" values="1 0 0 0 0  0 1 0 0 0  0 0 1 0 0  0 0 0 1 0"/>
				</filter>
			</defs>
			<mask maskUnits="userSpaceOnUse" x="201.7" y="205.8" width="54.4" height="31" id="_x31_-enter-f_2_">
				<g class="st8">
					<polygon id="_x31_-enter-e_2_" class="st1" points="0,384 436,384 436,0 0,0 					"/>
				</g>
			</mask>
			<polygon class="st9" points="201.7,236.8 256.1,236.8 256.1,205.8 201.7,205.8 			"/>
			<defs>
				<filter id="Adobe_OpacityMaskFilter_4_" filterUnits="userSpaceOnUse" x="193.3" y="167.3" width="134.7" height="157.3">
					<feColorMatrix  type="matrix" values="1 0 0 0 0  0 1 0 0 0  0 0 1 0 0  0 0 0 1 0"/>
				</filter>
			</defs>
			<mask maskUnits="userSpaceOnUse" x="193.3" y="167.3" width="134.7" height="157.3" id="_x31_-enter-f_3_">
				<g class="st10">
					<polygon id="_x31_-enter-e_3_" class="st1" points="0,384 436,384 436,0 0,0 					"/>
				</g>
			</mask>
			<path class="st11" d="M274.5,170.7h50.1c0.9,0,1.7-0.7,1.7-1.7c0-0.9-0.8-1.7-1.7-1.7h-50.1c-0.9,0-1.7,0.7-1.7,1.7
				C272.8,169.9,273.6,170.7,274.5,170.7 M195.9,192.4h85.2c1,0,1.7-0.7,1.7-1.7c0-0.9-0.8-1.7-1.7-1.7h-85.2c-1,0-1.7,0.7-1.7,1.7
				C194.1,191.7,194.9,192.4,195.9,192.4 M296.3,192.4h30c1,0,1.7-0.7,1.7-1.7c0-0.9-0.8-1.7-1.7-1.7h-30c-1,0-1.7,0.7-1.7,1.7
				C294.6,191.7,295.3,192.4,296.3,192.4 M195,212.5h129.6c1,0,1.7-0.7,1.7-1.7c0-0.9-0.8-1.7-1.7-1.7H195c-1,0-1.7,0.7-1.7,1.7
				C193.3,211.7,194.1,212.5,195,212.5 M195,233.4h129.6c1,0,1.7-0.7,1.7-1.7c0-0.9-0.8-1.7-1.7-1.7H195c-1,0-1.7,0.7-1.7,1.7
				C193.3,232.7,194.1,233.4,195,233.4 M262.8,255.2h38.4c0.9,0,1.7-0.7,1.7-1.7c0-0.9-0.8-1.7-1.7-1.7h-38.4
				c-0.9,0-1.7,0.7-1.7,1.7C261.1,254.4,261.9,255.2,262.8,255.2 M262.8,276.9h38.4c0.9,0,1.7-0.7,1.7-1.7s-0.8-1.7-1.7-1.7h-38.4
				c-0.9,0-1.7,0.7-1.7,1.7S261.9,276.9,262.8,276.9 M314.2,253.9c0,2.8,2.3,5.1,5.1,5.1c2.8,0,5.1-2.3,5.1-5.1
				c0-2.8-2.3-5.1-5.1-5.1C316.5,248.8,314.2,251.1,314.2,253.9 M310.5,253.9c0-4.8,3.9-8.8,8.8-8.8c4.8,0,8.8,3.9,8.8,8.8
				c0,4.8-3.9,8.8-8.8,8.8C314.4,262.7,310.5,258.8,310.5,253.9 M314.2,275.7c0,2.8,2.3,5.1,5.1,5.1c2.8,0,5.1-2.3,5.1-5.1
				c0-2.8-2.3-5.1-5.1-5.1C316.5,270.6,314.2,272.9,314.2,275.7 M310.5,275.7c0-4.8,3.9-8.8,8.8-8.8c4.8,0,8.8,3.9,8.8,8.8
				c0,4.8-3.9,8.8-8.8,8.8C314.4,284.4,310.5,280.5,310.5,275.7 M317.7,322.9c0-0.9,0.8-1.7,1.7-1.7h5.2c1,0,1.7,0.7,1.7,1.7
				s-0.8,1.7-1.7,1.7h-5.2C318.5,324.6,317.7,323.9,317.7,322.9 M302.1,322.9c0-0.9,0.8-1.7,1.7-1.7h5.2c1,0,1.7,0.7,1.7,1.7
				s-0.8,1.7-1.7,1.7h-5.2C302.9,324.6,302.1,323.9,302.1,322.9 M286.5,322.9c0-0.9,0.8-1.7,1.7-1.7h5.2c1,0,1.7,0.7,1.7,1.7
				s-0.8,1.7-1.7,1.7h-5.2C287.3,324.6,286.5,323.9,286.5,322.9 M271,322.9c0-0.9,0.8-1.7,1.7-1.7h5.2c1,0,1.7,0.7,1.7,1.7
				s-0.8,1.7-1.7,1.7h-5.2C271.7,324.6,271,323.9,271,322.9 M255.4,322.9c0-0.9,0.8-1.7,1.7-1.7h5.2c1,0,1.7,0.7,1.7,1.7
				s-0.8,1.7-1.7,1.7h-5.2C256.2,324.6,255.4,323.9,255.4,322.9 M239.8,322.9c0-0.9,0.8-1.7,1.7-1.7h5.2c1,0,1.7,0.7,1.7,1.7
				s-0.8,1.7-1.7,1.7h-5.2C240.6,324.6,239.8,323.9,239.8,322.9 M224.2,322.9c0-0.9,0.8-1.7,1.7-1.7h5.2c1,0,1.7,0.7,1.7,1.7
				s-0.8,1.7-1.7,1.7h-5.2C225,324.6,224.2,323.9,224.2,322.9 M208.6,322.9c0-0.9,0.8-1.7,1.7-1.7h5.2c1,0,1.7,0.7,1.7,1.7
				s-0.8,1.7-1.7,1.7h-5.2C209.4,324.6,208.6,323.9,208.6,322.9 M193.3,322.9c0-0.9,0.8-1.7,1.7-1.7h4.9c1,0,1.7,0.7,1.7,1.7
				s-0.8,1.7-1.7,1.7H195C194.1,324.6,193.3,323.9,193.3,322.9"/>
			<defs>
				<filter id="Adobe_OpacityMaskFilter_5_" filterUnits="userSpaceOnUse" x="36" y="203.3" width="19.2" height="19.2">
					<feColorMatrix  type="matrix" values="1 0 0 0 0  0 1 0 0 0  0 0 1 0 0  0 0 0 1 0"/>
				</filter>
			</defs>
			<mask maskUnits="userSpaceOnUse" x="36" y="203.3" width="19.2" height="19.2" id="_x31_-enter-f_4_">
				<g class="st12">
					<polygon id="_x31_-enter-e_4_" class="st1" points="0,384 436,384 436,0 0,0 					"/>
				</g>
			</mask>
			<path class="st13" d="M54.6,209.5c1.9,5-0.6,10.5-5.6,12.4c-5,1.9-10.5-0.6-12.4-5.6c-1.9-5,0.6-10.5,5.6-12.4
				C47.2,202,52.7,204.5,54.6,209.5"/>
			<defs>
				<filter id="Adobe_OpacityMaskFilter_6_" filterUnits="userSpaceOnUse" x="35.1" y="203.3" width="20.9" height="20.1">
					<feColorMatrix  type="matrix" values="1 0 0 0 0  0 1 0 0 0  0 0 1 0 0  0 0 0 1 0"/>
				</filter>
			</defs>
			<mask maskUnits="userSpaceOnUse" x="35.1" y="203.3" width="20.9" height="20.1" id="_x31_-enter-f_5_">
				<g class="st14">
					<polygon id="_x31_-enter-e_5_" class="st1" points="0,384 436,384 436,0 0,0 					"/>
				</g>
			</mask>
			<path class="st15" d="M54.5,218.5c-1.2,1.8-2.9,3.3-5.2,4.2c-2.6,1-5.5,0.9-8-0.2c-2.5-1.1-4.5-3.2-5.5-5.8
				c-1-2.6-0.9-5.4,0.2-7.9c1.2-2.5,3.2-4.4,5.8-5.4c0.6-0.2,1.2,0.1,1.4,0.6c0.2,0.5-0.1,1.2-0.6,1.4c-2.1,0.8-3.7,2.3-4.6,4.3
				c-0.9,2-1,4.2-0.2,6.3c0.8,2.1,2.3,3.7,4.4,4.6c2,0.9,4.3,1,6.4,0.2c4.3-1.6,6.4-6.3,4.8-10.6c-0.2-0.5,0.1-1.2,0.6-1.4
				c0.6-0.2,1.2,0.1,1.4,0.6C56.6,212.5,56.1,215.9,54.5,218.5"/>
			<defs>
				<filter id="Adobe_OpacityMaskFilter_7_" filterUnits="userSpaceOnUse" x="38.5" y="199.9" width="14.2" height="16.7">
					<feColorMatrix  type="matrix" values="1 0 0 0 0  0 1 0 0 0  0 0 1 0 0  0 0 0 1 0"/>
				</filter>
			</defs>
			<mask maskUnits="userSpaceOnUse" x="38.5" y="199.9" width="14.2" height="16.7" id="_x31_-enter-f_6_">
				<g class="st16">
					<polygon id="_x31_-enter-e_6_" class="st1" points="0,384 436,384 436,0 0,0 					"/>
				</g>
			</mask>
			<path class="st17" d="M46.6,216.1c-0.1,0.2-0.3,0.4-0.5,0.5c-0.3,0.1-0.6,0.1-0.8,0l-6.1-3c-0.5-0.3-0.8-0.9-0.5-1.5
				c0.2-0.6,0.9-0.8,1.4-0.6l5.1,2.5l5.5-13.4c0.2-0.6,0.9-0.8,1.4-0.6c0.5,0.3,0.8,0.9,0.5,1.5l-6,14.4
				C46.6,216,46.6,216.1,46.6,216.1"/>
			<defs>
				<filter id="Adobe_OpacityMaskFilter_8_" filterUnits="userSpaceOnUse" x="0" y="269.4" width="19.2" height="19.2">
					<feColorMatrix  type="matrix" values="1 0 0 0 0  0 1 0 0 0  0 0 1 0 0  0 0 0 1 0"/>
				</filter>
			</defs>
			<mask maskUnits="userSpaceOnUse" x="0" y="269.4" width="19.2" height="19.2" id="_x31_-enter-f_7_">
				<g class="st18">
					<polygon id="_x31_-enter-e_7_" class="st1" points="0,384 436,384 436,0 0,0 					"/>
				</g>
			</mask>
			<path class="st19" d="M9.6,283.6c0.4,0,0.8,0.1,1.1,0.4l3.7,2.8l-1.3-4.6c-0.2-0.8,0-1.7,0.7-2.2l3.7-2.8l-4.6-0.2
				c-0.8,0-1.5-0.5-1.8-1.3l-1.4-4.5c0,0,0-0.1-0.1-0.1l-1.5,4.5c-0.2,0.8-1,1.3-1.8,1.3H1.9l3.6,2.9c0.6,0.5,0.9,1.4,0.7,2.1
				l-1.4,4.5l3.8-2.7C8.9,283.8,9.2,283.6,9.6,283.6 M14.4,288.6c-0.4,0-0.8-0.1-1.1-0.4l-3.7-2.8l-3.8,2.8c-0.7,0.5-1.5,0.5-2.2,0
				c-0.7-0.5-0.9-1.3-0.7-2.1l1.4-4.5l-3.7-2.9c-0.7-0.5-0.9-1.3-0.7-2.2c0.3-0.8,0.9-1.3,1.8-1.3h4.5l1.5-4.5
				c0.3-0.8,0.9-1.3,1.8-1.3c0.8,0,1.5,0.5,1.8,1.3v0l1.4,4.5l4.6,0.1c0.8,0,1.5,0.5,1.8,1.3c0.3,0.8,0,1.7-0.7,2.2l-3.7,2.8
				l1.4,4.6c0.3,0.8,0,1.7-0.7,2.1C15.2,288.5,14.8,288.6,14.4,288.6"/>
			<defs>
				<filter id="Adobe_OpacityMaskFilter_9_" filterUnits="userSpaceOnUse" x="202.5" y="61.1" width="15.9" height="25.1">
					<feColorMatrix  type="matrix" values="1 0 0 0 0  0 1 0 0 0  0 0 1 0 0  0 0 0 1 0"/>
				</filter>
			</defs>
			<mask maskUnits="userSpaceOnUse" x="202.5" y="61.1" width="15.9" height="25.1" id="_x31_-enter-f_8_">
				<g class="st20">
					<polygon id="_x31_-enter-e_8_" class="st1" points="0,384 436,384 436,0 0,0 					"/>
				</g>
			</mask>
			<polygon class="st21" points="216.6,86.2 210,79.2 202.5,85.2 204.3,61.1 218.4,62.1 			"/>
			<defs>
				<filter id="Adobe_OpacityMaskFilter_10_" filterUnits="userSpaceOnUse" x="178.2" y="51.9" width="26.8" height="25.9">
					<feColorMatrix  type="matrix" values="1 0 0 0 0  0 1 0 0 0  0 0 1 0 0  0 0 0 1 0"/>
				</filter>
			</defs>
			<mask maskUnits="userSpaceOnUse" x="178.2" y="51.9" width="26.8" height="25.9" id="_x31_-enter-f_9_">
				<g class="st22">
					<polygon id="_x31_-enter-e_9_" class="st1" points="0,384 436,384 436,0 0,0 					"/>
				</g>
			</mask>
			<polygon class="st23" points="187.1,77.8 187.4,68.5 178.2,67.5 196.2,51.9 205,62.2 			"/>
			<defs>
				<filter id="Adobe_OpacityMaskFilter_11_" filterUnits="userSpaceOnUse" x="201.7" y="60.2" width="17.6" height="26.8">
					<feColorMatrix  type="matrix" values="1 0 0 0 0  0 1 0 0 0  0 0 1 0 0  0 0 0 1 0"/>
				</filter>
			</defs>
			<mask maskUnits="userSpaceOnUse" x="201.7" y="60.2" width="17.6" height="26.8" id="_x31_-enter-f_10_">
				<g class="st24">
					<polygon id="_x31_-enter-e_10_" class="st1" points="0,384 436,384 436,0 0,0 					"/>
				</g>
			</mask>
			<path class="st25" d="M205.2,62.1l-1.6,21l5.8-4.6c0.4-0.3,0.9-0.3,1.2,0.1c0,0,0,0,0,0l5.1,5.4l1.6-21L205.2,62.1z M201.9,85.7
				c-0.2-0.2-0.3-0.4-0.2-0.7l1.8-24c0-0.5,0.5-0.9,1-0.8l13.9,1c0.2,0,0.5,0.1,0.6,0.3c0.2,0.2,0.2,0.4,0.2,0.7l-1.8,24
				c0,0.4-0.3,0.7-0.6,0.8c-0.3,0.1-0.7,0-1-0.2c0,0,0,0,0,0l-5.9-6.3l-6.8,5.4c-0.3,0.2-0.7,0.3-1,0.1
				C202.1,85.9,202,85.8,201.9,85.7L201.9,85.7z"/>
			<defs>
				<filter id="Adobe_OpacityMaskFilter_12_" filterUnits="userSpaceOnUse" x="176.6" y="51" width="29.3" height="27.6">
					<feColorMatrix  type="matrix" values="1 0 0 0 0  0 1 0 0 0  0 0 1 0 0  0 0 0 1 0"/>
				</filter>
			</defs>
			<mask maskUnits="userSpaceOnUse" x="176.6" y="51" width="29.3" height="27.6" id="_x31_-enter-f_11_">
				<g class="st26">
					<polygon id="_x31_-enter-e_11_" class="st1" points="0,384 436,384 436,0 0,0 					"/>
				</g>
			</mask>
			<path class="st27" d="M187.6,67.9c0.2,0.2,0.3,0.4,0.2,0.6l-0.3,7.2l16.2-13.6l-7.9-8.9l-16.2,13.6l7.4,0.8
				C187.2,67.6,187.4,67.7,187.6,67.9 M185.9,78.4c-0.2-0.2-0.3-0.4-0.2-0.6l0.4-8.4l-8.6-0.9c-0.4,0-0.7-0.3-0.8-0.6
				c-0.1-0.3,0-0.7,0.3-0.9l18.4-15.6c0.4-0.3,0.9-0.4,1.3,0.1l9,10.2c0.3,0.4,0.3,0.9-0.1,1.3l-18.4,15.6c-0.3,0.2-0.7,0.3-1,0.1
				C186,78.5,185.9,78.4,185.9,78.4"/>
			<defs>
				<filter id="Adobe_OpacityMaskFilter_13_" filterUnits="userSpaceOnUse" x="194.1" y="36.8" width="30.1" height="30.1">
					<feColorMatrix  type="matrix" values="1 0 0 0 0  0 1 0 0 0  0 0 1 0 0  0 0 0 1 0"/>
				</filter>
			</defs>
			<mask maskUnits="userSpaceOnUse" x="194.1" y="36.8" width="30.1" height="30.1" id="_x31_-enter-f_12_">
				<g class="st28">
					<polygon id="_x31_-enter-e_12_" class="st1" points="0,384 436,384 436,0 0,0 					"/>
				</g>
			</mask>
			<path class="st29" d="M222.6,58.7c-3.8,7.4-12.8,10.4-20.3,6.6C195,61.5,192,52.5,195.8,45s12.8-10.4,20.3-6.6
				C223.5,42.2,226.4,51.3,222.6,58.7"/>
			<defs>
				<filter id="Adobe_OpacityMaskFilter_14_" filterUnits="userSpaceOnUse" x="195" y="41" width="30.1" height="30.1">
					<feColorMatrix  type="matrix" values="1 0 0 0 0  0 1 0 0 0  0 0 1 0 0  0 0 0 1 0"/>
				</filter>
			</defs>
			<mask maskUnits="userSpaceOnUse" x="195" y="41" width="30.1" height="30.1" id="_x31_-enter-f_13_">
				<g class="st30">
					<polygon id="_x31_-enter-e_13_" class="st1" points="0,384 436,384 436,0 0,0 					"/>
				</g>
			</mask>
			<path class="st31" d="M223.5,62.9c-3.8,7.4-12.8,10.4-20.3,6.6c-7.4-3.8-10.4-12.8-6.6-20.2s12.8-10.4,20.3-6.6
				C224.3,46.4,227.2,55.5,223.5,62.9"/>
			<defs>
				<filter id="Adobe_OpacityMaskFilter_15_" filterUnits="userSpaceOnUse" x="193.3" y="36" width="31" height="31">
					<feColorMatrix  type="matrix" values="1 0 0 0 0  0 1 0 0 0  0 0 1 0 0  0 0 0 1 0"/>
				</filter>
			</defs>
			<mask maskUnits="userSpaceOnUse" x="193.3" y="36" width="31" height="31" id="_x31_-enter-f_14_">
				<g class="st32">
					<polygon id="_x31_-enter-e_14_" class="st1" points="0,384 436,384 436,0 0,0 					"/>
				</g>
			</mask>
			<path class="st33" d="M197.5,62c-1.5-1.6-2.7-3.6-3.4-5.8c-1.3-3.9-1-8.1,0.9-11.8c1.6-3.2,4.3-5.7,7.5-7.1c0.4-0.2,1,0,1.2,0.4
				c0.2,0.4,0,1-0.4,1.2c-2.9,1.3-5.2,3.5-6.6,6.3c-1.7,3.3-2,7-0.8,10.5c1.1,3.5,3.6,6.3,6.8,8c3.3,1.7,7,2,10.5,0.8
				c3.5-1.1,6.3-3.6,8-6.8c1.7-3.3,1.9-7,0.8-10.5c-1.1-3.5-3.6-6.3-6.8-8c-2.1-1.1-4.5-1.6-6.8-1.5c-0.5,0-0.9-0.4-0.9-0.8
				c0-0.5,0.4-0.9,0.8-0.9c2.7-0.1,5.3,0.5,7.7,1.7c7.6,3.9,10.6,13.2,6.8,20.8c-3.9,7.6-13.2,10.6-20.8,6.8
				C200.1,64.4,198.7,63.3,197.5,62"/>
			<defs>
				<filter id="Adobe_OpacityMaskFilter_16_" filterUnits="userSpaceOnUse" x="283.7" y="0.8" width="49.4" height="58.6">
					<feColorMatrix  type="matrix" values="1 0 0 0 0  0 1 0 0 0  0 0 1 0 0  0 0 0 1 0"/>
				</filter>
			</defs>
			<mask maskUnits="userSpaceOnUse" x="283.7" y="0.8" width="49.4" height="58.6" id="_x31_-enter-f_15_">
				<g class="st34">
					<polygon id="_x31_-enter-e_15_" class="st1" points="0,384 436,384 436,0 0,0 					"/>
				</g>
			</mask>
			<path class="st35" d="M330.6,35C336.8,22.4,330.8,7,317,2.2c-10.7-3.8-22.8,0.6-28.6,10.3c-3.5,5.8-4.1,12.4-2.5,18.3
				c1.5,5.6,1,11.6-1.6,16.9l-0.6,1.3l21.7,10.5l0.6-1.3c2.6-5.4,7.2-9.4,12.8-11.8C323.8,44.1,328.1,40.2,330.6,35"/>
			<defs>
				<filter id="Adobe_OpacityMaskFilter_17_" filterUnits="userSpaceOnUse" x="292.1" y="15.9" width="36" height="36.8">
					<feColorMatrix  type="matrix" values="1 0 0 0 0  0 1 0 0 0  0 0 1 0 0  0 0 0 1 0"/>
				</filter>
			</defs>
			<mask maskUnits="userSpaceOnUse" x="292.1" y="15.9" width="36" height="36.8" id="_x31_-enter-f_16_">
				<g class="st36">
					<polygon id="_x31_-enter-e_16_" class="st1" points="0,384 436,384 436,0 0,0 					"/>
				</g>
			</mask>
			<path class="st37" d="M326.2,42.4c-4.3,9.1-15.1,12.9-24,8.5c-8.9-4.4-12.7-15.5-8.3-24.6c4.3-9.1,15.1-12.9,24-8.5
				C326.9,22.2,330.6,33.2,326.2,42.4"/>
			<defs>
				<filter id="Adobe_OpacityMaskFilter_18_" filterUnits="userSpaceOnUse" x="282.9" y="0" width="51" height="60.2">
					<feColorMatrix  type="matrix" values="1 0 0 0 0  0 1 0 0 0  0 0 1 0 0  0 0 0 1 0"/>
				</filter>
			</defs>
			<mask maskUnits="userSpaceOnUse" x="282.9" y="0" width="51" height="60.2" id="_x31_-enter-f_17_">
				<g class="st38">
					<polygon id="_x31_-enter-e_17_" class="st1" points="0,384 436,384 436,0 0,0 					"/>
				</g>
			</mask>
			<path class="st39" d="M325.7,8.7c-2.4-2.5-5.5-4.4-8.9-5.7c-10.2-3.6-22,0.7-27.5,9.9c-3.2,5.4-4,11.6-2.4,17.6
				c1.6,5.8,1,12-1.7,17.5l-0.3,0.5l20.2,9.7l0.3-0.5c2.6-5.3,7.3-9.7,13.2-12.2c5-2.2,9-6,11.4-10.9c2.9-5.8,3.1-12.6,0.6-18.7
				C329.3,13.2,327.7,10.7,325.7,8.7 M283.1,49.5c-0.1-0.1-0.2-0.2-0.2-0.3c-0.1-0.2-0.1-0.4,0-0.7l0.6-1.3c2.5-5.1,3-10.8,1.6-16.3
				c-1.8-6.4-0.8-13.1,2.6-18.9c6-10.1,18.5-14.6,29.6-10.7c6.8,2.4,12,7.3,14.7,13.9c2.7,6.5,2.4,13.8-0.7,20
				c-2.6,5.2-6.9,9.4-12.3,11.7c-5.5,2.4-9.9,6.5-12.3,11.4l-0.6,1.3c-0.2,0.4-0.7,0.6-1.2,0.4l-21.7-10.5
				C283.3,49.6,283.2,49.6,283.1,49.5"/>
			<defs>
				<filter id="Adobe_OpacityMaskFilter_19_" filterUnits="userSpaceOnUse" x="282" y="50.2" width="22.6" height="23.4">
					<feColorMatrix  type="matrix" values="1 0 0 0 0  0 1 0 0 0  0 0 1 0 0  0 0 0 1 0"/>
				</filter>
			</defs>
			<mask maskUnits="userSpaceOnUse" x="282" y="50.2" width="22.6" height="23.4" id="_x31_-enter-f_18_">
				<g class="st40">
					<polygon id="_x31_-enter-e_18_" class="st1" points="0,384 436,384 436,0 0,0 					"/>
				</g>
			</mask>
			<path class="st41" d="M286.2,73.1L286.2,73.1c-5.1-2.5-5-13.2-2.5-18.3l2.3-4.6l18.6,8.9l-2.3,4.6
				C299.8,68.9,291.4,75.6,286.2,73.1"/>
			<defs>
				<filter id="Adobe_OpacityMaskFilter_20_" filterUnits="userSpaceOnUse" x="279.5" y="49.4" width="25.9" height="25.9">
					<feColorMatrix  type="matrix" values="1 0 0 0 0  0 1 0 0 0  0 0 1 0 0  0 0 0 1 0"/>
				</filter>
			</defs>
			<mask maskUnits="userSpaceOnUse" x="279.5" y="49.4" width="25.9" height="25.9" id="_x31_-enter-f_19_">
				<g class="st42">
					<polygon id="_x31_-enter-e_19_" class="st1" points="0,384 436,384 436,0 0,0 					"/>
				</g>
			</mask>
			<path class="st43" d="M286.4,51.4l-4.2,8.5c-2.3,4.7-0.3,10.3,4.4,12.6c4.7,2.3,10.4,0.3,12.6-4.4l4.2-8.5L286.4,51.4z
				 M282.7,71.9c-3.2-3.3-4.2-8.4-2-12.7l4.5-9.3c0.2-0.4,0.7-0.6,1.2-0.4l18.6,9c0.2,0.1,0.4,0.3,0.4,0.5c0.1,0.2,0.1,0.5,0,0.7
				l-4.5,9.3c-2.7,5.6-9.4,7.9-15,5.2C284.6,73.6,283.6,72.8,282.7,71.9L282.7,71.9z"/>
			<defs>
				<filter id="Adobe_OpacityMaskFilter_21_" filterUnits="userSpaceOnUse" x="278.7" y="25.9" width="36.8" height="49.4">
					<feColorMatrix  type="matrix" values="1 0 0 0 0  0 1 0 0 0  0 0 1 0 0  0 0 0 1 0"/>
				</filter>
			</defs>
			<mask maskUnits="userSpaceOnUse" x="278.7" y="25.9" width="36.8" height="49.4" id="_x31_-enter-f_20_">
				<g class="st44">
					<polygon id="_x31_-enter-e_20_" class="st1" points="0,384 436,384 436,0 0,0 					"/>
				</g>
			</mask>
			<path class="st45" d="M282.3,52.6c-0.3-0.3-0.3-0.8-0.1-1.2c0.3-0.4,0.8-0.5,1.2-0.2l20,14.1c0.4,0.3,0.5,0.9,0.2,1.3
				c-0.3,0.4-0.8,0.5-1.2,0.2l-20-14.1C282.4,52.7,282.3,52.6,282.3,52.6 M280.6,56.8c-0.3-0.3-0.3-0.8-0.1-1.2
				c0.3-0.4,0.8-0.5,1.2-0.2l20,14.1c0.4,0.3,0.5,0.9,0.2,1.3s-0.8,0.5-1.2,0.2l-20-14.1C280.7,56.9,280.6,56.8,280.6,56.8
				 M278.9,60.9c-0.3-0.3-0.3-0.8-0.1-1.2c0.3-0.4,0.8-0.5,1.2-0.2l20,14.1c0.4,0.3,0.5,0.9,0.2,1.3c-0.3,0.4-0.8,0.5-1.2,0.2
				l-20-14.1C279,61,279,61,278.9,60.9 M289.8,51.5c-0.3-0.3-0.3-0.7-0.2-1l11.9-24c0.2-0.4,0.7-0.6,1.2-0.4l12.3,6
				c0.2,0.1,0.4,0.3,0.4,0.5c0.1,0.2,0.1,0.5,0,0.7l-11.9,24c-0.2,0.4-0.7,0.6-1.2,0.4c-0.4-0.2-0.6-0.7-0.4-1.2l11.5-23.2L302.7,28
				l-11.5,23.2c-0.2,0.4-0.7,0.6-1.2,0.4C289.9,51.6,289.9,51.5,289.8,51.5"/>
			<defs>
				<filter id="Adobe_OpacityMaskFilter_22_" filterUnits="userSpaceOnUse" x="297.1" y="20.9" width="24.3" height="16.7">
					<feColorMatrix  type="matrix" values="1 0 0 0 0  0 1 0 0 0  0 0 1 0 0  0 0 0 1 0"/>
				</filter>
			</defs>
			<mask maskUnits="userSpaceOnUse" x="297.1" y="20.9" width="24.3" height="16.7" id="_x31_-enter-f_21_">
				<g class="st46">
					<polygon id="_x31_-enter-e_21_" class="st1" points="0,384 436,384 436,0 0,0 					"/>
				</g>
			</mask>
			<path class="st47" d="M300.5,22.8l-1.5,3l3,1.5l1.5-3L300.5,22.8z M297.3,26.8c-0.2-0.2-0.3-0.6-0.1-0.9l2.2-4.5
				c0.2-0.4,0.7-0.6,1.1-0.4l4.5,2.2c0.2,0.1,0.3,0.3,0.4,0.5c0.1,0.2,0.1,0.4,0,0.6l-2.2,4.5c-0.2,0.4-0.7,0.6-1.1,0.4l-4.5-2.2
				C297.5,27,297.4,26.9,297.3,26.8L297.3,26.8z M307.2,26.2l-1.5,3l3,1.5l1.5-3L307.2,26.2z M304,30.2c-0.2-0.2-0.3-0.6-0.2-0.9
				l2.2-4.5c0.2-0.4,0.7-0.6,1.1-0.4l4.5,2.2c0.4,0.2,0.6,0.7,0.4,1.1l-2.2,4.5c-0.2,0.4-0.7,0.6-1.1,0.4l-4.5-2.2
				C304.2,30.3,304.1,30.2,304,30.2L304,30.2z M316.4,31.2l-1.5,3l3,1.5l1.5-3L316.4,31.2z M313.2,35.2c-0.2-0.2-0.3-0.6-0.1-0.9
				l2.2-4.5c0.2-0.4,0.7-0.6,1.1-0.4l4.5,2.2c0.4,0.2,0.6,0.7,0.4,1.1l-2.2,4.5c-0.2,0.4-0.7,0.6-1.1,0.4l-4.5-2.2
				C313.4,35.3,313.3,35.3,313.2,35.2L313.2,35.2z"/>
		</g>
	</g>
</g>
</svg>
