<?xml version="1.0" encoding="utf-8"?>
<!-- Generator: Adobe Illustrator 25.2.0, SVG Export Plug-In . SVG Version: 6.00 Build 0)  -->
<svg version="1.1" id="Layer_1" xmlns="http://www.w3.org/2000/svg" xmlns:xlink="http://www.w3.org/1999/xlink" x="0px" y="0px"
	 viewBox="0 0 387 593" style="enable-background:new 0 0 387 593;" xml:space="preserve">
<style type="text/css">
	.st0{filter:url(#Adobe_OpacityMaskFilter);}
	.st1{fill-rule:evenodd;clip-rule:evenodd;fill:#FFFFFF;}
	.st2{mask:url(#_x32_-chooseexam-b_1_);fill-rule:evenodd;clip-rule:evenodd;fill:#EDEFF8;}
	.st3{filter:url(#Adobe_OpacityMaskFilter_1_);}
	.st4{mask:url(#_x32_-chooseexam-d_1_);}
	.st5{filter:url(#Adobe_OpacityMaskFilter_2_);}
	.st6{mask:url(#_x32_-chooseexam-f_1_);fill-rule:evenodd;clip-rule:evenodd;fill:#717791;}
	.st7{fill-rule:evenodd;clip-rule:evenodd;fill:#717791;}
	.st8{fill-rule:evenodd;clip-rule:evenodd;fill:#E7F859;}
	.st9{filter:url(#Adobe_OpacityMaskFilter_3_);}
	.st10{mask:url(#_x32_-chooseexam-h_1_);fill-rule:evenodd;clip-rule:evenodd;fill:#717791;}
	.st11{fill-rule:evenodd;clip-rule:evenodd;fill:#EDEFF8;}
	.st12{fill-rule:evenodd;clip-rule:evenodd;fill:#DFE9F4;}
	.st13{filter:url(#Adobe_OpacityMaskFilter_4_);}
	.st14{mask:url(#_x32_-chooseexam-j_1_);fill-rule:evenodd;clip-rule:evenodd;fill:#E7F859;}
	.st15{filter:url(#Adobe_OpacityMaskFilter_5_);}
	.st16{mask:url(#_x32_-chooseexam-j_2_);fill-rule:evenodd;clip-rule:evenodd;fill:#717791;}
	.st17{filter:url(#Adobe_OpacityMaskFilter_6_);}
	.st18{mask:url(#_x32_-chooseexam-j_3_);fill-rule:evenodd;clip-rule:evenodd;fill:#E7F859;}
	.st19{filter:url(#Adobe_OpacityMaskFilter_7_);}
	.st20{mask:url(#_x32_-chooseexam-j_4_);fill-rule:evenodd;clip-rule:evenodd;fill:#EDEFF8;}
	.st21{filter:url(#Adobe_OpacityMaskFilter_8_);}
	.st22{mask:url(#_x32_-chooseexam-j_5_);fill-rule:evenodd;clip-rule:evenodd;fill:#717791;}
	.st23{filter:url(#Adobe_OpacityMaskFilter_9_);}
	.st24{mask:url(#_x32_-chooseexam-j_6_);fill-rule:evenodd;clip-rule:evenodd;fill:#717791;}
	.st25{filter:url(#Adobe_OpacityMaskFilter_10_);}
	.st26{mask:url(#_x32_-chooseexam-j_7_);fill-rule:evenodd;clip-rule:evenodd;fill:#717791;}
	.st27{filter:url(#Adobe_OpacityMaskFilter_11_);}
	.st28{mask:url(#_x32_-chooseexam-j_8_);fill-rule:evenodd;clip-rule:evenodd;fill:#FFFFFF;}
	.st29{filter:url(#Adobe_OpacityMaskFilter_12_);}
	.st30{mask:url(#_x32_-chooseexam-j_9_);fill-rule:evenodd;clip-rule:evenodd;fill:#E7F859;}
	.st31{filter:url(#Adobe_OpacityMaskFilter_13_);}
	.st32{mask:url(#_x32_-chooseexam-j_10_);fill-rule:evenodd;clip-rule:evenodd;fill:#717791;}
	.st33{filter:url(#Adobe_OpacityMaskFilter_14_);}
	.st34{mask:url(#_x32_-chooseexam-j_11_);fill-rule:evenodd;clip-rule:evenodd;fill:#717791;}
	.st35{filter:url(#Adobe_OpacityMaskFilter_15_);}
	.st36{mask:url(#_x32_-chooseexam-j_12_);fill-rule:evenodd;clip-rule:evenodd;fill:#FFFFFF;}
	.st37{filter:url(#Adobe_OpacityMaskFilter_16_);}
	.st38{mask:url(#_x32_-chooseexam-j_13_);fill-rule:evenodd;clip-rule:evenodd;fill:#717791;}
	.st39{filter:url(#Adobe_OpacityMaskFilter_17_);}
	.st40{mask:url(#_x32_-chooseexam-j_14_);fill-rule:evenodd;clip-rule:evenodd;fill:#717791;}
	.st41{filter:url(#Adobe_OpacityMaskFilter_18_);}
	.st42{mask:url(#_x32_-chooseexam-j_15_);fill-rule:evenodd;clip-rule:evenodd;fill:#717791;}
	.st43{filter:url(#Adobe_OpacityMaskFilter_19_);}
	.st44{mask:url(#_x32_-chooseexam-j_16_);fill-rule:evenodd;clip-rule:evenodd;fill:#FFFFFF;}
	.st45{filter:url(#Adobe_OpacityMaskFilter_20_);}
	.st46{mask:url(#_x32_-chooseexam-j_17_);fill-rule:evenodd;clip-rule:evenodd;fill:#717791;}
	.st47{filter:url(#Adobe_OpacityMaskFilter_21_);}
	.st48{mask:url(#_x32_-chooseexam-j_18_);fill-rule:evenodd;clip-rule:evenodd;fill:#FFFFFF;}
	.st49{filter:url(#Adobe_OpacityMaskFilter_22_);}
	.st50{mask:url(#_x32_-chooseexam-j_19_);fill-rule:evenodd;clip-rule:evenodd;fill:#FFFFFF;}
	.st51{filter:url(#Adobe_OpacityMaskFilter_23_);}
	.st52{mask:url(#_x32_-chooseexam-j_20_);fill-rule:evenodd;clip-rule:evenodd;fill:#E7F859;}
	.st53{filter:url(#Adobe_OpacityMaskFilter_24_);}
	.st54{mask:url(#_x32_-chooseexam-j_21_);fill-rule:evenodd;clip-rule:evenodd;fill:#717791;}
	.st55{filter:url(#Adobe_OpacityMaskFilter_25_);}
	.st56{mask:url(#_x32_-chooseexam-j_22_);fill-rule:evenodd;clip-rule:evenodd;fill:#677089;}
	.st57{filter:url(#Adobe_OpacityMaskFilter_26_);}
	.st58{mask:url(#_x32_-chooseexam-j_23_);fill-rule:evenodd;clip-rule:evenodd;fill:#E7F859;}
	.st59{filter:url(#Adobe_OpacityMaskFilter_27_);}
	.st60{mask:url(#_x32_-chooseexam-j_24_);fill-rule:evenodd;clip-rule:evenodd;fill:#717791;}
	.st61{filter:url(#Adobe_OpacityMaskFilter_28_);}
	.st62{mask:url(#_x32_-chooseexam-j_25_);fill-rule:evenodd;clip-rule:evenodd;fill:#717791;}
</style>
<g transform="translate(-328.761)">
	<defs>
		<filter id="Adobe_OpacityMaskFilter" filterUnits="userSpaceOnUse" x="358.1" y="-129" width="978.7" height="766.7">
			<feColorMatrix  type="matrix" values="1 0 0 0 0  0 1 0 0 0  0 0 1 0 0  0 0 0 1 0"/>
		</filter>
	</defs>
	<mask maskUnits="userSpaceOnUse" x="358.1" y="-129" width="978.7" height="766.7" id="_x32_-chooseexam-b_1_">
		<g class="st0">
			<path id="_x32_-chooseexam-a_1_" class="st1" d="M2,0h711.8c1.1,0,2,0.9,2,2v589c0,1.1-0.9,2-2,2H2c-1.1,0-2-0.9-2-2V2
				C0,0.9,0.9,0,2,0z"/>
		</g>
	</mask>
	<path class="st2" d="M468.1-106.9c0,12.2,9.9,22.1,22.1,22.1l31.2,0.1c11.4,0,20.6,9.3,20.6,20.6c0,11.4-9.2,20.6-20.6,20.6
		c0,0,0,0,0,0l-40.5,0c-12,0-21.7,9.7-21.7,21.7c0,0,0,0,0,0c0,12,9.7,21.7,21.7,21.7c0,0,0,0,0,0l90.8-0.1c11,0,19.8,8.9,19.8,19.8
		c0,0,0,0,0,0c0,11-8.9,19.9-19.8,19.9l-1.5,0c-11.8,0.1-21.3,9.6-21.3,21.4v1.5c0,11.7,9.5,21.2,21.2,21.2c0,0,0.1,0,0.1,0l1.5,0
		c10.9,0,19.8,8.8,19.8,19.7c0,0,0,0.1,0,0.1c0,11-8.9,19.9-19.8,19.9l-63.8,0.1c-12,0-21.7,9.7-21.7,21.7c0,12,9.7,21.7,21.7,21.7
		c0,0,0,0,0,0l73.8-0.1c12,0,21.7,9.7,21.7,21.6c0,0,0,0,0,0c0,12-9.7,21.7-21.7,21.7l-63.1,0c-12.2,0-22.1,9.9-22.1,22.1
		c0,12.2,9.9,22.1,22.1,22.1h27.9c11.4,0,20.6,9.2,20.6,20.6c0,11.4-9.2,20.6-20.6,20.6l-106.6,0.1c-12.2,0-22.1,9.9-22.1,22.1
		c0,12.1,9.8,22,22,22c0,0,0.1,0,0.1,0l19.4-0.1c10.7-0.1,19.4,8.5,19.4,19.2c0,0.2,0,0.4,0,0.6c-0.3,11.1-9.4,20-20.5,19.9
		l-78.4-0.2c-12,0-21.7,9.6-21.7,21.6c0,0.2,0,0.4,0,0.6c0.3,12.4,10.4,22.2,22.8,22.2h31c11.6,0,21,9.4,21,21c0,0.2,0,0.4,0,0.6
		c-0.3,12-10.1,21.5-22.1,21.4l-10.4,0c-12.1-0.1-22,9.7-22.1,21.9c0,0,0,0.1,0,0.1c0,12.2,9.9,22.1,22.1,22.1c0,0,0,0,0,0
		l206.5-0.3c10.9,0,19.8,8.8,19.8,19.8c0,0,0,0,0,0c0,11-8.9,19.8-19.8,19.9l-140.6,0.1c-12.2,0-22.1,9.9-22.1,22.1
		c0,12.2,9.9,22.1,22.1,22.1h127.2c12,0,21.7,9.7,21.7,21.7c0,12,9.7,21.7,21.7,21.7H1206c12.2,0,22.1-9.9,22.1-22.1
		s-9.9-22.1-22.1-22.1h-128.7c-11.2,0-20.2-9.1-20.2-20.2c0-11.2,9.1-20.2,20.2-20.2h48.8c12,0,21.7-9.7,21.7-21.7
		c0-12-9.7-21.7-21.7-21.7h-47.3c-12,0-21.7-9.7-21.7-21.7s9.7-21.7,21.7-21.7h89.7c12.2,0,22.1-9.9,22.1-22.1
		c0-12.2-9.9-22.1-22.1-22.1h-32.3c-11,0-19.8-8.9-19.8-19.8c0-11,8.9-19.8,19.8-19.8h77c12,0,21.7-9.7,21.7-21.7
		s-9.7-21.7-21.7-21.7h-101.7c-11.8,0-21.3-9.6-21.3-21.3c0-11.8,9.6-21.3,21.3-21.3h60.1c12.2,0,22.1-9.9,22.1-22.1
		c0-12.2-9.9-22.1-22.1-22.1h-41c-11.6,0-21-9.4-21-21s9.4-21,21-21H1236c12.2,0,22.1-9.9,22.1-22.1s-9.9-22.1-22.1-22.1h-58.6
		c-11.4,0-20.6-9.2-20.6-20.6c0-11.4,9.2-20.6,20.6-20.6H1281c12.2,0,22.1-9.9,22.1-22.1s-9.9-22.1-22.1-22.1h-146
		c-11.2,0-20.2-9.1-20.2-20.2s9.1-20.2,20.2-20.2h179.8c12.2,0,22.1-9.9,22.1-22.1S1327-4,1314.8-4h-154.3
		c-10.8,0-19.5-8.7-19.5-19.5s8.7-19.5,19.5-19.5h31.2c12.2,0,22.1-9.9,22.1-22.1s-9.9-22.1-22.1-22.1h-89c-11.6,0-21-9.4-21-21
		s-9.4-21-21-21H490.2C478-129,468.1-119.1,468.1-106.9z"/>
	<defs>
		<filter id="Adobe_OpacityMaskFilter_1_" filterUnits="userSpaceOnUse" x="367.8" y="147" width="392.8" height="395.1">
			<feColorMatrix  type="matrix" values="1 0 0 0 0  0 1 0 0 0  0 0 1 0 0  0 0 0 1 0"/>
		</filter>
	</defs>
	<mask maskUnits="userSpaceOnUse" x="367.8" y="147" width="392.8" height="395.1" id="_x32_-chooseexam-d_1_">
		<g class="st3">
			<rect id="_x32_-chooseexam-c_1_" x="357.8" y="0" class="st1" width="359" height="593"/>
		</g>
	</mask>
	<g class="st4">
		<g transform="translate(367.761 147)">
			<path class="st1" d="M378.9,226.2l-89.1-32.4c-9.6-3.5-20.2,1.5-23.7,11L218.3,336c-3.5,9.6,1.5,20.1,11,23.6l89.1,32.4
				c9.6,3.5,20.2-1.5,23.7-11L390,249.8C393.4,240.3,388.5,229.7,378.9,226.2"/>
			<g transform="translate(215.237 191.768)">
				<defs>
					<filter id="Adobe_OpacityMaskFilter_2_" filterUnits="userSpaceOnUse" x="0.6" y="0.5" width="176.9" height="202.9">
						<feColorMatrix  type="matrix" values="1 0 0 0 0  0 1 0 0 0  0 0 1 0 0  0 0 0 1 0"/>
					</filter>
				</defs>
				<mask maskUnits="userSpaceOnUse" x="0.6" y="0.5" width="176.9" height="202.9" id="_x32_-chooseexam-f_1_">
					<g class="st5">
						<polygon id="_x32_-chooseexam-e_1_" class="st1" points="0.6,0.5 177.6,0.5 177.6,203.4 0.6,203.4 						"/>
					</g>
				</mask>
				<path class="st6" d="M109.7,203.4c2.9,0,5.7-0.6,8.4-1.9c4.8-2.2,8.5-6.2,10.3-11.2l47.9-130.8c3.8-10.3-1.6-21.7-11.9-25.5
					c-0.8-0.3-1.6,0.1-1.9,0.9c-0.3,0.8,0.1,1.6,0.9,1.9c8.8,3.2,13.4,12.9,10.2,21.7l-47.9,130.8c-1.6,4.2-4.7,7.6-8.8,9.5
					c-4.1,1.9-8.7,2.1-13,0.6l-89.1-32.3C6,163.9,1.4,154.2,4.6,145.4L52.5,14.6c1.6-4.2,4.7-7.6,8.8-9.5c4.1-1.9,8.7-2.1,13-0.6
					l47.3,17.1c0.8,0.3,1.6-0.1,1.9-0.9c0.3-0.8-0.1-1.6-0.9-1.9L75.3,1.7c-5-1.8-10.4-1.6-15.3,0.7c-4.8,2.2-8.5,6.2-10.3,11.2
					L1.8,144.4c-3.8,10.3,1.6,21.7,11.9,25.5l89.1,32.3C105.1,203,107.4,203.4,109.7,203.4"/>
			</g>
			<path class="st7" d="M363.7,222.5c0.6,0,1.2-0.4,1.4-1c0.3-0.8-0.1-1.6-0.9-1.9l-7.6-2.8c-0.8-0.3-1.6,0.1-1.9,0.9
				c-0.3,0.8,0.1,1.6,0.9,1.9l7.6,2.8C363.3,222.4,363.5,222.5,363.7,222.5 M330,338.5c0.6,0,1.2-0.4,1.4-1c0.3-0.8-0.1-1.6-0.9-1.9
				l-67.2-24.8c-0.8-0.3-1.6,0.1-1.9,0.9c-0.3,0.8,0.1,1.6,0.9,1.9l67.2,24.8C329.7,338.4,329.8,338.5,330,338.5 M325.2,350
				c0.6,0,1.2-0.4,1.4-1c0.3-0.8-0.1-1.6-0.9-1.9l-67.2-24.8c-0.8-0.3-1.6,0.1-1.9,0.9c-0.3,0.8,0.1,1.6,0.9,1.9l67.2,24.8
				C324.9,349.9,325,350,325.2,350 M321.4,361.5c0.6,0,1.2-0.4,1.4-1c0.3-0.8-0.1-1.6-0.9-1.9l-51.8-19c-0.8-0.3-1.6,0.1-1.9,0.9
				c-0.3,0.8,0.1,1.6,0.9,1.9l51.8,19C321,361.5,321.2,361.5,321.4,361.5"/>
			<polygon class="st8" points="319.6,317.4 335.3,323 332.8,329.8 317.1,324.2 			"/>
			<path class="st7" d="M356,277.1c0.6,0,1.2-0.4,1.4-1c0.3-0.8-0.1-1.6-0.9-1.9l-67.2-24.8c-0.8-0.3-1.6,0.1-1.9,0.9
				c-0.3,0.8,0.1,1.6,0.9,1.9l67.2,24.8C355.6,277.1,355.8,277.1,356,277.1 M352.1,288.6c0.6,0,1.2-0.4,1.4-1
				c0.3-0.8-0.1-1.6-0.9-1.9l-67.2-24.8c-0.8-0.3-1.6,0.1-1.9,0.9c-0.3,0.8,0.1,1.6,0.9,1.9l67.2,24.8
				C351.8,288.6,351.9,288.6,352.1,288.6 M348.3,300.1c0.6,0,1.2-0.4,1.4-1c0.3-0.8-0.1-1.6-0.9-1.9l-51.8-19
				c-0.8-0.3-1.6,0.1-1.9,0.9c-0.3,0.8,0.1,1.6,0.9,1.9l51.8,19C347.9,300.1,348.1,300.1,348.3,300.1"/>
			<polygon class="st8" points="346.5,256 362.3,261.7 359.7,268.5 344,262.8 			"/>
			<path class="st1" d="M155.1,193.8L66,226.2c-9.6,3.5-14.5,14.1-11,23.6L102.8,381c3.5,9.6,14.1,14.5,23.7,11l89.1-32.4
				c9.6-3.5,14.5-14.1,11-23.6l-47.8-131.2C175.3,195.3,164.7,190.4,155.1,193.8"/>
			<g transform="translate(51.888 191.768)">
				<defs>
					<filter id="Adobe_OpacityMaskFilter_3_" filterUnits="userSpaceOnUse" x="0.8" y="0.5" width="176.9" height="202.9">
						<feColorMatrix  type="matrix" values="1 0 0 0 0  0 1 0 0 0  0 0 1 0 0  0 0 0 1 0"/>
					</filter>
				</defs>
				<mask maskUnits="userSpaceOnUse" x="0.8" y="0.5" width="176.9" height="202.9" id="_x32_-chooseexam-h_1_">
					<g class="st9">
						<polygon id="_x32_-chooseexam-g_1_" class="st1" points="0.8,0.5 177.7,0.5 177.7,203.4 0.8,203.4 						"/>
					</g>
				</mask>
				<path class="st10" d="M68.6,203.4c2.3,0,4.6-0.4,6.8-1.2l89.1-32.3c10.3-3.7,15.7-15.2,11.9-25.5L128.7,13.6
					c-1.8-5-5.5-9-10.3-11.2c-4.8-2.2-10.3-2.5-15.3-0.7L14,34C3.6,37.7-1.7,49.1,2,59.4l31.7,86.7c0.3,0.8,1.1,1.2,1.9,0.9
					c0.8-0.3,1.2-1.1,0.9-1.9L4.8,58.4C1.6,49.7,6.2,39.9,15,36.7l89.1-32.3c4.3-1.5,8.9-1.3,13,0.6c4.1,1.9,7.2,5.3,8.8,9.5
					l47.9,130.8c3.2,8.8-1.4,18.5-10.2,21.7l-89.1,32.3c-4.3,1.5-8.9,1.3-13-0.6c-4.1-1.9-7.2-5.3-8.8-9.5l-9.3-25.5
					c-0.3-0.8-1.1-1.2-1.9-0.9c-0.8,0.3-1.2,1.1-0.9,1.9l9.3,25.5c1.8,5,5.5,9,10.3,11.2C62.9,202.7,65.8,203.4,68.6,203.4"/>
			</g>
			<path class="st7" d="M116.8,327c0.2,0,0.3,0,0.5-0.1l67.2-24.8c0.8-0.3,1.2-1.2,0.9-1.9c-0.3-0.8-1.1-1.2-1.9-0.9L116.3,324
				c-0.8,0.3-1.2,1.1-0.9,1.9C115.6,326.6,116.2,327,116.8,327 M120.6,338.5c0.2,0,0.3,0,0.5-0.1l67.2-24.8c0.8-0.3,1.2-1.2,0.9-1.9
				c-0.3-0.8-1.1-1.2-1.9-0.9l-67.2,24.8c-0.8,0.3-1.2,1.1-0.9,1.9C119.5,338.1,120,338.5,120.6,338.5 M140.8,344.2
				c0.2,0,0.3,0,0.5-0.1l51.8-19c0.8-0.3,1.2-1.1,0.9-1.9c-0.3-0.8-1.1-1.2-1.9-0.9l-51.8,19c-0.8,0.3-1.2,1.1-0.9,1.9
				C139.6,343.8,140.2,344.2,140.8,344.2"/>
			<polygon class="st8" points="163.4,292.3 179.1,286.7 181.6,293.5 165.9,299.2 			"/>
			<path class="st11" d="M142.3,255.1c2.9,8.2-1.4,17.3-9.7,20.2c-8.3,2.9-17.3-1.4-20.2-9.6c-2.9-8.2,1.4-17.3,9.7-20.2
				S139.3,246.8,142.3,255.1"/>
			<path class="st7" d="M112.3,246.3c-1.6,1.3-2.9,3-3.9,4.9c-1.7,3.5-1.9,7.4-0.6,11.1c1.3,3.7,3.9,6.6,7.4,8.2
				c3.5,1.7,7.4,1.9,11.1,0.6c3.7-1.3,6.6-3.9,8.3-7.4c1.7-3.5,1.9-7.4,0.6-11.1c-1.3-3.7-3.9-6.6-7.4-8.2
				c-3.5-1.7-7.4-1.9-11.1-0.6C115.1,244.4,113.6,245.2,112.3,246.3 M132.2,270.4c-1.5,1.2-3.2,2.2-5.1,2.9
				c-4.2,1.5-8.8,1.3-12.8-0.7c-4-1.9-7.1-5.3-8.6-9.5c-1.5-4.2-1.3-8.8,0.7-12.8c1.9-4,5.3-7.1,9.6-8.6c4.2-1.5,8.8-1.3,12.8,0.7
				c4.1,1.9,7.1,5.3,8.6,9.5c1.5,4.2,1.3,8.8-0.7,12.8C135.6,266.9,134.1,268.9,132.2,270.4 M164.9,280.1c-0.1,0.1-0.2,0.1-0.3,0.2
				l-55.4,19.8c-0.6,0.2-1.2-0.1-1.4-0.7c-0.2-0.6,0.1-1.3,0.7-1.5l55.4-19.8c0.6-0.2,1.2,0.1,1.4,0.7
				C165.4,279.3,165.2,279.8,164.9,280.1"/>
			<path class="st1" d="M147,187.6V381c0,5.1,4.2,9.2,9.3,9.2h140.9c5.1,0,9.3-4.1,9.3-9.2V213.6l-35.4-35.2H156.3
				C151.2,178.3,147,182.5,147,187.6"/>
			<polygon class="st12" points="272.9,213.8 304.6,245.5 304.6,216.1 			"/>
			<path class="st7" d="M305.1,286.7c0.8,0,1.4-0.7,1.4-1.5v-9.4c0-0.8-0.6-1.5-1.4-1.5s-1.4,0.7-1.4,1.5v9.4
				C303.6,286,304.3,286.7,305.1,286.7 M154.9,394.1h140.9c5.9,0,10.8-4.8,10.8-10.7v-74.1c0-0.8-0.7-1.5-1.5-1.5
				c-0.8,0-1.5,0.7-1.5,1.5v74.1c0,4.3-3.5,7.7-7.8,7.7H154.9c-4.3,0-7.8-3.5-7.8-7.7v-23.6c0-0.8-0.7-1.5-1.5-1.5s-1.5,0.7-1.5,1.5
				v23.6C144.1,389.3,149,394.1,154.9,394.1 M145.6,352.9c0.8,0,1.5-0.7,1.5-1.5V190c0-4.3,3.5-7.7,7.8-7.7H269l34.5,34.4v48.4
				c0,0.8,0.7,1.5,1.5,1.5c0.8,0,1.5-0.7,1.5-1.5V216c0-0.4-0.2-0.8-0.4-1l-35.4-35.2c-0.3-0.3-0.7-0.4-1.1-0.4H154.9
				c-5.9,0-10.8,4.8-10.8,10.7v161.4C144.1,352.2,144.8,352.9,145.6,352.9"/>
			<path class="st7" d="M271.1,184.4v22.5c0,4.3,3.5,7.8,7.8,7.8h22.6L271.1,184.4z M268.1,206.9v-26.1c0-0.6,0.4-1.1,0.9-1.4
				c0.6-0.2,1.2-0.1,1.6,0.3l35.4,35.4c0.4,0.4,0.6,1.1,0.3,1.6c-0.2,0.6-0.8,0.9-1.4,0.9h-26.2
				C272.9,217.7,268.1,212.8,268.1,206.9L268.1,206.9z"/>
			<defs>
				<filter id="Adobe_OpacityMaskFilter_4_" filterUnits="userSpaceOnUse" x="248.9" y="294.4" width="20.2" height="8.6">
					<feColorMatrix  type="matrix" values="1 0 0 0 0  0 1 0 0 0  0 0 1 0 0  0 0 0 1 0"/>
				</filter>
			</defs>
			<mask maskUnits="userSpaceOnUse" x="248.9" y="294.4" width="20.2" height="8.6" id="_x32_-chooseexam-j_1_">
				<g class="st13">
					<polygon id="_x32_-chooseexam-i_1_" class="st1" points="0,395 393,395 393,0 0,0 					"/>
				</g>
			</mask>
			<polygon class="st14" points="248.9,303 269,303 269,294.4 248.9,294.4 			"/>
			<defs>
				<filter id="Adobe_OpacityMaskFilter_5_" filterUnits="userSpaceOnUse" x="180.6" y="248.3" width="89.4" height="31.6">
					<feColorMatrix  type="matrix" values="1 0 0 0 0  0 1 0 0 0  0 0 1 0 0  0 0 0 1 0"/>
				</filter>
			</defs>
			<mask maskUnits="userSpaceOnUse" x="180.6" y="248.3" width="89.4" height="31.6" id="_x32_-chooseexam-j_2_">
				<g class="st15">
					<polygon id="_x32_-chooseexam-i_2_" class="st1" points="0,395 393,395 393,0 0,0 					"/>
				</g>
			</mask>
			<path class="st16" d="M182.1,251.2h86.4c0.8,0,1.5-0.6,1.5-1.4c0-0.8-0.7-1.4-1.5-1.4h-86.4c-0.8,0-1.5,0.6-1.5,1.4
				C180.6,250.6,181.3,251.2,182.1,251.2 M182.1,265.6h86.4c0.8,0,1.5-0.6,1.5-1.4c0-0.8-0.7-1.4-1.5-1.4h-86.4
				c-0.8,0-1.5,0.6-1.5,1.4C180.6,265,181.3,265.6,182.1,265.6 M202.3,280h66.2c0.8,0,1.5-0.6,1.5-1.4c0-0.8-0.7-1.4-1.5-1.4h-66.2
				c-0.8,0-1.5,0.6-1.5,1.4C200.8,279.3,201.5,280,202.3,280"/>
			<defs>
				<filter id="Adobe_OpacityMaskFilter_6_" filterUnits="userSpaceOnUse" x="248.9" y="232" width="20.2" height="8.6">
					<feColorMatrix  type="matrix" values="1 0 0 0 0  0 1 0 0 0  0 0 1 0 0  0 0 0 1 0"/>
				</filter>
			</defs>
			<mask maskUnits="userSpaceOnUse" x="248.9" y="232" width="20.2" height="8.6" id="_x32_-chooseexam-j_3_">
				<g class="st17">
					<polygon id="_x32_-chooseexam-i_3_" class="st1" points="0,395 393,395 393,0 0,0 					"/>
				</g>
			</mask>
			<polygon class="st18" points="248.9,240.7 269,240.7 269,232 248.9,232 			"/>
			<defs>
				<filter id="Adobe_OpacityMaskFilter_7_" filterUnits="userSpaceOnUse" x="184.5" y="324.1" width="84.6" height="52.7">
					<feColorMatrix  type="matrix" values="1 0 0 0 0  0 1 0 0 0  0 0 1 0 0  0 0 0 1 0"/>
				</filter>
			</defs>
			<mask maskUnits="userSpaceOnUse" x="184.5" y="324.1" width="84.6" height="52.7" id="_x32_-chooseexam-j_4_">
				<g class="st19">
					<polygon id="_x32_-chooseexam-i_4_" class="st1" points="0,395 393,395 393,0 0,0 					"/>
				</g>
			</mask>
			<polygon class="st20" points="184.5,376.8 269,376.8 269,324.1 184.5,324.1 			"/>
			<defs>
				<filter id="Adobe_OpacityMaskFilter_8_" filterUnits="userSpaceOnUse" x="175.8" y="316.4" width="87.4" height="55.6">
					<feColorMatrix  type="matrix" values="1 0 0 0 0  0 1 0 0 0  0 0 1 0 0  0 0 0 1 0"/>
				</filter>
			</defs>
			<mask maskUnits="userSpaceOnUse" x="175.8" y="316.4" width="87.4" height="55.6" id="_x32_-chooseexam-j_5_">
				<g class="st21">
					<polygon id="_x32_-chooseexam-i_5_" class="st1" points="0,395 393,395 393,0 0,0 					"/>
				</g>
			</mask>
			<path class="st22" d="M179,368.9h81.2v-49.4H179V368.9z M261.7,372h-84.3c-0.9,0-1.6-0.7-1.6-1.6V318c0-0.9,0.7-1.6,1.6-1.6h84.3
				c0.9,0,1.6,0.7,1.6,1.6v52.5C263.3,371.3,262.6,372,261.7,372L261.7,372z"/>
			<defs>
				<filter id="Adobe_OpacityMaskFilter_9_" filterUnits="userSpaceOnUse" x="200.8" y="341.3" width="59.6" height="31.6">
					<feColorMatrix  type="matrix" values="1 0 0 0 0  0 1 0 0 0  0 0 1 0 0  0 0 0 1 0"/>
				</filter>
			</defs>
			<mask maskUnits="userSpaceOnUse" x="200.8" y="341.3" width="59.6" height="31.6" id="_x32_-chooseexam-j_6_">
				<g class="st23">
					<polygon id="_x32_-chooseexam-i_6_" class="st1" points="0,395 393,395 393,0 0,0 					"/>
				</g>
			</mask>
			<path class="st24" d="M258.8,373c-0.4,0-0.8-0.2-1.1-0.5l-27.3-27.4l-26.9,27c-0.6,0.6-1.6,0.6-2.2,0c-0.6-0.6-0.6-1.6,0-2.2
				l28-28.1c0.6-0.6,1.6-0.6,2.2,0l28.4,28.5c0.6,0.6,0.6,1.6,0,2.2C259.6,372.8,259.2,373,258.8,373"/>
			<defs>
				<filter id="Adobe_OpacityMaskFilter_10_" filterUnits="userSpaceOnUse" x="182.6" y="321.2" width="80.7" height="26.8">
					<feColorMatrix  type="matrix" values="1 0 0 0 0  0 1 0 0 0  0 0 1 0 0  0 0 0 1 0"/>
				</filter>
			</defs>
			<mask maskUnits="userSpaceOnUse" x="182.6" y="321.2" width="80.7" height="26.8" id="_x32_-chooseexam-j_7_">
				<g class="st25">
					<polygon id="_x32_-chooseexam-i_7_" class="st1" points="0,395 393,395 393,0 0,0 					"/>
				</g>
			</mask>
			<path class="st26" d="M234.1,348.1c-0.4,0-0.8-0.2-1.1-0.5c-0.6-0.6-0.6-1.6,0-2.2l15-15c0.3-0.3,0.7-0.5,1.1-0.5
				c0.4,0,0.8,0.2,1.1,0.5l12.6,12.6c0.6,0.6,0.6,1.6,0,2.2c-0.6,0.6-1.6,0.6-2.2,0l-11.5-11.5l-13.9,13.9
				C234.9,347.9,234.5,348.1,234.1,348.1 M193.1,324.3c-4.1,0-7.4,3.3-7.4,7.4c0,4.1,3.3,7.4,7.4,7.4c4.1,0,7.4-3.3,7.4-7.4
				C200.6,327.7,197.2,324.3,193.1,324.3 M193.1,342.3c-5.8,0-10.6-4.7-10.6-10.5c0-5.8,4.7-10.5,10.6-10.5
				c5.8,0,10.6,4.7,10.6,10.5C203.7,337.6,199,342.3,193.1,342.3"/>
			<defs>
				<filter id="Adobe_OpacityMaskFilter_11_" filterUnits="userSpaceOnUse" x="92.2" y="1" width="60.5" height="64.2">
					<feColorMatrix  type="matrix" values="1 0 0 0 0  0 1 0 0 0  0 0 1 0 0  0 0 0 1 0"/>
				</filter>
			</defs>
			<mask maskUnits="userSpaceOnUse" x="92.2" y="1" width="60.5" height="64.2" id="_x32_-chooseexam-j_8_">
				<g class="st27">
					<polygon id="_x32_-chooseexam-i_8_" class="st1" points="0,395 393,395 393,0 0,0 					"/>
				</g>
			</mask>
			<path class="st28" d="M150.5,19.5C144,4,126-3.2,110.4,3.5C96.1,9.6,88.8,25.9,93.8,40.6c4.6,13.3,17.3,21.1,30.5,20.3
				c2.8-0.2,5.5,1.4,6.6,4l0.1,0.3l9.8-4l-0.1-0.1c-1.1-2.6-0.5-5.6,1.7-7.5C152,45.3,155.6,31.7,150.5,19.5"/>
			<defs>
				<filter id="Adobe_OpacityMaskFilter_12_" filterUnits="userSpaceOnUse" x="102.8" y="3.8" width="51.9" height="55.6">
					<feColorMatrix  type="matrix" values="1 0 0 0 0  0 1 0 0 0  0 0 1 0 0  0 0 0 1 0"/>
				</filter>
			</defs>
			<mask maskUnits="userSpaceOnUse" x="102.8" y="3.8" width="51.9" height="55.6" id="_x32_-chooseexam-j_9_">
				<g class="st29">
					<polygon id="_x32_-chooseexam-i_9_" class="st1" points="0,395 393,395 393,0 0,0 					"/>
				</g>
			</mask>
			<path class="st30" d="M152.7,19.9c-5.5-13.4-21-19.7-34.3-13.9c-12.3,5.3-18.5,19.5-14.2,32.1c3.9,11.5,14.9,18.3,26.1,17.6
				c2.4-0.1,4.7,1.2,5.7,3.4l0.1,0.2l8.4-3.5l-0.1-0.1c-0.9-2.2-0.4-4.9,1.4-6.5C154,42.2,157.1,30.4,152.7,19.9"/>
			<defs>
				<filter id="Adobe_OpacityMaskFilter_13_" filterUnits="userSpaceOnUse" x="68.2" y="35.5" width="63.4" height="30.7">
					<feColorMatrix  type="matrix" values="1 0 0 0 0  0 1 0 0 0  0 0 1 0 0  0 0 0 1 0"/>
				</filter>
			</defs>
			<mask maskUnits="userSpaceOnUse" x="68.2" y="35.5" width="63.4" height="30.7" id="_x32_-chooseexam-j_10_">
				<g class="st31">
					<polygon id="_x32_-chooseexam-i_10_" class="st1" points="0,395 393,395 393,0 0,0 					"/>
				</g>
			</mask>
			<path class="st32" d="M131.4,65.9c-0.1,0.1-0.2,0.1-0.2,0.2c-0.4,0.2-0.9,0-1.1-0.5l-0.1-0.3c-0.9-2.2-3.3-3.6-5.8-3.5
				c-10.7,0.6-21.1-4.3-27.3-12.8l-4.1,3.7c-0.3,0.3-0.9,0.3-1.2-0.1c-0.3-0.3-0.3-0.9,0.1-1.2l4.8-4.3C96.5,47,96.8,47,97,47
				c0.2,0,0.5,0.2,0.6,0.4c5.8,8.6,15.9,13.5,26.4,12.9c3.3-0.2,6.3,1.6,7.5,4.5l0.1,0.3C131.7,65.3,131.6,65.7,131.4,65.9
				 M95.8,45.1l-10.1,9.5c-0.3,0.3-0.9,0.3-1.2-0.1c-0.3-0.3-0.3-0.9,0.1-1.2l9.7-9.1c-0.5-1.1-0.9-2.1-1.3-3.3
				c-0.3-0.8-0.5-1.6-0.7-2.4c0-0.2-0.1-0.4-0.1-0.6L69.6,59.2c-0.3,0.3-0.9,0.3-1.2-0.1c-0.3-0.3-0.3-0.9,0.1-1.2l23.6-22.3
				c0.2-0.2,0.5-0.3,0.8-0.2c0.3,0.1,0.5,0.4,0.6,0.7c0.1,0.7,0.3,1.3,0.4,2c0.2,0.8,0.4,1.5,0.7,2.3c0.4,1.2,0.9,2.5,1.5,3.6
				C96.2,44.4,96.1,44.8,95.8,45.1"/>
			<defs>
				<filter id="Adobe_OpacityMaskFilter_14_" filterUnits="userSpaceOnUse" x="77.8" y="0" width="74.9" height="61.4">
					<feColorMatrix  type="matrix" values="1 0 0 0 0  0 1 0 0 0  0 0 1 0 0  0 0 0 1 0"/>
				</filter>
			</defs>
			<mask maskUnits="userSpaceOnUse" x="77.8" y="0" width="74.9" height="61.4" id="_x32_-chooseexam-j_11_">
				<g class="st33">
					<polygon id="_x32_-chooseexam-i_11_" class="st1" points="0,395 393,395 393,0 0,0 					"/>
				</g>
			</mask>
			<path class="st34" d="M140.6,61.2c-0.1,0.1-0.1,0.1-0.2,0.1c-0.4,0.2-0.9,0-1.1-0.4l-0.1-0.1c-1.2-3-0.5-6.4,1.9-8.4
				c9.5-8.2,12.5-21.4,7.7-32.8c-3-7.2-8.8-12.8-16.1-15.8c-7.3-2.9-15.4-2.8-22.7,0.3C101,8,94.4,16.5,92.8,26.4
				c0,0.2-0.1,0.4-0.3,0.5L79.2,38.9c-0.3,0.3-0.9,0.3-1.2-0.1c-0.3-0.3-0.3-0.9,0.1-1.2l13.1-11.9c1.7-10.3,8.6-19.1,18.2-23.2
				c7.7-3.3,16.2-3.4,24-0.3c7.8,3.1,13.8,9,17,16.7c5.1,12.1,1.9,26.1-8.2,34.7c0,0-0.1,0-0.1,0.1c-1.8,1.6-2.3,4.2-1.3,6.4
				C140.9,60.5,140.9,60.9,140.6,61.2"/>
			<defs>
				<filter id="Adobe_OpacityMaskFilter_15_" filterUnits="userSpaceOnUse" x="133.6" y="73.8" width="17.3" height="13.4">
					<feColorMatrix  type="matrix" values="1 0 0 0 0  0 1 0 0 0  0 0 1 0 0  0 0 0 1 0"/>
				</filter>
			</defs>
			<mask maskUnits="userSpaceOnUse" x="133.6" y="73.8" width="17.3" height="13.4" id="_x32_-chooseexam-j_12_">
				<g class="st35">
					<polygon id="_x32_-chooseexam-i_12_" class="st1" points="0,395 393,395 393,0 0,0 					"/>
				</g>
			</mask>
			<path class="st36" d="M145.5,86.6L145.5,86.6c-4.4,1.8-9.4-0.3-11.3-4.6l-0.7-1.7l15.9-6.5l0.7,1.7
				C152,79.8,149.9,84.8,145.5,86.6"/>
			<defs>
				<filter id="Adobe_OpacityMaskFilter_16_" filterUnits="userSpaceOnUse" x="132.6" y="72.9" width="18.3" height="15.3">
					<feColorMatrix  type="matrix" values="1 0 0 0 0  0 1 0 0 0  0 0 1 0 0  0 0 0 1 0"/>
				</filter>
			</defs>
			<mask maskUnits="userSpaceOnUse" x="132.6" y="72.9" width="18.3" height="15.3" id="_x32_-chooseexam-j_13_">
				<g class="st37">
					<polygon id="_x32_-chooseexam-i_13_" class="st1" points="0,395 393,395 393,0 0,0 					"/>
				</g>
			</mask>
			<path class="st38" d="M134.5,80.8l0.4,0.9c1.6,4,5.9,5.8,9.7,4.2c3.8-1.6,5.6-6.2,4-10.1l-0.4-0.9L134.5,80.8z M147.9,85.7
				c-0.8,0.7-1.7,1.3-2.7,1.8c-2.2,1-4.7,1-7,0c-2.2-1-4-2.8-4.9-5.1l-0.7-1.7c-0.2-0.4,0-0.9,0.4-1.1l15.3-6.6
				c0.2-0.1,0.4-0.1,0.6,0c0.2,0.1,0.4,0.3,0.4,0.5l0.7,1.7C151.7,78.9,150.6,83.1,147.9,85.7L147.9,85.7z"/>
			<defs>
				<filter id="Adobe_OpacityMaskFilter_17_" filterUnits="userSpaceOnUse" x="99.9" y="29.7" width="52.8" height="50.8">
					<feColorMatrix  type="matrix" values="1 0 0 0 0  0 1 0 0 0  0 0 1 0 0  0 0 0 1 0"/>
				</filter>
			</defs>
			<mask maskUnits="userSpaceOnUse" x="99.9" y="29.7" width="52.8" height="50.8" id="_x32_-chooseexam-j_14_">
				<g class="st39">
					<polygon id="_x32_-chooseexam-i_14_" class="st1" points="0,395 393,395 393,0 0,0 					"/>
				</g>
			</mask>
			<path class="st40" d="M149.5,73.8c-0.2,0.2-0.4,0.2-0.6,0.2c-0.5,0-0.8-0.4-0.8-0.9l2.9-40.5c-13.1,12.2-30,19.2-48,19.8
				l30.8,26.6c0.4,0.3,0.4,0.8,0.1,1.2c-0.3,0.3-0.8,0.4-1.2,0.1l-32.4-28c-0.3-0.2-0.4-0.6-0.2-0.9c0.1-0.3,0.4-0.5,0.8-0.5
				c19.1-0.1,37-7.5,50.6-20.9c0.2-0.2,0.6-0.3,0.9-0.2c0.3,0.1,0.5,0.5,0.5,0.8l-3,42.7C149.7,73.5,149.6,73.7,149.5,73.8"/>
			<defs>
				<filter id="Adobe_OpacityMaskFilter_18_" filterUnits="userSpaceOnUse" x="127.8" y="57.5" width="12.5" height="5.8">
					<feColorMatrix  type="matrix" values="1 0 0 0 0  0 1 0 0 0  0 0 1 0 0  0 0 0 1 0"/>
				</filter>
			</defs>
			<mask maskUnits="userSpaceOnUse" x="127.8" y="57.5" width="12.5" height="5.8" id="_x32_-chooseexam-j_15_">
				<g class="st41">
					<polygon id="_x32_-chooseexam-i_15_" class="st1" points="0,395 393,395 393,0 0,0 					"/>
				</g>
			</mask>
			<path class="st42" d="M140,58.9c-0.1,0.1-0.2,0.1-0.2,0.1l-10.8,4.2c-0.4,0.2-0.9,0-1.1-0.4c-0.2-0.4,0-0.8,0.4-1l10.8-4.2
				c0.4-0.2,0.9,0,1.1,0.4C140.4,58.3,140.3,58.7,140,58.9"/>
			<defs>
				<filter id="Adobe_OpacityMaskFilter_19_" filterUnits="userSpaceOnUse" x="133.6" y="63.3" width="8.6" height="11.5">
					<feColorMatrix  type="matrix" values="1 0 0 0 0  0 1 0 0 0  0 0 1 0 0  0 0 0 1 0"/>
				</filter>
			</defs>
			<mask maskUnits="userSpaceOnUse" x="133.6" y="63.3" width="8.6" height="11.5" id="_x32_-chooseexam-j_16_">
				<g class="st43">
					<polygon id="_x32_-chooseexam-i_16_" class="st1" points="0,395 393,395 393,0 0,0 					"/>
				</g>
			</mask>
			<path class="st44" d="M133.6,63.8c0.9,0.5,1.8,1.3,2.4,2.3c0.7,1.3,0.4,3.1-0.3,4.7c-1.1,2.7,2.2,5.2,4.4,3.3
				c0,0,0.1-0.1,0.1-0.1c1.8-1.6,2.5-4.3,1.7-6.6C140.7,63.9,136.8,62.4,133.6,63.8"/>
			<defs>
				<filter id="Adobe_OpacityMaskFilter_20_" filterUnits="userSpaceOnUse" x="133.6" y="63.3" width="9.6" height="12.5">
					<feColorMatrix  type="matrix" values="1 0 0 0 0  0 1 0 0 0  0 0 1 0 0  0 0 0 1 0"/>
				</filter>
			</defs>
			<mask maskUnits="userSpaceOnUse" x="133.6" y="63.3" width="9.6" height="12.5" id="_x32_-chooseexam-j_17_">
				<g class="st45">
					<polygon id="_x32_-chooseexam-i_17_" class="st1" points="0,395 393,395 393,0 0,0 					"/>
				</g>
			</mask>
			<path class="st46" d="M136.1,64.9c0.4,0.4,0.8,0.9,1.1,1.4c0.7,1.3,0.7,3-0.2,5.1c-0.4,1,0.1,1.8,0.7,2.3
				c0.5,0.4,1.4,0.6,2.1-0.1c0,0,0.1,0,0.1-0.1c1.4-1.3,2-3.5,1.4-5.3c-0.5-1.4-1.4-2.4-2.7-3C137.9,65,137,64.9,136.1,64.9
				 M141.1,74.8C141.1,74.8,141,74.8,141.1,74.8c-1.4,1.2-3,1.3-4.3,0.3c-1.3-1-1.8-2.7-1.2-4.2c0.4-1.1,0.9-2.7,0.3-3.7
				c-0.4-0.8-1.1-1.4-1.9-1.9c-0.3-0.2-0.4-0.4-0.4-0.8c0-0.3,0.2-0.6,0.5-0.7c1.7-0.8,3.6-0.8,5.3,0c1.7,0.7,2.9,2.2,3.5,4
				C143.7,70.2,143,73,141.1,74.8"/>
			<defs>
				<filter id="Adobe_OpacityMaskFilter_21_" filterUnits="userSpaceOnUse" x="104.7" y="8.6" width="18.3" height="27.8">
					<feColorMatrix  type="matrix" values="1 0 0 0 0  0 1 0 0 0  0 0 1 0 0  0 0 0 1 0"/>
				</filter>
			</defs>
			<mask maskUnits="userSpaceOnUse" x="104.7" y="8.6" width="18.3" height="27.8" id="_x32_-chooseexam-j_18_">
				<g class="st47">
					<polygon id="_x32_-chooseexam-i_18_" class="st1" points="0,395 393,395 393,0 0,0 					"/>
				</g>
			</mask>
			<path class="st48" d="M120.6,11.6c3.4,3.7,3.2,9.5-0.6,12.9s-9.5,3.1-12.9-0.6c-3.4-3.7-3.2-9.5,0.6-12.9
				C111.4,7.6,117.2,7.9,120.6,11.6 M112.4,30c1.4,1.6,1.3,4-0.2,5.4c-1.6,1.4-4,1.3-5.4-0.2c-1.4-1.6-1.3-4,0.2-5.4
				C108.5,28.3,110.9,28.4,112.4,30"/>
			<defs>
				<filter id="Adobe_OpacityMaskFilter_22_" filterUnits="userSpaceOnUse" x="1" y="247.4" width="23.1" height="18.2">
					<feColorMatrix  type="matrix" values="1 0 0 0 0  0 1 0 0 0  0 0 1 0 0  0 0 0 1 0"/>
				</filter>
			</defs>
			<mask maskUnits="userSpaceOnUse" x="1" y="247.4" width="23.1" height="18.2" id="_x32_-chooseexam-j_19_">
				<g class="st49">
					<polygon id="_x32_-chooseexam-i_19_" class="st1" points="0,395 393,395 393,0 0,0 					"/>
				</g>
			</mask>
			<polygon class="st50" points="21.2,249 15.1,247.4 11.2,253.1 4.5,251.2 1,256.4 7.6,258.3 3.8,263.9 9.9,265.6 13.8,259.9 
				20.5,261.7 24,256.5 17.3,254.7 			"/>
			<defs>
				<filter id="Adobe_OpacityMaskFilter_23_" filterUnits="userSpaceOnUse" x="3.8" y="248.3" width="23.1" height="18.2">
					<feColorMatrix  type="matrix" values="1 0 0 0 0  0 1 0 0 0  0 0 1 0 0  0 0 0 1 0"/>
				</filter>
			</defs>
			<mask maskUnits="userSpaceOnUse" x="3.8" y="248.3" width="23.1" height="18.2" id="_x32_-chooseexam-j_20_">
				<g class="st51">
					<polygon id="_x32_-chooseexam-i_20_" class="st1" points="0,395 393,395 393,0 0,0 					"/>
				</g>
			</mask>
			<polygon class="st52" points="24.1,250 18,248.3 14.1,254 7.4,252.2 3.8,257.4 10.5,259.2 6.6,264.9 12.8,266.6 16.7,260.9 
				23.3,262.7 26.9,257.5 20.2,255.7 			"/>
			<defs>
				<filter id="Adobe_OpacityMaskFilter_24_" filterUnits="userSpaceOnUse" x="0" y="85.3" width="186.4" height="203.3">
					<feColorMatrix  type="matrix" values="1 0 0 0 0  0 1 0 0 0  0 0 1 0 0  0 0 0 1 0"/>
				</filter>
			</defs>
			<mask maskUnits="userSpaceOnUse" x="0" y="85.3" width="186.4" height="203.3" id="_x32_-chooseexam-j_21_">
				<g class="st53">
					<polygon id="_x32_-chooseexam-i_21_" class="st1" points="0,395 393,395 393,0 0,0 					"/>
				</g>
			</mask>
			<path class="st54" d="M4.6,263.8l4.6,1.2l3.5-5.1c0.2-0.2,0.5-0.4,0.8-0.3l6.1,1.6l2.7-3.9l-5.6-1.5c-0.2-0.1-0.4-0.2-0.5-0.4
				c-0.1-0.2,0-0.4,0.1-0.6l3.3-4.8l-4.6-1.2l-3.5,5.1c-0.2,0.2-0.5,0.4-0.8,0.3l-6.1-1.6l-2.7,3.9l5.6,1.5c0.2,0.1,0.4,0.2,0.5,0.4
				c0.1,0.2,0,0.4-0.1,0.6L4.6,263.8z M9.5,266.6c-0.1,0-0.1,0-0.2,0l-6-1.6c-0.2-0.1-0.4-0.2-0.5-0.4c-0.1-0.2-0.1-0.4,0.1-0.6
				l3.3-4.8l-5.6-1.5c-0.2-0.1-0.4-0.2-0.5-0.4c-0.1-0.2,0-0.4,0.1-0.6l3.5-5.1c0.2-0.2,0.5-0.3,0.8-0.3l6.1,1.6l3.5-5.1
				c0.2-0.2,0.5-0.3,0.8-0.3l6,1.6c0.2,0.1,0.4,0.2,0.5,0.4c0.1,0.2,0,0.4-0.1,0.6l-3.3,4.8l5.6,1.5c0.2,0.1,0.4,0.2,0.5,0.4
				c0.1,0.2,0,0.4-0.1,0.6l-3.5,5.1c-0.2,0.2-0.5,0.4-0.8,0.3l-6.1-1.6l-3.5,5.1C9.9,266.4,9.7,266.6,9.5,266.6L9.5,266.6z
				 M126.4,92.1c-0.1,0.5-0.7,0.9-1.4,0.9c-0.7-0.1-1.2-0.6-1.1-1.2c0.5-3.8,1.4-5.7,1.4-5.8c0.3-0.6,1-0.8,1.7-0.6
				c0.6,0.3,0.9,0.9,0.6,1.5c0,0-0.8,1.7-1.2,5.1C126.4,92.1,126.4,92.1,126.4,92.1 M128.8,115.4c-0.1,0.4-0.4,0.8-0.8,0.9
				c-0.6,0.2-1.3-0.2-1.4-0.8c-1-4-1.8-7.9-2.2-11.6c-0.1-0.6,0.4-1.2,1-1.3c0.6-0.1,1.2,0.4,1.3,1c0.4,3.5,1.1,7.3,2.2,11.3
				C128.8,115.1,128.8,115.3,128.8,115.4 M129.9,142c-0.1,0.4-0.5,0.8-0.9,0.9c-0.6,0.1-1.2-0.3-1.4-0.9c-0.8-4.1-0.9-8.1-0.4-11.9
				c0.1-0.6,0.7-1.1,1.3-1c0.6,0.1,1.1,0.7,1,1.3c-0.5,3.6-0.4,7.3,0.4,11.2C129.9,141.7,129.9,141.9,129.9,142 M141,111
				c-0.1,0.3-0.2,0.5-0.5,0.7c-3,2-5.5,4.8-7.5,8.1c-0.3,0.6-1,0.7-1.6,0.4c-0.6-0.3-0.8-1-0.4-1.6c2.1-3.6,4.9-6.7,8.2-8.9
				c0.5-0.4,1.3-0.2,1.6,0.3C141.1,110.4,141.1,110.7,141,111 M138.8,136c0,0.2-0.1,0.3-0.2,0.4c-0.4,0.5-1.1,0.6-1.6,0.2
				c-2.7-2-5.1-5.4-6.9-10c-0.2-0.6,0-1.3,0.6-1.5c0.6-0.2,1.3,0,1.5,0.6c1.7,4.2,3.8,7.2,6.1,9C138.8,135.1,138.9,135.6,138.8,136
				 M138.9,163.3c-0.1,0.3-0.2,0.5-0.5,0.7c-0.5,0.3-1.3,0.2-1.6-0.3c-2.3-3.5-4.2-7-5.7-10.4c-0.3-0.6,0-1.3,0.6-1.5
				c0.6-0.3,1.3,0,1.5,0.6c1.4,3.3,3.3,6.7,5.5,10C139,162.7,139,163,138.9,163.3 M159,116.8c-0.1,0.4-0.4,0.8-0.9,0.9
				c-0.6,0.1-1.3-0.3-1.4-0.9c-0.6-2.7-2-5-4.2-6.8c-0.5-0.4-1.2-0.8-2-1c-0.6-0.2-1-0.8-0.8-1.4c0.2-0.6,0.8-1,1.4-0.8
				c1.1,0.3,2,0.8,2.9,1.4c2.6,2.1,4.3,4.9,5,8.1C159.1,116.5,159.1,116.7,159,116.8 M127.5,255.7c0,0.1-0.1,0.3-0.2,0.4
				c-1.2,1.8-2.1,3.8-2.6,5.9c0,0,0,0,0,0c-0.3,1.4-0.5,2.9-0.4,4.4c0,0.6-0.5,1.2-1.1,1.2c-0.6,0-1.2-0.5-1.2-1.1
				c0-1.7,0.1-3.3,0.5-4.9c0,0,0,0,0,0c0.5-2.4,1.5-4.6,2.9-6.7c0.4-0.5,1.1-0.7,1.6-0.3C127.5,254.8,127.6,255.3,127.5,255.7
				 M157.4,128.2c0,0.1,0,0.2-0.1,0.2c-1.9,4-4.8,7.3-8.2,9.1c-0.6,0.3-1.3,0.1-1.6-0.5c-0.3-0.6-0.1-1.3,0.5-1.6
				c2.9-1.6,5.5-4.5,7.2-8c0.3-0.6,1-0.8,1.6-0.6C157.3,127.1,157.6,127.6,157.4,128.2 M152.9,182c-0.1,0.3-0.2,0.5-0.5,0.7
				c-0.5,0.4-1.3,0.3-1.6-0.3c-2.2-3.1-4.6-6.2-7-9.3c-0.4-0.5-0.3-1.2,0.2-1.6c0.5-0.4,1.2-0.3,1.6,0.2c2.4,3.1,4.8,6.2,7.1,9.3
				C152.9,181.3,153,181.6,152.9,182 M137.1,284.8c0,0.1,0,0.2-0.1,0.2c-0.3,0.6-1,0.8-1.6,0.6c-3.9-1.8-7.1-4.4-9.5-7.6
				c-0.4-0.5-0.3-1.3,0.3-1.6c0.5-0.4,1.3-0.3,1.6,0.3c2.1,2.9,5,5.2,8.5,6.8C137,283.7,137.2,284.2,137.1,284.8 M165.7,201.4
				c-0.1,0.3-0.3,0.6-0.5,0.7c-0.6,0.3-1.3,0.1-1.6-0.4c-1.9-3.2-4-6.5-6.2-9.8c-0.4-0.5-0.2-1.3,0.3-1.6c0.5-0.4,1.3-0.2,1.6,0.3
				c2.2,3.3,4.3,6.6,6.2,9.9C165.8,200.8,165.8,201.1,165.7,201.4 M160,287c-0.1,0.5-0.5,0.8-1,0.9c-4.2,0.7-8.2,0.8-11.9,0.5
				c-0.6-0.1-1.1-0.6-1.1-1.3c0.1-0.6,0.6-1.1,1.3-1.1c3.5,0.3,7.3,0.1,11.4-0.5c0.6-0.1,1.2,0.3,1.3,1C160,286.7,160,286.9,160,287
				 M176.6,222c-0.1,0.3-0.3,0.6-0.7,0.8c-0.6,0.3-1.3,0-1.5-0.6c-1.5-3.4-3.3-6.9-5.1-10.4c-0.3-0.6-0.1-1.3,0.5-1.6
				c0.6-0.3,1.3-0.1,1.6,0.5c1.9,3.5,3.6,7.1,5.2,10.5C176.6,221.5,176.6,221.8,176.6,222 M184.4,243.9c-0.1,0.4-0.4,0.8-0.9,0.9
				c-0.6,0.1-1.3-0.2-1.4-0.9c-0.8-3.5-2-7.2-3.4-11c-0.2-0.6,0.1-1.3,0.7-1.5c0.6-0.2,1.3,0.1,1.5,0.7c1.4,3.9,2.6,7.7,3.4,11.3
				C184.4,243.6,184.4,243.8,184.4,243.9 M180.7,277.4c0,0.2-0.1,0.3-0.2,0.5c-2.5,3-5.8,5.4-9.8,7.1c-0.6,0.2-1.3,0-1.5-0.6
				c-0.2-0.6,0-1.3,0.6-1.5c3.7-1.5,6.7-3.7,8.9-6.4c0.4-0.5,1.1-0.6,1.6-0.2C180.6,276.5,180.8,277,180.7,277.4 M185.6,267
				c-0.1,0.6-0.8,1-1.4,0.9c-0.6-0.1-1-0.8-0.9-1.4c0.7-3.3,1-7.1,0.7-11.2c0-0.6,0.4-1.2,1.1-1.2c0.6,0,1.2,0.4,1.2,1.1
				C186.6,259.4,186.4,263.4,185.6,267C185.6,267,185.6,267,185.6,267 M142.2,246.7c-0.1,0.4-0.4,0.7-0.8,0.8
				c-1.9,0.4-3.6,1-5.2,1.7c-0.6,0.2-1.3,0-1.5-0.5c-0.3-0.5,0-1.1,0.5-1.4c1.7-0.7,3.6-1.4,5.6-1.8c0.6-0.1,1.2,0.2,1.4,0.8
				C142.2,246.4,142.2,246.6,142.2,246.7"/>
			<defs>
				<filter id="Adobe_OpacityMaskFilter_25_" filterUnits="userSpaceOnUse" x="17.3" y="119.9" width="267.1" height="179.3">
					<feColorMatrix  type="matrix" values="1 0 0 0 0  0 1 0 0 0  0 0 1 0 0  0 0 0 1 0"/>
				</filter>
			</defs>
			<mask maskUnits="userSpaceOnUse" x="17.3" y="119.9" width="267.1" height="179.3" id="_x32_-chooseexam-j_22_">
				<g class="st55">
					<polygon id="_x32_-chooseexam-i_22_" class="st1" points="0,395 393,395 393,0 0,0 					"/>
				</g>
			</mask>
			<path class="st56" d="M71.2,232.3c-0.3-0.6-0.1-1.3,0.5-1.7c0.6-0.4,1.5-0.3,1.9,0.3c0.9,1.2,1.6,2.5,2.3,3.8
				c0.4,0.7,0.1,1.5-0.6,1.9c-0.7,0.3-1.5,0.1-1.9-0.6c-0.6-1.2-1.3-2.3-2-3.4C71.3,232.4,71.3,232.3,71.2,232.3 M76.4,248
				c-0.1-0.2-0.1-0.3-0.1-0.5c-0.1-1.4-0.2-2.7-0.5-4c-0.1-0.8,0.4-1.5,1.1-1.6c0.8-0.1,1.5,0.4,1.6,1.1c0.2,1.4,0.4,2.8,0.5,4.3
				c0,0.8-0.5,1.4-1.3,1.5C77.2,248.8,76.6,248.5,76.4,248 M62.3,223.6c-0.2-0.4-0.2-1,0.1-1.4c0.5-0.6,1.3-0.8,1.9-0.3
				c1.2,0.9,2.3,1.8,3.4,2.7c0.6,0.5,0.7,1.4,0.1,2c-0.5,0.6-1.4,0.7-2,0.1c-1-0.8-2-1.7-3.2-2.5C62.5,224,62.4,223.8,62.3,223.6
				 M93.2,297.2c-0.1-0.3-0.2-0.7-0.1-1c0.2-0.7,1-1.1,1.8-0.9c2.3,0.8,3.8,1.1,3.8,1.1c0.8,0.1,1.3,0.9,1.1,1.6
				c-0.1,0.8-0.9,1.3-1.6,1.1c-0.1,0-1.8-0.3-4.2-1.2C93.7,297.9,93.4,297.6,93.2,297.2 M75.8,260.5c-0.1-0.2-0.1-0.5-0.1-0.8
				c0.2-1.4,0.3-2.8,0.5-4.1c0.1-0.8,0.7-1.3,1.5-1.3c0.8,0.1,1.3,0.7,1.3,1.5c-0.1,1.3-0.3,2.8-0.5,4.2c-0.1,0.8-0.8,1.3-1.6,1.2
				C76.4,261.2,76,260.9,75.8,260.5 M51.2,217.8c-0.1-0.3-0.2-0.6-0.1-0.9c0.2-0.7,1-1.2,1.7-1c1.4,0.4,2.8,0.9,4.1,1.5
				c0.7,0.3,1,1.1,0.7,1.8c-0.3,0.7-1.1,1-1.8,0.7c-1.2-0.5-2.5-1-3.7-1.3C51.7,218.5,51.4,218.2,51.2,217.8 M74,272.9
				c-0.1-0.2-0.1-0.4-0.1-0.6c0-1.4,0.2-2.9,0.4-4.4c0.1-0.8,0.8-1.3,1.6-1.1c0.8,0.1,1.3,0.8,1.1,1.6c-0.2,1.4-0.4,2.7-0.4,4
				c0,0.8-0.7,1.4-1.4,1.4C74.7,273.7,74.2,273.4,74,272.9 M82.3,291.3c-0.2-0.5-0.2-1,0.2-1.5c0.5-0.6,1.4-0.7,2-0.2
				c1,0.8,2.1,1.6,3.2,2.3c0.7,0.4,0.9,1.3,0.5,1.9c-0.4,0.7-1.3,0.9-1.9,0.5c-1.3-0.8-2.5-1.6-3.6-2.5
				C82.5,291.6,82.3,291.5,82.3,291.3 M75.9,283.1c-0.3-0.7-0.6-1.4-0.8-2.1c-0.2-0.7,0.1-1.5,0.9-1.8c0.7-0.2,1.5,0.1,1.8,0.9
				c0.4,1.2,1,2.4,1.6,3.6c0.4,0.7,0.2,1.5-0.5,1.9s-1.5,0.2-1.9-0.5C76.5,284.5,76.2,283.8,75.9,283.1 M38.8,217.1
				c-0.1-0.1-0.1-0.2-0.1-0.4c-0.1-0.8,0.4-1.5,1.2-1.6c1.4-0.2,2.9-0.4,4.4-0.4c0.8,0,1.4,0.6,1.4,1.4c0,0.8-0.6,1.4-1.4,1.4
				c-1.3,0-2.7,0.1-4,0.3C39.6,218,39,217.7,38.8,217.1 M27.3,221.8c-0.3-0.6-0.1-1.3,0.5-1.7c1.2-0.9,2.4-1.6,3.8-2.3
				c0.7-0.3,1.5-0.1,1.9,0.6c0.4,0.7,0.1,1.5-0.6,1.9c-1.2,0.6-2.3,1.3-3.4,2c-0.6,0.5-1.5,0.3-1.9-0.3
				C27.4,222,27.3,221.9,27.3,221.8 M19.5,231.5c-0.2-0.3-0.2-0.8,0-1.1c0.6-1.4,1.3-2.7,2.1-3.9c0.4-0.6,1.3-0.8,1.9-0.4
				c0.6,0.4,0.8,1.3,0.4,1.9c-0.7,1.1-1.4,2.2-1.9,3.5c-0.3,0.7-1.1,1-1.8,0.7C19.9,232,19.6,231.8,19.5,231.5 M17.4,240.5
				c-0.1-0.2-0.1-0.4-0.1-0.7c0-0.3,0-0.7,0.1-1c0.1-0.8,0.7-1.3,1.5-1.3c0.8,0.1,1.3,0.7,1.3,1.5c0,0.3-0.1,0.6-0.1,0.9
				c0,0.8-0.7,1.4-1.5,1.3C18.1,241.3,17.6,241,17.4,240.5 M282.7,126c-0.6-0.2-0.9-0.7-0.9-1.3c0.2-2.2,0.2-3.6,0.2-3.6
				c0-0.7,0.6-1.2,1.2-1.2c0.7,0,1.2,0.6,1.2,1.2c0,0.1,0,1.5-0.2,3.8c-0.1,0.7-0.6,1.2-1.3,1.1C282.8,126,282.7,126,282.7,126
				 M280.8,136.8c-0.6-0.2-1-0.8-0.9-1.5c0.3-1.1,0.6-2.3,0.8-3.5c0.1-0.7,0.8-1.1,1.4-1c0.7,0.1,1.1,0.8,1,1.4
				c-0.3,1.3-0.5,2.5-0.9,3.6C282.1,136.6,281.4,137,280.8,136.8 M276,146.7c-0.2,0-0.3-0.1-0.5-0.3c-0.5-0.4-0.6-1.2-0.1-1.7
				c0.7-0.8,1.3-1.8,1.9-2.8c0.3-0.6,1.1-0.8,1.7-0.5c0.6,0.3,0.8,1.1,0.5,1.7c-0.7,1.2-1.4,2.3-2.2,3.2
				C276.9,146.7,276.4,146.8,276,146.7 M266.3,150.8c-0.6-0.2-0.9-0.7-0.9-1.3c0.1-0.7,0.6-1.2,1.3-1.1c1.2,0.1,2.3,0,3.2-0.2
				c0.7-0.2,1.3,0.3,1.5,0.9c0.2,0.7-0.3,1.3-0.9,1.5c-1.2,0.3-2.5,0.4-4,0.3C266.5,150.9,266.4,150.8,266.3,150.8 M255.5,149
				c-0.5-0.1-0.9-0.6-0.9-1.2c0-0.7,0.6-1.2,1.2-1.2c1.2,0,2.4,0.2,3.8,0.4c0.7,0.1,1.1,0.8,1,1.4c-0.1,0.7-0.8,1.1-1.4,1
				c-1.3-0.2-2.4-0.4-3.4-0.4C255.7,149.1,255.6,149.1,255.5,149 M245.4,152.7c-0.2-0.1-0.5-0.2-0.6-0.4c-0.4-0.5-0.3-1.3,0.2-1.7
				c1.1-0.8,2.2-1.6,3.2-2.1c0.6-0.3,1.3-0.1,1.6,0.5c0.3,0.6,0.1,1.3-0.5,1.7c-0.9,0.5-1.9,1.1-2.9,1.9
				C246.2,152.7,245.8,152.8,245.4,152.7 M238.1,160.9c-0.1,0-0.3-0.1-0.4-0.2c-0.6-0.4-0.7-1.2-0.3-1.7c0.7-1.1,1.5-2.1,2.2-3
				c0.4-0.5,1.2-0.6,1.7-0.2c0.5,0.4,0.6,1.2,0.2,1.7c-0.7,0.9-1.4,1.9-2.1,2.9C239.2,160.8,238.6,161,238.1,160.9 M232.5,170.3
				c-0.1,0-0.2-0.1-0.2-0.1c-0.6-0.3-0.8-1.1-0.5-1.7c0.6-1.1,1.2-2.2,1.8-3.3c0.3-0.6,1.1-0.8,1.7-0.5c0.6,0.3,0.8,1.1,0.5,1.7
				c-0.6,1-1.2,2.1-1.7,3.2C233.6,170.2,233,170.4,232.5,170.3 M227.7,180.2c-0.1,0-0.1,0-0.2-0.1c-0.6-0.3-0.9-1-0.6-1.6
				c0.5-1.2,1-2.3,1.5-3.4c0.3-0.6,1-0.9,1.6-0.6c0.6,0.3,0.9,1,0.6,1.6c-0.5,1.1-1,2.2-1.5,3.3
				C228.8,180.1,228.2,180.4,227.7,180.2"/>
			<defs>
				<filter id="Adobe_OpacityMaskFilter_26_" filterUnits="userSpaceOnUse" x="276.7" y="87.3" width="25.9" height="25.9">
					<feColorMatrix  type="matrix" values="1 0 0 0 0  0 1 0 0 0  0 0 1 0 0  0 0 0 1 0"/>
				</filter>
			</defs>
			<mask maskUnits="userSpaceOnUse" x="276.7" y="87.3" width="25.9" height="25.9" id="_x32_-chooseexam-j_23_">
				<g class="st57">
					<polygon id="_x32_-chooseexam-i_23_" class="st1" points="0,395 393,395 393,0 0,0 					"/>
				</g>
			</mask>
			<path class="st58" d="M302.6,99.2c0.5,7.1-4.8,13.3-12,13.9c-7.1,0.5-13.4-4.8-13.9-12c-0.5-7.1,4.8-13.3,12-13.9
				C295.9,86.8,302.1,92.1,302.6,99.2"/>
			<defs>
				<filter id="Adobe_OpacityMaskFilter_27_" filterUnits="userSpaceOnUse" x="271.9" y="88.2" width="27.9" height="24">
					<feColorMatrix  type="matrix" values="1 0 0 0 0  0 1 0 0 0  0 0 1 0 0  0 0 0 1 0"/>
				</filter>
			</defs>
			<mask maskUnits="userSpaceOnUse" x="271.9" y="88.2" width="27.9" height="24" id="_x32_-chooseexam-j_24_">
				<g class="st59">
					<polygon id="_x32_-chooseexam-i_24_" class="st1" points="0,395 393,395 393,0 0,0 					"/>
				</g>
			</mask>
			<path class="st60" d="M282.1,111.7c-5.5-1.6-9.7-6.5-10.1-12.5c0-0.6,0.4-1.2,1-1.2c0.6,0,1.2,0.4,1.2,1.1c0.2,3.1,1.7,6,4,8.1
				c2.4,2.1,5.4,3.1,8.5,2.8c6.4-0.5,11.3-6.1,10.8-12.6c-0.2-2.7-1.2-5.1-3-7.1c-0.4-0.5-0.4-1.2,0.1-1.6c0.5-0.4,1.2-0.4,1.6,0.1
				c2.1,2.4,3.4,5.3,3.6,8.5c0.6,7.7-5.2,14.5-12.9,15.1C285.2,112.3,283.6,112.1,282.1,111.7"/>
			<defs>
				<filter id="Adobe_OpacityMaskFilter_28_" filterUnits="userSpaceOnUse" x="277.7" y="78.6" width="25" height="25.9">
					<feColorMatrix  type="matrix" values="1 0 0 0 0  0 1 0 0 0  0 0 1 0 0  0 0 0 1 0"/>
				</filter>
			</defs>
			<mask maskUnits="userSpaceOnUse" x="277.7" y="78.6" width="25" height="25.9" id="_x32_-chooseexam-j_25_">
				<g class="st61">
					<polygon id="_x32_-chooseexam-i_25_" class="st1" points="0,395 393,395 393,0 0,0 					"/>
				</g>
			</mask>
			<path class="st62" d="M286.3,104.5c-0.3-0.1-0.5-0.2-0.6-0.5l-7.8-12c-0.3-0.5-0.2-1.2,0.3-1.6c0.5-0.4,1.2-0.2,1.6,0.3l6.9,10.6
				l14-22.1c0.3-0.5,1.1-0.7,1.6-0.3c0.5,0.3,0.7,1.1,0.3,1.6L287.6,104c-0.2,0.3-0.6,0.5-0.9,0.5
				C286.5,104.5,286.4,104.5,286.3,104.5"/>
		</g>
	</g>
</g>
</svg>
