<?xml version="1.0" encoding="utf-8"?>
<!-- Generator: Adobe Illustrator 25.2.0, SVG Export Plug-In . SVG Version: 6.00 Build 0)  -->
<svg version="1.1" id="Layer_1" xmlns="http://www.w3.org/2000/svg" xmlns:xlink="http://www.w3.org/1999/xlink" x="0px" y="0px"
	 viewBox="0 0 387 593" style="enable-background:new 0 0 387 593;" xml:space="preserve">
<style type="text/css">
	.st0{filter:url(#Adobe_OpacityMaskFilter);}
	.st1{fill-rule:evenodd;clip-rule:evenodd;fill:#FFFFFF;}
	.st2{mask:url(#_x34_-sound-b_1_);fill-rule:evenodd;clip-rule:evenodd;fill:#EDEFF8;}
	.st3{filter:url(#Adobe_OpacityMaskFilter_1_);}
	.st4{mask:url(#_x34_-sound-d_1_);}
	.st5{fill-rule:evenodd;clip-rule:evenodd;fill:#677089;}
	.st6{fill-rule:evenodd;clip-rule:evenodd;fill:#E7F859;}
	.st7{fill:none;stroke:#677089;stroke-width:2;stroke-linecap:round;stroke-linejoin:round;}
	.st8{fill-rule:evenodd;clip-rule:evenodd;fill:#EDEFF8;}
</style>
<g transform="translate(-328.761)">
	<defs>
		<filter id="Adobe_OpacityMaskFilter" filterUnits="userSpaceOnUse" x="358.1" y="-129" width="978.7" height="766.7">
			<feColorMatrix  type="matrix" values="1 0 0 0 0  0 1 0 0 0  0 0 1 0 0  0 0 0 1 0"/>
		</filter>
	</defs>
	<mask maskUnits="userSpaceOnUse" x="358.1" y="-129" width="978.7" height="766.7" id="_x34_-sound-b_1_">
		<g class="st0">
			<path id="_x34_-sound-a_1_" class="st1" d="M2,0h711.8c1.1,0,2,0.9,2,2v589c0,1.1-0.9,2-2,2H2c-1.1,0-2-0.9-2-2V2
				C0,0.9,0.9,0,2,0z"/>
		</g>
	</mask>
	<path class="st2" d="M468.1-106.9c0,12.2,9.9,22.1,22.1,22.1l31.2,0.1c11.4,0,20.6,9.3,20.6,20.6c0,11.4-9.2,20.6-20.6,20.6
		c0,0,0,0,0,0l-40.5,0c-12,0-21.7,9.7-21.7,21.7c0,0,0,0,0,0c0,12,9.7,21.7,21.7,21.7c0,0,0,0,0,0l90.8-0.1c11,0,19.8,8.9,19.8,19.8
		c0,0,0,0,0,0c0,11-8.9,19.9-19.8,19.9l-1.5,0c-11.8,0.1-21.3,9.6-21.3,21.4v1.5c0,11.7,9.5,21.2,21.2,21.2c0,0,0.1,0,0.1,0l1.5,0
		c10.9,0,19.8,8.8,19.8,19.7c0,0,0,0.1,0,0.1c0,11-8.9,19.9-19.8,19.9l-63.8,0.1c-12,0-21.7,9.7-21.7,21.7c0,12,9.7,21.7,21.7,21.7
		c0,0,0,0,0,0l73.8-0.1c12,0,21.7,9.7,21.7,21.6c0,0,0,0,0,0c0,12-9.7,21.7-21.7,21.7l-63.1,0c-12.2,0-22.1,9.9-22.1,22.1
		c0,12.2,9.9,22.1,22.1,22.1h27.9c11.4,0,20.6,9.2,20.6,20.6c0,11.4-9.2,20.6-20.6,20.6l-106.6,0.1c-12.2,0-22.1,9.9-22.1,22.1
		c0,12.1,9.8,22,22,22c0,0,0.1,0,0.1,0l19.4-0.1c10.7-0.1,19.4,8.5,19.4,19.2c0,0.2,0,0.4,0,0.6c-0.3,11.1-9.4,20-20.5,19.9
		l-78.4-0.2c-12,0-21.7,9.6-21.7,21.6c0,0.2,0,0.4,0,0.6c0.3,12.4,10.4,22.2,22.8,22.2h31c11.6,0,21,9.4,21,21c0,0.2,0,0.4,0,0.6
		c-0.3,12-10.1,21.5-22.1,21.4l-10.4,0c-12.1-0.1-22,9.7-22.1,21.9c0,0,0,0.1,0,0.1c0,12.2,9.9,22.1,22.1,22.1c0,0,0,0,0,0
		l206.5-0.3c10.9,0,19.8,8.8,19.8,19.8c0,0,0,0,0,0c0,11-8.9,19.8-19.8,19.9l-140.6,0.1c-12.2,0-22.1,9.9-22.1,22.1
		c0,12.2,9.9,22.1,22.1,22.1h127.2c12,0,21.7,9.7,21.7,21.7c0,12,9.7,21.7,21.7,21.7H1206c12.2,0,22.1-9.9,22.1-22.1
		s-9.9-22.1-22.1-22.1h-128.7c-11.2,0-20.2-9.1-20.2-20.2c0-11.2,9.1-20.2,20.2-20.2h48.8c12,0,21.7-9.7,21.7-21.7
		c0-12-9.7-21.7-21.7-21.7h-47.3c-12,0-21.7-9.7-21.7-21.7s9.7-21.7,21.7-21.7h89.7c12.2,0,22.1-9.9,22.1-22.1
		c0-12.2-9.9-22.1-22.1-22.1h-32.3c-11,0-19.8-8.9-19.8-19.8c0-11,8.9-19.8,19.8-19.8h77c12,0,21.7-9.7,21.7-21.7
		s-9.7-21.7-21.7-21.7h-101.7c-11.8,0-21.3-9.6-21.3-21.3c0-11.8,9.6-21.3,21.3-21.3h60.1c12.2,0,22.1-9.9,22.1-22.1
		c0-12.2-9.9-22.1-22.1-22.1h-41c-11.6,0-21-9.4-21-21s9.4-21,21-21H1236c12.2,0,22.1-9.9,22.1-22.1s-9.9-22.1-22.1-22.1h-58.6
		c-11.4,0-20.6-9.2-20.6-20.6c0-11.4,9.2-20.6,20.6-20.6H1281c12.2,0,22.1-9.9,22.1-22.1s-9.9-22.1-22.1-22.1h-146
		c-11.2,0-20.2-9.1-20.2-20.2s9.1-20.2,20.2-20.2h179.8c12.2,0,22.1-9.9,22.1-22.1S1327-4,1314.8-4h-154.3
		c-10.8,0-19.5-8.7-19.5-19.5s8.7-19.5,19.5-19.5h31.2c12.2,0,22.1-9.9,22.1-22.1s-9.9-22.1-22.1-22.1h-89c-11.6,0-21-9.4-21-21
		s-9.4-21-21-21H490.2C478-129,468.1-119.1,468.1-106.9z"/>
	<defs>
		<filter id="Adobe_OpacityMaskFilter_1_" filterUnits="userSpaceOnUse" x="418.1" y="232" width="334.2" height="219.3">
			<feColorMatrix  type="matrix" values="1 0 0 0 0  0 1 0 0 0  0 0 1 0 0  0 0 0 1 0"/>
		</filter>
	</defs>
	<mask maskUnits="userSpaceOnUse" x="418.1" y="232" width="334.2" height="219.3" id="_x34_-sound-d_1_">
		<g class="st3">
			<rect id="_x34_-sound-c_1_" x="414.8" y="36" class="st1" width="302" height="496"/>
		</g>
	</mask>
	<g class="st4">
		<g transform="translate(395.761 13)">
			<path class="st1" d="M332.8,421.6l0.2-167.4c0-5.6-4.2-10.1-9.4-10.1H62.2c-5.2,0-9.4,4.5-9.4,10.1l-0.2,167.4H25.8
				c0,8.8,6.6,15.9,14.7,15.9h298.8c8.1,0,14.7-7.1,14.7-15.9H332.8z"/>
			<path class="st5" d="M337.5,438.3H41.3c-10.5,0-19-8.5-19-19v-1.7h200.3c0.9,0,1.7,0.7,1.7,1.7c0,0.9-0.7,1.7-1.7,1.7H25.8
				c0.8,7.8,7.5,14,15.6,14h296.2c8.1,0,14.7-6.1,15.6-14H273c-0.9,0-1.7-0.7-1.7-1.7c0-0.9,0.7-1.7,1.7-1.7h83.6v1.7
				C356.5,429.8,348,438.3,337.5,438.3"/>
			<path class="st5" d="M263,420.2h-11.4c-0.9,0-1.6-0.6-1.6-1.3s0.7-1.3,1.6-1.3H263c0.9,0,1.6,0.6,1.6,1.3S263.9,420.2,263,420.2
				 M134.7,243.2H64.2c-7,0-12.6,5.7-12.6,12.7v162.7c0,0.9,0.7,1.7,1.7,1.7c0.9,0,1.7-0.7,1.7-1.7V255.9c0-5.2,4.2-9.4,9.3-9.4
				h70.7C134.6,245.4,134.5,244.3,134.7,243.2 M312.8,243.2H245c0.2,1.1,0.1,2.2-0.1,3.3h68c5.2,0,9.4,4.2,9.4,9.4v162.7
				c0,0.9,0.7,1.7,1.7,1.7s1.7-0.7,1.7-1.7V255.9C325.6,248.9,319.9,243.2,312.8,243.2"/>
			<path class="st5" d="M129.6,263H84.6c-5.9,0-10.7,4.9-10.7,10.9v131.8c0,0.9,0.7,1.7,1.6,1.7c0.9,0,1.6-0.7,1.6-1.7V273.9
				c0-4.2,3.3-7.6,7.4-7.6h45.2C129.5,265.2,129.4,264.1,129.6,263 M293.2,263h-42.4c0.4,1.1,0.6,2.2,0.7,3.3h41.7
				c4.2,0,7.6,3.4,7.6,7.6v131.8c0,0.9,0.7,1.7,1.7,1.7s1.7-0.7,1.7-1.7V273.9C304.1,267.9,299.2,263,293.2,263"/>
			<path class="st6" d="M144.8,247.4c2.5,1.4,10-8.5,19.8-15.2c8.6-5.9,17.7-7.1,23.7-7.3h8.8c5.1,0.3,12.6,1.5,20.8,5.5
				c11.4,5.6,18.1,13.6,19.9,15.9c0.2,0.3,0.4,0.5,0.5,0.7c2-2.7,1.8-6.6-0.5-9.1c-11-11.5-25.5-17.9-41-17.9H189
				c-8,0-15.7,1.7-22.9,4.9c-8.3,3.7-16.4,6.4-19.2,14.1C145.9,242.1,143.3,246.5,144.8,247.4"/>
			<path class="st7" d="M136.6,324.8L136.6,324.8c-11.4,0-20.6-9.7-20.6-21.7V295c0-12,9.2-21.7,20.6-21.7V324.8z"/>
			<path class="st8" d="M146.9,329.1L146.9,329.1c3.3,0,6-2.9,6-6.5v-42.9c0-3.6-2.7-6.5-6-6.5c-3.3,0-6,2.9-6,6.5v42.9
				C140.9,326.2,143.6,329.1,146.9,329.1"/>
			<path class="st7" d="M144.9,328.3h-3.7c-2.5,0-4.6-2.1-4.6-4.7v-47.4c0-2.6,2-4.7,4.6-4.7h3.7c2.5,0,4.6,2.1,4.6,4.7v47.4
				C149.5,326.2,147.4,328.3,144.9,328.3z M248.3,324.8L248.3,324.8c10.9,0,19.8-9.7,19.8-21.7V295c0-12-8.8-21.7-19.8-21.7V324.8z"
				/>
			<path class="st8" d="M238,329.1L238,329.1c3.3,0,6-2.9,6-6.5v-42.9c0-3.6-2.7-6.5-6-6.5s-6,2.9-6,6.5v42.9
				C232,326.2,234.7,329.1,238,329.1"/>
			<path class="st7" d="M241.8,328.3L241.8,328.3c3.6,0,6.4-2.9,6.4-6.6v-43.6c0-3.6-2.9-6.6-6.4-6.6c-3.6,0-6.4,2.9-6.4,6.6v43.6
				C235.4,325.3,238.3,328.3,241.8,328.3z"/>
			<path class="st5" d="M247.9,280.2c-1.2,0-2.1-1-2.1-2.2c0-11.1-3.4-21.6-9.9-30.3c-0.7-1-0.5-2.3,0.4-3.1c0.9-0.7,2.3-0.6,3,0.4
				c7.1,9.5,10.8,20.9,10.8,33C250,279.2,249.1,280.2,247.9,280.2 M137.8,280.2c-1.2,0-2.1-1-2.1-2.2c0-11.7,3.4-22.8,10-32.1
				c0.7-1,2-1.2,2.9-0.5c0.9,0.7,1.1,2.1,0.4,3.1c-6,8.6-9.1,18.8-9.1,29.5C139.9,279.2,139,280.2,137.8,280.2"/>
			<path class="st7" d="M151.8,249.2c-1.6,0-3.3-0.6-4.5-1.8c-2.6-2.5-2.7-6.7-0.2-9.3c11.1-11.7,26-18.1,42-18.1h7.8
				c15.5,0,30,6.1,41,17c2.6,2.6,2.6,6.8,0,9.3c-2.6,2.6-6.7,2.6-9.3,0c-8.5-8.5-19.7-13.2-31.7-13.2H189c-12.4,0-23.9,5-32.5,14
				C155.2,248.5,153.5,249.2,151.8,249.2z"/>
			<path class="st5" d="M186.6,336.9L186.6,336.9c-0.9,0-1.6-0.7-1.6-1.6l-3.3-38.5l-3.4,13c-0.2,0.8-0.9,1.3-1.6,1.3h-7.4
				c-0.9,0-1.7-0.8-1.7-1.7c0-1,0.7-1.7,1.7-1.7h6.2l5.5-21c0.2-0.8,0.9-1.3,1.7-1.3c0.8,0.1,1.4,0.7,1.5,1.6l2.8,32.7l3.1-24
				c0.1-0.9,0.8-1.5,1.6-1.5h0c0.8,0,1.5,0.7,1.6,1.5l1.4,13.5l1-5.6c0.1-0.8,0.8-1.4,1.6-1.4h14.1c0.9,0,1.7,0.8,1.7,1.7
				s-0.7,1.7-1.7,1.7h-12.7l-2.9,15.5c-0.2,0.8-0.9,1.4-1.7,1.4c-0.8,0-1.5-0.7-1.6-1.5l-1.1-10.7l-3.2,25.1
				C188.1,336.2,187.4,336.9,186.6,336.9"/>
		</g>
	</g>
</g>
</svg>
