<?xml version="1.0" encoding="utf-8"?>
<!-- Generator: Adobe Illustrator 25.2.0, SVG Export Plug-In . SVG Version: 6.00 Build 0)  -->
<svg version="1.1" id="Layer_1" xmlns="http://www.w3.org/2000/svg" xmlns:xlink="http://www.w3.org/1999/xlink" x="0px" y="0px"
	 viewBox="0 0 387 593" style="enable-background:new 0 0 387 593;" xml:space="preserve">
<style type="text/css">
	.st0{filter:url(#Adobe_OpacityMaskFilter);}
	.st1{fill-rule:evenodd;clip-rule:evenodd;fill:#FFFFFF;}
	.st2{mask:url(#_x33_-record-b_1_);fill-rule:evenodd;clip-rule:evenodd;fill:#EDEFF8;}
	.st3{filter:url(#Adobe_OpacityMaskFilter_1_);}
	.st4{mask:url(#_x33_-record-d_1_);}
	.st5{fill-rule:evenodd;clip-rule:evenodd;fill:#E7F859;}
	.st6{fill-rule:evenodd;clip-rule:evenodd;fill:#677089;}
	.st7{fill:none;stroke:#677089;stroke-width:4;stroke-linecap:round;stroke-linejoin:round;}
	.st8{filter:url(#Adobe_OpacityMaskFilter_2_);}
	.st9{mask:url(#_x33_-record-f_1_);fill-rule:evenodd;clip-rule:evenodd;fill:#677089;}
</style>
<g transform="translate(-328.761)">
	<defs>
		<filter id="Adobe_OpacityMaskFilter" filterUnits="userSpaceOnUse" x="440.6" y="-129" width="958.7" height="766.7">
			<feColorMatrix  type="matrix" values="1 0 0 0 0  0 1 0 0 0  0 0 1 0 0  0 0 0 1 0"/>
		</filter>
	</defs>
	<mask maskUnits="userSpaceOnUse" x="440.6" y="-129" width="958.7" height="766.7" id="_x33_-record-b_1_">
		<g class="st0">
			<path id="_x33_-record-a_1_" class="st1" d="M3,0h709.8c1.7,0,3,1.3,3,3v587c0,1.7-1.3,3-3,3H3c-1.7,0-3-1.3-3-3V3
				C0,1.3,1.3,0,3,0z"/>
		</g>
	</mask>
	<path class="st2" d="M530.5-106.9c0,12.2,9.9,22.1,22.1,22.1l31.2,0.1c11.4,0,20.6,9.3,20.6,20.6c0,11.4-9.2,20.6-20.6,20.6
		c0,0,0,0,0,0l-40.5,0c-12,0-21.7,9.7-21.7,21.7c0,0,0,0,0,0c0,12,9.7,21.7,21.7,21.8l7.3,0c11,0,19.8,8.9,19.8,19.9
		c0,11-8.9,19.8-19.8,19.8H503c-12.2,0-22.1,9.9-22.1,22.1c0,12.1,9.8,22,22,22c0,0,0.1,0,0.1,0l61.7-0.3c10.9,0,19.8,8.8,19.8,19.7
		c0,0,0,0.1,0,0.1c0,11-8.9,19.9-19.8,19.9l-36.6,0.2c-12,0.1-21.7,9.8-21.7,21.8c0,11.9,9.7,21.6,21.6,21.6c0,0,0.1,0,0.1,0l6.1,0
		c11.9,0,21.7,9.6,21.7,21.5c0,0,0,0.1,0,0.1c0,12-9.7,21.7-21.7,21.7c0,0,0,0,0,0l-63-0.1c-12.2,0-22.1,9.8-22.1,22c0,0,0,0,0,0
		c0,12.2,9.9,22.1,22.1,22.1l64.1,0.1c11.4,0,20.6,9.2,20.6,20.6c0,11.4-9.2,20.6-20.6,20.6c0,0,0,0,0,0l-32.3,0
		c-12.2,0-22.1,9.9-22.1,22.1c0,0,0,0,0,0v1.8c0,11.1,9,20.1,20.1,20.1c0.1,0,0.1,0,0.2,0l0.3,0c10.6-0.1,19.3,8.4,19.4,19
		c0,0.2,0,0.5,0,0.7c-0.3,11.1-9.4,20-20.5,20l-30.1,0.1c-12,0-21.7,9.8-21.7,21.8c0,0.2,0,0.3,0,0.5c0.3,12.4,10.4,22.2,22.8,22.2
		l92.7-0.1c11.6,0,20.9,9.3,21,20.9c0,0.2,0,0.4,0,0.6c-0.3,12-10.1,21.5-22.1,21.5l-100.3-0.2c-12.2,0-22.1,9.8-22.1,22
		c0,0,0,0,0,0c0,12.1,9.8,22,22,22c0,0,0.1,0,0.1,0l73.4-0.3c10.9,0,19.8,8.8,19.8,19.7c0,0,0,0.1,0,0.1c0,11-8.9,19.9-19.8,20
		l-7.5,0c-12.2,0.1-22.1,10-22.1,22.2c0,12.2,9.9,22.1,22.1,22.1h127.2c12,0,21.7,9.7,21.7,21.7c0,12,9.7,21.7,21.7,21.7h569.1
		c12.2,0,22.1-9.9,22.1-22.1s-9.9-22.1-22.1-22.1h-128.7c-11.2,0-20.2-9.1-20.2-20.2c0-11.2,9.1-20.2,20.2-20.2h48.8
		c12,0,21.7-9.7,21.7-21.7c0-12-9.7-21.7-21.7-21.7h-47.3c-12,0-21.7-9.7-21.7-21.7s9.7-21.7,21.7-21.7h89.7
		c12.2,0,22.1-9.9,22.1-22.1c0-12.2-9.9-22.1-22.1-22.1h-32.3c-11,0-19.8-8.9-19.8-19.8c0-11,8.9-19.8,19.8-19.8h77
		c12,0,21.7-9.7,21.7-21.7s-9.7-21.7-21.7-21.7h-101.7c-11.8,0-21.3-9.6-21.3-21.3c0-11.8,9.6-21.3,21.3-21.3h60.1
		c12.2,0,22.1-9.9,22.1-22.1c0-12.2-9.9-22.1-22.1-22.1h-41c-11.6,0-21-9.4-21-21s9.4-21,21-21h105.5c12.2,0,22.1-9.9,22.1-22.1
		s-9.9-22.1-22.1-22.1h-58.6c-11.4,0-20.6-9.2-20.6-20.6c0-11.4,9.2-20.6,20.6-20.6h103.6c12.2,0,22.1-9.9,22.1-22.1
		s-9.9-22.1-22.1-22.1h-146c-11.2,0-20.2-9.1-20.2-20.2s9.1-20.2,20.2-20.2h179.8c12.2,0,22.1-9.9,22.1-22.1S1389.4-4,1377.2-4
		h-154.3c-10.8,0-19.5-8.7-19.5-19.5s8.7-19.5,19.5-19.5h31.2c12.2,0,22.1-9.9,22.1-22.1s-9.9-22.1-22.1-22.1h-89
		c-11.6,0-21-9.4-21-21s-9.4-21-21-21H552.6C540.4-129,530.5-119.1,530.5-106.9z"/>
	<defs>
		<filter id="Adobe_OpacityMaskFilter_1_" filterUnits="userSpaceOnUse" x="414.8" y="239.7" width="337.3" height="211.3">
			<feColorMatrix  type="matrix" values="1 0 0 0 0  0 1 0 0 0  0 0 1 0 0  0 0 0 1 0"/>
		</filter>
	</defs>
	<mask maskUnits="userSpaceOnUse" x="414.8" y="239.7" width="337.3" height="211.3" id="_x33_-record-d_1_">
		<g class="st3">
			<rect id="_x33_-record-c_1_" x="161.8" y="62" class="st1" width="554" height="431"/>
		</g>
	</mask>
	<g class="st4">
		<g transform="translate(414.761 208)">
			<path class="st1" d="M307.8,225.5V60.7c0-5.6-4.2-10.1-9.4-10.1L41.7,48.1c-5.2,0-9.4,4.5-9.4,10.1V223l-28,2.5
				c0,8.7,6.6,15.8,14.8,15.8h300.8c8.2,0,14.8-7.1,14.8-15.8H307.8z"/>
			<g transform="translate(131.82 33.328)">
				<path class="st5" d="M37.2,71.2l0-9.6c-12.6,0-22.8,0.4-22.8-10.8V24v31.2c0,11.2,10.2,25.3,22.8,25.3c12.6,0,22.8-14,22.8-25.3
					v-4.5C60,62,49.8,61.6,37.2,61.6"/>
				<path class="st6" d="M37.2,96.6c-0.9,0-1.7-0.7-1.7-1.6V79.7c0-0.9,0.8-1.6,1.7-1.6c0.9,0,1.7,0.7,1.7,1.6V95
					C38.9,95.9,38.1,96.6,37.2,96.6"/>
				<path class="st6" d="M60.9,98.3H12.7c-0.9,0-1.7-0.8-1.7-1.7c0-0.9,0.7-1.7,1.7-1.7h48.2c0.9,0,1.7,0.8,1.7,1.7
					C62.5,97.5,61.8,98.3,60.9,98.3 M60,31.6h-9.2c-0.9,0-1.7-0.8-1.7-1.7s0.8-1.7,1.7-1.7H60c0.9,0,1.7,0.8,1.7,1.7
					S60.9,31.6,60,31.6 M60,42.6h-9.2c-0.9,0-1.7-0.8-1.7-1.7s0.8-1.7,1.7-1.7H60c0.9,0,1.7,0.8,1.7,1.7S60.9,42.6,60,42.6 M60,53.6
					h-9.2c-0.9,0-1.7-0.8-1.7-1.7c0-0.9,0.8-1.7,1.7-1.7H60c0.9,0,1.7,0.8,1.7,1.7C61.7,52.8,60.9,53.6,60,53.6 M23.6,31.6h-9.2
					c-0.9,0-1.7-0.8-1.7-1.7s0.8-1.7,1.7-1.7h9.2c0.9,0,1.7,0.8,1.7,1.7S24.6,31.6,23.6,31.6 M23.6,42.6h-9.2
					c-0.9,0-1.7-0.8-1.7-1.7s0.8-1.7,1.7-1.7h9.2c0.9,0,1.7,0.8,1.7,1.7S24.6,42.6,23.6,42.6 M23.6,53.6h-9.2
					c-0.9,0-1.7-0.8-1.7-1.7c0-0.9,0.8-1.7,1.7-1.7h9.2c0.9,0,1.7,0.8,1.7,1.7C25.4,52.8,24.6,53.6,23.6,53.6"/>
				<path class="st7" d="M37.2,79.7L37.2,79.7c-12.6,0-22.8-10-22.8-22.4V22.9c0-12.4,10.2-22.4,22.8-22.4c12.6,0,22.8,10,22.8,22.4
					v34.4C60,69.7,49.8,79.7,37.2,79.7z"/>
				<path class="st6" d="M38.6,89h-2C20.1,89,6.8,76.1,6.8,60.2c0-0.9,0.7-1.6,1.7-1.6s1.7,0.7,1.7,1.6c0,14.1,11.9,25.6,26.5,25.6
					h2c14.6,0,26.5-11.5,26.5-25.6c0-0.9,0.7-1.6,1.7-1.6c0.9,0,1.7,0.7,1.7,1.6C68.4,76.1,55.1,89,38.6,89 M72.7,105h-71
					c-0.9,0-1.7-0.8-1.7-1.7c0-0.9,0.7-1.7,1.7-1.7h71c0.9,0,1.7,0.8,1.7,1.7C74.4,104.3,73.6,105,72.7,105"/>
			</g>
			<g transform="translate(0 221.906)">
				<defs>
					<filter id="Adobe_OpacityMaskFilter_2_" filterUnits="userSpaceOnUse" x="0" y="0.1" width="337.3" height="21">
						<feColorMatrix  type="matrix" values="1 0 0 0 0  0 1 0 0 0  0 0 1 0 0  0 0 0 1 0"/>
					</filter>
				</defs>
				<mask maskUnits="userSpaceOnUse" x="0" y="0.1" width="337.3" height="21" id="_x33_-record-f_1_">
					<g class="st8">
						<polygon id="_x33_-record-e_1_" class="st1" points="0,0.1 337.3,0.1 337.3,21.1 0,21.1 						"/>
					</g>
				</mask>
				<path class="st9" d="M318.2,21.1h-299C8.6,21.1,0,12.4,0,1.8V0.1h202.2c0.9,0,1.7,0.8,1.7,1.7s-0.8,1.7-1.7,1.7H3.5
					c0.8,8,7.6,14.2,15.7,14.2h299c8.1,0,14.9-6.2,15.7-14.2H253c-0.9,0-1.7-0.8-1.7-1.7s0.8-1.7,1.7-1.7h84.4v1.7
					C337.3,12.4,328.7,21.1,318.2,21.1"/>
			</g>
			<path class="st6" d="M242.5,226.1h-11.8c-0.9,0-1.7-0.8-1.7-1.7s0.8-1.7,1.7-1.7h11.8c0.9,0,1.7,0.8,1.7,1.7
				S243.5,226.1,242.5,226.1 M114.7,46.4H43.2c-7.1,0-12.8,5.7-12.8,12.8v164.4c0,0.9,0.8,1.7,1.7,1.7c0.9,0,1.7-0.8,1.7-1.7V59.2
				c0-5.2,4.2-9.5,9.5-9.5h71.7C114.6,48.6,114.6,47.5,114.7,46.4 M293.9,46.4h-68.2c0.2,1.1,0.1,2.3-0.1,3.4h68.3
				c5.2,0,9.5,4.2,9.5,9.5v164.4c0,0.9,0.8,1.7,1.7,1.7c0.9,0,1.7-0.8,1.7-1.7V59.2C306.7,52.2,301,46.4,293.9,46.4"/>
			<path class="st6" d="M109.8,65.8H63.4c-6.1,0-11,4.9-11,11v133.3c0,0.9,0.8,1.7,1.7,1.7c0.9,0,1.7-0.8,1.7-1.7V76.8
				c0-4.2,3.4-7.7,7.6-7.7h46.5C109.6,68.1,109.5,66.9,109.8,65.8 M273.7,65.8h-43c0.4,1.1,0.6,2.2,0.7,3.4h42.3
				c4.2,0,7.7,3.4,7.7,7.7v133.3c0,0.9,0.8,1.7,1.7,1.7s1.7-0.8,1.7-1.7V76.8C284.8,70.8,279.8,65.8,273.7,65.8"/>
			<g transform="translate(120.835 159.469)">
				<line class="st7" x1="2.5" y1="13.5" x2="2.5" y2="16"/>
				<line class="st7" x1="18.6" y1="7.6" x2="18.6" y2="23.6"/>
				<line class="st7" x1="50.7" y1="0" x2="50.7" y2="32.1"/>
				<line class="st7" x1="34.6" y1="5.1" x2="34.6" y2="26.2"/>
				<line class="st7" x1="66.8" y1="7.6" x2="66.8" y2="23.6"/>
				<line class="st7" x1="82.8" y1="13.5" x2="82.8" y2="16"/>
			</g>
		</g>
	</g>
</g>
</svg>
