<?xml version="1.0" encoding="utf-8"?>
<!-- Generator: Adobe Illustrator 25.2.0, SVG Export Plug-In . SVG Version: 6.00 Build 0)  -->
<svg version="1.1" id="Layer_1" xmlns="http://www.w3.org/2000/svg" xmlns:xlink="http://www.w3.org/1999/xlink" x="0px" y="0px"
	 viewBox="0 0 387 593" style="enable-background:new 0 0 387 593;" xml:space="preserve">
<style type="text/css">
	.st0{filter:url(#Adobe_OpacityMaskFilter);}
	.st1{fill-rule:evenodd;clip-rule:evenodd;fill:#FFFFFF;}
	.st2{mask:url(#_x35_-password-b_1_);fill-rule:evenodd;clip-rule:evenodd;fill:#EDEFF8;}
	.st3{filter:url(#Adobe_OpacityMaskFilter_1_);}
	.st4{mask:url(#_x35_-password-d_1_);}
	.st5{fill-rule:evenodd;clip-rule:evenodd;fill:#717791;}
	.st6{filter:url(#Adobe_OpacityMaskFilter_2_);}
	.st7{mask:url(#_x35_-password-f_1_);fill-rule:evenodd;clip-rule:evenodd;fill:#717791;}
	.st8{fill-rule:evenodd;clip-rule:evenodd;fill:#677089;}
	.st9{fill-rule:evenodd;clip-rule:evenodd;fill:#EDEFF8;}
	.st10{fill-rule:evenodd;clip-rule:evenodd;fill:#E7F859;}
	.st11{fill:none;stroke:#444444;stroke-width:2;stroke-linecap:square;}
	.st12{fill:none;stroke:#677089;stroke-width:3;stroke-linecap:round;stroke-linejoin:round;}
	
		.st13{fill-rule:evenodd;clip-rule:evenodd;fill:#FFFFFF;stroke:#677089;stroke-width:3;stroke-linecap:round;stroke-linejoin:round;}
	
		.st14{fill-rule:evenodd;clip-rule:evenodd;fill:#FFFFFF;stroke:#677089;stroke-width:2;stroke-linecap:round;stroke-linejoin:round;}
	.st15{fill:none;stroke:#677089;stroke-width:2;stroke-linecap:round;stroke-linejoin:round;}
</style>
<g transform="translate(-328.761)">
	<defs>
		<filter id="Adobe_OpacityMaskFilter" filterUnits="userSpaceOnUse" x="440.6" y="-129" width="958.7" height="766.7">
			<feColorMatrix  type="matrix" values="1 0 0 0 0  0 1 0 0 0  0 0 1 0 0  0 0 0 1 0"/>
		</filter>
	</defs>
	<mask maskUnits="userSpaceOnUse" x="440.6" y="-129" width="958.7" height="766.7" id="_x35_-password-b_1_">
		<g class="st0">
			<path id="_x35_-password-a_1_" class="st1" d="M3,0h709.8c1.7,0,3,1.3,3,3v587c0,1.7-1.3,3-3,3H3c-1.7,0-3-1.3-3-3V3
				C0,1.3,1.3,0,3,0z"/>
		</g>
	</mask>
	<path class="st2" d="M530.5-106.9c0,12.2,9.9,22.1,22.1,22.1l31.2,0.1c11.4,0,20.6,9.3,20.6,20.6c0,11.4-9.2,20.6-20.6,20.6
		c0,0,0,0,0,0l-40.5,0c-12,0-21.7,9.7-21.7,21.7c0,0,0,0,0,0c0,12,9.7,21.7,21.7,21.8l7.3,0c11,0,19.8,8.9,19.8,19.9
		c0,11-8.9,19.8-19.8,19.8H503c-12.2,0-22.1,9.9-22.1,22.1c0,12.1,9.8,22,22,22c0,0,0.1,0,0.1,0l61.7-0.3c10.9,0,19.8,8.8,19.8,19.7
		c0,0,0,0.1,0,0.1c0,11-8.9,19.9-19.8,19.9l-36.6,0.2c-12,0.1-21.7,9.8-21.7,21.8c0,11.9,9.7,21.6,21.6,21.6c0,0,0.1,0,0.1,0l6.1,0
		c11.9,0,21.7,9.6,21.7,21.5c0,0,0,0.1,0,0.1c0,12-9.7,21.7-21.7,21.7c0,0,0,0,0,0l-63-0.1c-12.2,0-22.1,9.8-22.1,22c0,0,0,0,0,0
		c0,12.2,9.9,22.1,22.1,22.1l64.1,0.1c11.4,0,20.6,9.2,20.6,20.6c0,11.4-9.2,20.6-20.6,20.6c0,0,0,0,0,0l-32.3,0
		c-12.2,0-22.1,9.9-22.1,22.1c0,0,0,0,0,0v1.8c0,11.1,9,20.1,20.1,20.1c0.1,0,0.1,0,0.2,0l0.3,0c10.6-0.1,19.3,8.4,19.4,19
		c0,0.2,0,0.5,0,0.7c-0.3,11.1-9.4,20-20.5,20l-30.1,0.1c-12,0-21.7,9.8-21.7,21.8c0,0.2,0,0.3,0,0.5c0.3,12.4,10.4,22.2,22.8,22.2
		l92.7-0.1c11.6,0,20.9,9.3,21,20.9c0,0.2,0,0.4,0,0.6c-0.3,12-10.1,21.5-22.1,21.5l-100.3-0.2c-12.2,0-22.1,9.8-22.1,22
		c0,0,0,0,0,0c0,12.1,9.8,22,22,22c0,0,0.1,0,0.1,0l73.4-0.3c10.9,0,19.8,8.8,19.8,19.7c0,0,0,0.1,0,0.1c0,11-8.9,19.9-19.8,20
		l-7.5,0c-12.2,0.1-22.1,10-22.1,22.2c0,12.2,9.9,22.1,22.1,22.1h127.2c12,0,21.7,9.7,21.7,21.7c0,12,9.7,21.7,21.7,21.7h569.1
		c12.2,0,22.1-9.9,22.1-22.1s-9.9-22.1-22.1-22.1h-128.7c-11.2,0-20.2-9.1-20.2-20.2c0-11.2,9.1-20.2,20.2-20.2h48.8
		c12,0,21.7-9.7,21.7-21.7c0-12-9.7-21.7-21.7-21.7h-47.3c-12,0-21.7-9.7-21.7-21.7s9.7-21.7,21.7-21.7h89.7
		c12.2,0,22.1-9.9,22.1-22.1c0-12.2-9.9-22.1-22.1-22.1h-32.3c-11,0-19.8-8.9-19.8-19.8c0-11,8.9-19.8,19.8-19.8h77
		c12,0,21.7-9.7,21.7-21.7s-9.7-21.7-21.7-21.7h-101.7c-11.8,0-21.3-9.6-21.3-21.3c0-11.8,9.6-21.3,21.3-21.3h60.1
		c12.2,0,22.1-9.9,22.1-22.1c0-12.2-9.9-22.1-22.1-22.1h-41c-11.6,0-21-9.4-21-21s9.4-21,21-21h105.5c12.2,0,22.1-9.9,22.1-22.1
		s-9.9-22.1-22.1-22.1h-58.6c-11.4,0-20.6-9.2-20.6-20.6c0-11.4,9.2-20.6,20.6-20.6h103.6c12.2,0,22.1-9.9,22.1-22.1
		s-9.9-22.1-22.1-22.1h-146c-11.2,0-20.2-9.1-20.2-20.2s9.1-20.2,20.2-20.2h179.8c12.2,0,22.1-9.9,22.1-22.1S1389.4-4,1377.2-4
		h-154.3c-10.8,0-19.5-8.7-19.5-19.5s8.7-19.5,19.5-19.5h31.2c12.2,0,22.1-9.9,22.1-22.1s-9.9-22.1-22.1-22.1h-89
		c-11.6,0-21-9.4-21-21s-9.4-21-21-21H552.6C540.4-129,530.5-119.1,530.5-106.9z"/>
	<defs>
		<filter id="Adobe_OpacityMaskFilter_1_" filterUnits="userSpaceOnUse" x="436.8" y="114.7" width="325" height="386.3">
			<feColorMatrix  type="matrix" values="1 0 0 0 0  0 1 0 0 0  0 0 1 0 0  0 0 0 1 0"/>
		</filter>
	</defs>
	<mask maskUnits="userSpaceOnUse" x="436.8" y="114.7" width="325" height="386.3" id="_x35_-password-d_1_">
		<g class="st3">
			<rect id="_x35_-password-c_1_" x="406.8" y="0" class="st1" width="309" height="593"/>
		</g>
	</mask>
	<g class="st4">
		<g transform="translate(431.548 115.735)">
			<path class="st1" d="M128.1,211.7h156.8c17.7,0,32,14.3,32,32c0,3.7-0.6,7.3-1.8,10.7L277.1,361c-5.2,14.5-19,24.1-34.4,23.9
				l-215.6-2.8c-11-0.1-19.9-9.2-19.7-20.3c0-2,0.4-4,1-6l24.6-75.3C46.5,239.5,84.9,211.7,128.1,211.7z"/>
			<path class="st1" d="M231.7,192.4c1.4,0,2.8,0.2,4.1,0.7c1.2-10,9.7-17.8,20.1-17.8c4.6,0,8.8,1.5,12.2,4.1
				c2.4-1.3,5.1-2.1,8-2.1c8.8,0,16,7,16.3,15.7c5.3,1.6,9.1,6.4,9.1,12.2c0,7-5.7,14.4-12.8,14.4h-57c-7,0-12.8-7.3-12.8-14.4
				C219,198.1,224.7,192.4,231.7,192.4"/>
			<path class="st5" d="M231.5,219.5h-42.4c-0.8,0-1.4-0.7-1.4-1.5c0-0.8,0.6-1.5,1.4-1.5H223c-0.2-0.2-0.4-0.3-0.6-0.5
				c-0.6-0.5-0.7-1.5-0.2-2.1c0.5-0.6,1.4-0.7,2-0.2c2,1.8,4.6,2.8,7.2,2.8c0.8,0,1.4,0.7,1.4,1.5
				C232.9,218.9,232.3,219.5,231.5,219.5 M328.8,213.5h-29.6c-0.5,0-1-0.3-1.2-0.7c-0.2-0.5-0.2-1,0.1-1.4c1.3-1.9,1.9-4.1,1.9-6.3
				c0-5-3.3-9.5-8.1-10.9c-0.6-0.2-1-0.7-1-1.3c-0.1-3.8-1.7-7.4-4.4-10.1c-2.8-2.8-6.5-4.3-10.4-4.3c-2.6,0-5.1,0.7-7.3,1.9
				c-0.5,0.3-1.1,0.2-1.5-0.1c-3.3-2.5-7.2-3.8-11.3-3.8c-9.5,0-17.5,7.2-18.6,16.6c0,0.4-0.3,0.8-0.6,1c-0.4,0.2-0.8,0.3-1.2,0.1
				c-4.9-1.7-10.5,0.3-13.2,4.7c-0.4,0.7-1.3,0.9-1.9,0.4c-0.7-0.4-0.9-1.3-0.4-1.9c3.1-5,9.1-7.6,14.9-6.3
				c1.9-10.1,10.7-17.5,21.1-17.5c4.4,0,8.6,1.3,12.2,3.8c2.4-1.2,5.1-1.9,7.9-1.9c4.7,0,9,1.8,12.4,5.1c3,3,4.8,6.9,5.2,11.1
				c5.4,2.1,9.1,7.4,9.1,13.3c0,2-0.4,3.9-1.2,5.7h27.2c0.8,0,1.4,0.6,1.4,1.4C330.2,212.8,329.6,213.5,328.8,213.5 M220.1,211.7
				c-0.6,0-1.1-0.3-1.4-0.8c-1-1.8-1.5-3.7-1.5-5.7c0-0.7,0.7-1.3,1.5-1.3c0.8,0,1.5,0.6,1.5,1.3c0,1.6,0.4,3.1,1.2,4.6
				c0.4,0.7,0,1.5-0.7,1.8C220.5,211.7,220.3,211.7,220.1,211.7"/>
			<path class="st5" d="M262.1,189.2c-0.2,0-0.3,0-0.5-0.1c-0.7-0.3-1-1.1-0.8-1.8c1.1-2.9,3.1-5.5,5.5-7.4c0.6-0.5,1.5-0.3,1.9,0.3
				c0.5,0.6,0.3,1.5-0.3,1.9c-2.1,1.6-3.7,3.7-4.6,6.2C263.1,188.8,262.6,189.2,262.1,189.2 M239.3,206.5c-0.5,0-0.9-0.2-1.2-0.6
				c-2.2-3.3-3.1-5.5-3.5-9.1c-0.1-0.8,0.5-1.5,1.3-1.6c0.8-0.1,1.5,0.5,1.6,1.3c0.3,3.1,1,5,3,7.8c0.4,0.6,0.3,1.5-0.4,2
				C239.8,206.4,239.6,206.5,239.3,206.5"/>
			<path class="st1" d="M52.7,234.1c1.4,0,2.8,0.2,4.1,0.7c1.2-10,9.7-17.8,20.1-17.8c4.6,0,8.8,1.5,12.2,4.1c2.4-1.3,5.1-2.1,8-2.1
				c8.8,0,16,7,16.3,15.7c5.3,1.6,9.1,6.4,9.1,12.2c0,7-5.7,14.4-12.8,14.4h-57c-7,0-12.8-7.3-12.8-14.4
				C40,239.8,45.7,234.1,52.7,234.1"/>
			<path class="st5" d="M248.7,384.4h-8.3c-0.8,0-1.4-0.6-1.4-1.4c0-0.8,0.6-1.4,1.4-1.4h8.3c11.9,0,22.6-7.5,26.4-18.8l34.1-99
				c0.2-0.7,1-1.1,1.8-0.9c0.7,0.2,1.1,1,0.9,1.8l-34.1,99C273.6,376.1,261.9,384.4,248.7,384.4"/>
			<g transform="translate(5.214 254.24)">
				<defs>
					<filter id="Adobe_OpacityMaskFilter_2_" filterUnits="userSpaceOnUse" x="0" y="0.7" width="188.3" height="130.4">
						<feColorMatrix  type="matrix" values="1 0 0 0 0  0 1 0 0 0  0 0 1 0 0  0 0 0 1 0"/>
					</filter>
				</defs>
				<mask maskUnits="userSpaceOnUse" x="0" y="0.7" width="188.3" height="130.4" id="_x35_-password-f_1_">
					<g class="st6">
						<polygon id="_x35_-password-e_1_" class="st1" points="0,0.7 188.3,0.7 188.3,131 0,131 						"/>
					</g>
				</mask>
				<path class="st7" d="M186.9,131H20.1c-6.5,0-12.4-3-16.3-8.3C0,117.5-1,110.9,1,104.7L33.7,4.6c0.2-0.6,0.7-1,1.3-1h3.9
					c-0.2-0.1-0.4-0.3-0.6-0.5c-0.6-0.5-0.7-1.4-0.2-2c0.5-0.6,1.4-0.7,2-0.2c2,1.7,4.6,2.6,7.2,2.6c0.8,0,1.4,0.6,1.4,1.4
					s-0.6,1.4-1.4,1.4H36.1L3.7,105.6c-1.7,5.3-0.8,11,2.4,15.5c3.3,4.5,8.4,7.1,14,7.1h166.8c0.8,0,1.4,0.6,1.4,1.4
					C188.3,130.4,187.7,131,186.9,131"/>
			</g>
			<path class="st5" d="M148.9,255.1h-29.6c-0.5,0-1-0.3-1.2-0.7c-0.2-0.5-0.2-1,0.1-1.4c1.3-1.9,1.9-4.1,1.9-6.3
				c0-5-3.3-9.5-8.1-10.9c-0.6-0.2-1-0.7-1-1.3c-0.1-3.8-1.7-7.4-4.4-10.1c-2.8-2.8-6.5-4.3-10.4-4.3c-2.6,0-5.1,0.7-7.3,1.9
				c-0.5,0.3-1.1,0.2-1.5-0.1c-3.3-2.5-7.2-3.8-11.3-3.8c-9.5,0-17.5,7.2-18.6,16.6c0,0.4-0.3,0.8-0.6,1c-0.4,0.2-0.8,0.3-1.2,0.1
				c-1.2-0.4-2.4-0.6-3.6-0.6c-3.9,0-7.5,2-9.6,5.3c-0.4,0.7-1.3,0.9-1.9,0.4c-0.7-0.4-0.9-1.3-0.4-1.9c2.6-4.2,7.1-6.7,11.9-6.7
				c1,0,2,0.1,2.9,0.3c1.9-10.1,10.7-17.5,21.1-17.5c4.4,0,8.6,1.3,12.2,3.8c2.4-1.2,5.1-1.9,7.9-1.9c4.7,0,9,1.8,12.4,5.1
				c3,3,4.8,6.9,5.2,11.1c5.4,2.1,9.1,7.4,9.1,13.3c0,2-0.4,3.9-1.2,5.7h27.2c0.8,0,1.4,0.6,1.4,1.4S149.7,255.1,148.9,255.1
				 M41.1,252.5c-0.6,0-1.1-0.3-1.4-0.8c-1-1.8-1.5-3.7-1.5-5.7c0-0.7,0.7-1.3,1.5-1.3c0.8,0,1.5,0.6,1.5,1.3c0,1.6,0.4,3.1,1.2,4.6
				c0.4,0.7,0,1.5-0.7,1.8C41.5,252.5,41.3,252.5,41.1,252.5"/>
			<path class="st5" d="M82.2,229.9c-0.2,0-0.3,0-0.5-0.1c-0.7-0.3-1-1.1-0.8-1.8c1.1-2.9,3.1-5.5,5.5-7.4c0.6-0.5,1.5-0.3,1.9,0.3
				c0.4,0.6,0.3,1.5-0.3,1.9c-2.1,1.6-3.7,3.7-4.6,6.2C83.2,229.6,82.7,229.9,82.2,229.9 M60.3,248.2c-0.5,0-0.9-0.2-1.2-0.6
				c-2.2-3.3-3.1-5.5-3.5-9.1c-0.1-0.8,0.5-1.5,1.3-1.6c0.8-0.1,1.5,0.5,1.6,1.2c0.3,3.1,1,5,3,7.8c0.4,0.6,0.3,1.5-0.4,2
				C60.8,248.1,60.5,248.2,60.3,248.2"/>
			<path class="st8" d="M104.7,92.8c-0.7,0.3-1.5,0.1-2-0.5c-0.5-0.7-0.3-1.7,0.4-2.2c1.4-1,2.9-1.9,4.4-2.6
				c0.8-0.4,1.8-0.1,2.2,0.7c0.4,0.8,0.1,1.8-0.7,2.2c-1.4,0.7-2.7,1.5-3.9,2.4C104.9,92.8,104.8,92.8,104.7,92.8 M122.9,86.9
				c-0.2,0.1-0.4,0.1-0.6,0.1c-1.6,0.1-3.2,0.3-4.7,0.5c-0.9,0.1-1.7-0.4-1.9-1.3c-0.1-0.9,0.4-1.7,1.3-1.9c1.6-0.3,3.3-0.4,5-0.5
				c0.9-0.1,1.7,0.6,1.7,1.5C123.9,86,123.5,86.7,122.9,86.9 M94.6,103.2c-0.5,0.2-1.1,0.2-1.6-0.2c-0.7-0.5-0.9-1.5-0.3-2.3
				c1-1.4,2.1-2.7,3.1-3.9c0.6-0.7,1.6-0.7,2.3-0.2c0.7,0.6,0.8,1.6,0.2,2.3c-1,1.1-2,2.4-3,3.7C95,102.9,94.8,103.1,94.6,103.2
				 M180.2,67.6c-0.4,0.2-0.8,0.2-1.2,0.1c-0.8-0.3-1.3-1.2-1-2c0.9-2.6,1.2-4.4,1.2-4.4c0.2-0.9,1-1.5,1.9-1.3
				c0.9,0.2,1.5,1,1.3,1.9c0,0.1-0.4,2-1.4,4.9C180.9,67.1,180.6,67.5,180.2,67.6 M137.5,87.7c-0.3,0.1-0.6,0.2-0.9,0.1
				c-1.6-0.2-3.2-0.4-4.8-0.5c-0.9-0.1-1.5-0.9-1.5-1.7c0.1-0.9,0.9-1.5,1.8-1.5c1.6,0.1,3.2,0.3,4.9,0.6c0.9,0.1,1.5,0.9,1.4,1.8
				C138.3,87,138,87.5,137.5,87.7 M87.8,116c-0.3,0.1-0.7,0.2-1.1,0.1c-0.9-0.2-1.4-1.1-1.1-2c0.5-1.6,1-3.2,1.7-4.8
				c0.4-0.8,1.3-1.2,2.1-0.8c0.8,0.4,1.2,1.3,0.8,2.1c-0.6,1.4-1.2,2.8-1.6,4.3C88.6,115.4,88.3,115.8,87.8,116 M151.9,89.8
				c-0.2,0.1-0.5,0.1-0.7,0.1c-1.6-0.1-3.3-0.2-5.1-0.5c-0.9-0.2-1.5-1-1.3-1.9c0.2-0.9,1-1.5,1.9-1.3c1.6,0.3,3.1,0.4,4.6,0.5
				c0.9,0,1.6,0.8,1.6,1.7C152.8,89,152.4,89.6,151.9,89.8 M173.3,80.3c-0.5,0.2-1.2,0.2-1.7-0.2c-0.7-0.6-0.8-1.6-0.2-2.3
				c1-1.1,1.9-2.4,2.7-3.7c0.5-0.8,1.5-1,2.2-0.5c0.8,0.5,1,1.5,0.5,2.2c-0.9,1.5-1.9,2.9-3,4.1C173.7,80.1,173.5,80.2,173.3,80.3
				 M163.8,87.6c-0.8,0.4-1.6,0.7-2.5,1c-0.8,0.3-1.8-0.2-2-1c-0.3-0.8,0.2-1.8,1-2c1.4-0.5,2.8-1.1,4.1-1.8
				c0.8-0.5,1.8-0.2,2.2,0.6c0.4,0.8,0.2,1.8-0.6,2.2C165.3,86.9,164.6,87.3,163.8,87.6 M87,130.3c-0.1,0.1-0.3,0.1-0.4,0.1
				c-0.9,0.1-1.7-0.5-1.9-1.3c-0.3-1.7-0.4-3.4-0.4-5c0-0.9,0.7-1.6,1.6-1.6c0.9,0,1.6,0.7,1.6,1.6c0,1.5,0.1,3.1,0.4,4.6
				C88,129.4,87.6,130,87,130.3 M92.4,143.7c-0.7,0.3-1.5,0.1-2-0.5c-1-1.4-1.9-2.8-2.6-4.4c-0.4-0.8-0.1-1.8,0.7-2.2
				c0.8-0.4,1.8-0.1,2.2,0.7c0.7,1.4,1.5,2.7,2.4,3.9c0.5,0.7,0.4,1.7-0.4,2.2C92.6,143.6,92.5,143.6,92.4,143.7 M103.5,152.7
				c-0.4,0.2-0.9,0.2-1.3,0c-1.6-0.7-3.1-1.5-4.5-2.5c-0.7-0.5-0.9-1.5-0.4-2.2c0.5-0.7,1.5-0.9,2.3-0.4c1.3,0.8,2.6,1.6,4,2.2
				c0.8,0.4,1.2,1.3,0.8,2.1C104.2,152.3,103.9,152.6,103.5,152.7 M114.1,155.2c-0.2,0.1-0.5,0.2-0.8,0.1c-0.4,0-0.8-0.1-1.2-0.1
				c-0.9-0.1-1.5-0.9-1.5-1.8c0.1-0.9,0.9-1.5,1.8-1.5c0.4,0,0.7,0.1,1.1,0.1c0.9,0.1,1.6,0.8,1.5,1.7
				C115,154.4,114.6,154.9,114.1,155.2 M134.8,50.7c-0.3,0.1-0.6,0.2-1,0.1c-1.5-0.3-3.1-0.5-4.7-0.7c-0.9-0.1-1.5-0.9-1.4-1.8
				c0.1-0.9,0.9-1.5,1.8-1.4c1.7,0.2,3.3,0.5,4.9,0.8c0.9,0.2,1.5,1,1.3,1.9C135.7,50.1,135.3,50.5,134.8,50.7L134.8,50.7z
				 M148.7,55.2c-0.4,0.2-0.9,0.2-1.4,0c-1.4-0.7-2.8-1.3-4.3-1.9c-0.8-0.3-1.3-1.2-0.9-2.1c0.3-0.8,1.3-1.3,2.1-0.9
				c1.6,0.6,3.1,1.3,4.6,2c0.8,0.4,1.1,1.4,0.7,2.2C149.3,54.8,149,55.1,148.7,55.2L148.7,55.2z M160.3,63.9
				c-0.6,0.3-1.4,0.1-1.9-0.4c-1.1-1.1-2.2-2.2-3.4-3.2c-0.7-0.6-0.8-1.6-0.2-2.3c0.6-0.7,1.6-0.8,2.3-0.2c1.3,1.1,2.5,2.3,3.7,3.5
				c0.6,0.7,0.6,1.7-0.1,2.3C160.6,63.8,160.5,63.9,160.3,63.9L160.3,63.9z M168.2,76.1c-0.8,0.4-1.8,0-2.1-0.8
				c-0.7-1.5-1.4-2.9-2.1-4.2c-0.4-0.8-0.2-1.8,0.6-2.2c0.8-0.4,1.8-0.2,2.2,0.6c0.8,1.4,1.6,2.9,2.3,4.5
				C169.4,74.8,169,75.8,168.2,76.1L168.2,76.1z M172.7,90c-0.1,0-0.2,0.1-0.3,0.1c-0.9,0.2-1.7-0.3-1.9-1.2
				c-0.4-1.6-0.8-3.2-1.2-4.6c-0.2-0.9,0.3-1.8,1.1-2c0.9-0.2,1.8,0.3,2,1.1c0.4,1.5,0.9,3.1,1.2,4.8
				C173.8,88.9,173.4,89.7,172.7,90L172.7,90z M175.3,104.3c-0.1,0.1-0.3,0.1-0.4,0.1c-0.9,0.1-1.7-0.5-1.8-1.4
				c-0.2-1.6-0.5-3.2-0.7-4.8c-0.1-0.9,0.5-1.7,1.3-1.9c0.9-0.1,1.7,0.5,1.9,1.3c0.3,1.6,0.5,3.2,0.7,4.8
				C176.4,103.4,176,104.1,175.3,104.3L175.3,104.3z M179.7,118.1c-0.7,0.3-1.6,0.1-2-0.6c-0.7-1.2-1.4-2.4-1.9-3.6
				c-0.1-0.3-0.3-0.7-0.4-1c-0.3-0.8,0.1-1.8,0.9-2.1c0.8-0.3,1.8,0.1,2.1,0.9c0.1,0.3,0.2,0.6,0.4,0.9c0.5,1.1,1.1,2.2,1.7,3.2
				c0.5,0.8,0.2,1.8-0.5,2.2C179.8,118.1,179.7,118.1,179.7,118.1L179.7,118.1z M189.7,128.6c-0.5,0.2-1.1,0.2-1.6-0.2
				c-1.4-1-2.7-2.1-3.9-3.2c-0.7-0.6-0.7-1.6-0.1-2.3c0.6-0.7,1.6-0.7,2.3-0.1c1.1,1,2.3,2,3.6,3c0.7,0.5,0.9,1.5,0.3,2.3
				C190.2,128.3,189.9,128.5,189.7,128.6L189.7,128.6z M202.4,135.8c-0.4,0.2-0.9,0.2-1.3,0c-1.5-0.7-3.1-1.4-4.5-2.1
				c-0.8-0.4-1.1-1.4-0.7-2.2c0.4-0.8,1.4-1.1,2.2-0.7c1.4,0.7,2.8,1.4,4.3,2c0.8,0.4,1.2,1.3,0.8,2.1
				C203.1,135.4,202.8,135.6,202.4,135.8L202.4,135.8z M216.3,140.4c-0.3,0.1-0.6,0.2-1,0.1c-0.1,0-1.9-0.4-4.9-1.3
				c-0.9-0.3-1.3-1.2-1.1-2c0.3-0.9,1.2-1.3,2-1.1c2.8,0.8,4.6,1.2,4.6,1.2c0.9,0.2,1.4,1,1.3,1.9
				C217.1,139.8,216.7,140.2,216.3,140.4L216.3,140.4z"/>
			<path class="st1" d="M119.6,137.1h113c5,0,9,4,9,9v184.2c0,5-4,9-9,9H90.7c-5,0-9-4-9-9V174.6L119.6,137.1z"/>
			<path class="st8" d="M241.7,298.5c-0.9,0-1.6,0.7-1.6,1.6v30.2c0,4.1-3.3,7.4-7.4,7.4H90.6c-4.1,0-7.4-3.3-7.4-7.4v-26.7
				c-0.7,0.2-1.5,0.3-2.4,0.3c-0.3,0-0.6,0-0.9,0v26.5c0,5.9,4.8,10.7,10.6,10.7h142.1c5.9,0,10.6-4.8,10.6-10.7v-30.2
				C243.3,299.2,242.6,298.5,241.7,298.5 M83.2,246.9v-71l36-36.4h113.5c4.1,0,7.4,3.3,7.4,7.3v143.1c0,0.9,0.7,1.6,1.6,1.6
				c0.9,0,1.6-0.7,1.6-1.6V146.8c0-5.8-4.8-10.6-10.6-10.6H118.5c-0.4,0-0.8,0.2-1.2,0.5l-37,37.3c-0.3,0.3-0.5,0.7-0.5,1.1v71.7
				c0,0.9,0.7,1.6,1.6,1.6C82.5,248.5,83.2,247.7,83.2,246.9"/>
			<path class="st8" d="M81.6,176.1h16.7c0.9,0,1.6-0.8,1.6-1.7c0-1-0.7-1.7-1.6-1.7H81.6c-0.9,0-1.6,0.8-1.6,1.7
				C79.9,175.4,80.7,176.1,81.6,176.1 M107.6,176.1h10.7c0.9,0,1.6-0.7,1.6-1.6V137c0-0.9-0.7-1.6-1.6-1.6s-1.6,0.7-1.6,1.6v35.9
				h-9.1c-0.9,0-1.6,0.7-1.6,1.6S106.7,176.1,107.6,176.1"/>
			<polygon class="st9" points="102.5,304.6 216.4,304.6 216.4,295.9 102.5,295.9 			"/>
			<polygon class="st10" points="102.5,228.2 153.8,228.2 153.8,199.6 102.5,199.6 			"/>
			<path class="st8" d="M171.9,176.1h47.2c0.9,0,1.6-0.8,1.6-1.7c0-1-0.7-1.7-1.6-1.7h-47.2c-0.9,0-1.6,0.8-1.6,1.7
				C170.3,175.4,171,176.1,171.9,176.1 M98.9,196.1h79.3c0.9,0,1.6-0.8,1.6-1.7c0-1-0.7-1.7-1.6-1.7H98.9c-0.9,0-1.6,0.8-1.6,1.7
				C97.3,195.3,98,196.1,98.9,196.1 M191.1,196.1h28c0.9,0,1.6-0.8,1.6-1.7c0-1-0.7-1.7-1.6-1.7h-28c-0.9,0-1.6,0.8-1.6,1.7
				C189.4,195.3,190.2,196.1,191.1,196.1 M98.1,216.1h121c0.9,0,1.6-0.8,1.6-1.7c0-1-0.7-1.7-1.6-1.7h-121c-0.9,0-1.6,0.8-1.6,1.7
				C96.5,215.3,97.2,216.1,98.1,216.1 M98.1,236h121c0.9,0,1.6-0.8,1.6-1.7c0-1-0.7-1.7-1.6-1.7h-121c-0.9,0-1.6,0.8-1.6,1.7
				C96.5,235.2,97.2,236,98.1,236 M160.7,256h36.7c0.9,0,1.6-0.8,1.6-1.7c0-1-0.7-1.7-1.6-1.7h-36.7c-0.9,0-1.6,0.8-1.6,1.7
				C159,255.2,159.8,256,160.7,256 M160.7,277.7h36.7c0.9,0,1.6-0.8,1.6-1.7c0-1-0.7-1.7-1.6-1.7h-36.7c-0.9,0-1.6,0.8-1.6,1.7
				C159,276.9,159.8,277.7,160.7,277.7 M208.4,254.2c0,2.5,2,4.5,4.5,4.5c2.5,0,4.5-2,4.5-4.5c0-2.5-2-4.5-4.5-4.5
				C210.4,249.7,208.4,251.7,208.4,254.2 M205.1,254.2c0-4.3,3.5-7.8,7.8-7.8c4.3,0,7.8,3.5,7.8,7.8c0,4.3-3.5,7.8-7.8,7.8
				C208.6,262,205.1,258.5,205.1,254.2 M208.4,275.1c0,2.5,2,4.5,4.5,4.5c2.5,0,4.5-2,4.5-4.5s-2-4.5-4.5-4.5
				C210.4,270.5,208.4,272.6,208.4,275.1 M205.1,275.1c0-4.3,3.5-7.8,7.8-7.8c4.3,0,7.8,3.5,7.8,7.8c0,4.3-3.5,7.8-7.8,7.8
				C208.6,282.9,205.1,279.4,205.1,275.1 M212.6,317.6c0-1,0.7-1.7,1.6-1.7h4.9c0.9,0,1.6,0.8,1.6,1.7c0,1-0.7,1.7-1.6,1.7h-4.9
				C213.4,319.3,212.6,318.5,212.6,317.6 M198.1,317.6c0-1,0.7-1.7,1.6-1.7h4.9c0.9,0,1.6,0.8,1.6,1.7c0,1-0.7,1.7-1.6,1.7h-4.9
				C198.8,319.3,198.1,318.5,198.1,317.6 M183.5,317.6c0-1,0.7-1.7,1.6-1.7h4.9c0.9,0,1.6,0.8,1.6,1.7c0,1-0.7,1.7-1.6,1.7h-4.9
				C184.3,319.3,183.5,318.5,183.5,317.6 M169,317.6c0-1,0.7-1.7,1.6-1.7h4.9c0.9,0,1.6,0.8,1.6,1.7c0,1-0.7,1.7-1.6,1.7h-4.9
				C169.7,319.3,169,318.5,169,317.6 M154.4,317.6c0-1,0.7-1.7,1.6-1.7h4.9c0.9,0,1.6,0.8,1.6,1.7c0,1-0.7,1.7-1.6,1.7H156
				C155.1,319.3,154.4,318.5,154.4,317.6 M139.9,317.6c0-1,0.7-1.7,1.6-1.7h4.9c0.9,0,1.6,0.8,1.6,1.7c0,1-0.7,1.7-1.6,1.7h-4.9
				C140.6,319.3,139.9,318.5,139.9,317.6 M125.3,317.6c0-1,0.7-1.7,1.6-1.7h4.9c0.9,0,1.6,0.8,1.6,1.7c0,1-0.7,1.7-1.6,1.7h-4.9
				C126,319.3,125.3,318.5,125.3,317.6 M110.8,317.6c0-1,0.7-1.7,1.6-1.7h4.9c0.9,0,1.6,0.8,1.6,1.7c0,1-0.7,1.7-1.6,1.7h-4.9
				C111.5,319.3,110.8,318.5,110.8,317.6 M96.5,317.6c0-1,0.7-1.7,1.6-1.7h4.6c0.9,0,1.6,0.8,1.6,1.7c0,1-0.7,1.7-1.6,1.7h-4.6
				C97.2,319.3,96.5,318.5,96.5,317.6"/>
			<polygon class="st1" points="215.5,42.3 207.2,40.4 204.9,48.6 193.8,29.8 204.4,23.4 			"/>
			<polygon class="st1" points="188.4,51.2 183.8,44 176.4,48.1 181.8,26.9 193.8,30 			"/>
			<path class="st5" d="M194.8,30l9.8,16.6l1.9-6.4c0.1-0.4,0.5-0.7,1-0.6c0,0,0,0,0,0l6.5,1.5l-9.8-16.6L194.8,30z M204.7,49.4
				c-0.2,0-0.4-0.2-0.5-0.4L193,30.1c-0.2-0.4-0.1-0.9,0.3-1.1l10.7-6.4c0.2-0.1,0.4-0.2,0.6-0.1c0.2,0.1,0.4,0.2,0.5,0.4l11.1,18.9
				c0.2,0.3,0.1,0.6,0,0.9c-0.2,0.3-0.5,0.4-0.8,0.3c0,0,0,0,0,0l-7.6-1.7l-2.2,7.5c-0.1,0.3-0.4,0.5-0.7,0.6
				C204.9,49.5,204.8,49.5,204.7,49.4L204.7,49.4z"/>
			<path class="st5" d="M184,43.2c0.2,0,0.4,0.2,0.5,0.4l3.6,5.6l4.8-18.7l-10.5-2.7l-4.8,18.7l5.8-3.2
				C183.6,43.2,183.8,43.2,184,43.2 M188.2,52c-0.2,0-0.4-0.2-0.5-0.4l-4.2-6.6l-6.8,3.7c-0.3,0.2-0.6,0.1-0.9-0.1
				c-0.3-0.2-0.4-0.5-0.3-0.8l5.4-21.3c0.1-0.4,0.5-0.7,1-0.6l12,3.1c0.4,0.1,0.7,0.6,0.6,1l-5.4,21.3c-0.1,0.3-0.3,0.6-0.7,0.6
				C188.4,52.1,188.3,52.1,188.2,52"/>
			<path class="st1" d="M205.8,17.7c1,7.4-4.1,14.1-11.5,15.1c-7.4,1-14.2-4.1-15.2-11.5c-1-7.4,4.1-14.1,11.5-15.1
				C198,5.2,204.8,10.3,205.8,17.7"/>
			<path class="st10" d="M209.3,20.3c1,7.4-4.1,14.1-11.5,15.1c-7.4,1-14.2-4.1-15.2-11.5c-1-7.4,4.1-14.1,11.5-15.1
				C201.5,7.8,208.3,12.9,209.3,20.3"/>
			<path class="st5" d="M189.4,33.5c-2-0.4-3.9-1.3-5.6-2.6c-3.1-2.3-5-5.7-5.5-9.5c-0.4-3.2,0.2-6.6,1.9-9.4
				c0.2-0.4,0.7-0.5,1.1-0.3c0.4,0.2,0.5,0.7,0.3,1.1c-1.5,2.5-2.1,5.4-1.7,8.3c0.5,3.4,2.2,6.3,4.9,8.4c2.7,2,6,2.9,9.4,2.5
				c3.4-0.5,6.3-2.2,8.4-4.9c2-2.7,2.9-6,2.5-9.4c-0.5-3.4-2.2-6.3-4.9-8.4c-2.7-2-6-2.9-9.4-2.5c-2.2,0.3-4.2,1.2-6,2.5
				c-0.4,0.3-0.9,0.2-1.1-0.2c-0.3-0.4-0.2-0.9,0.2-1.1c2-1.5,4.3-2.4,6.7-2.8c7.8-1.1,15.1,4.4,16.2,12.2
				c1.1,7.8-4.4,15.1-12.3,16.1C192.7,33.9,191.1,33.9,189.4,33.5"/>
			<path class="st9" d="M114.4,352.3H51.6c-4,0-7.3-3.3-7.3-7.3v-40.1c0-4,3.3-7.3,7.3-7.3h62.8c4,0,7.3,3.3,7.3,7.3V345
				C121.7,349,118.4,352.3,114.4,352.3"/>
			<path class="st11" d="M114.4,352.3H51.6c-4,0-7.3-3.3-7.3-7.3v-40.1c0-4,3.3-7.3,7.3-7.3h62.8c4,0,7.3,3.3,7.3,7.3V345
				C121.7,349,118.4,352.3,114.4,352.3z"/>
			<line class="st11" x1="82.6" y1="330.6" x2="82.6" y2="340.1"/>
			<path class="st11" d="M82.6,310.6c5.3,0,9.6,4.3,9.6,9.5s-4.3,9.5-9.6,9.5c-5.3,0-9.6-4.3-9.6-9.5S77.3,310.6,82.6,310.6z"/>
			<path class="st12" d="M102.5,275.3c0-10.7-8.8-19.3-19.6-19.3c-10.8,0-19.6,8.7-19.6,19.3v14.5 M114.4,352.3H51.6
				c-4,0-7.3-3.3-7.3-7.3v-40.1c0-4,3.3-7.3,7.3-7.3h62.8c4,0,7.3,3.3,7.3,7.3V345C121.7,349,118.4,352.3,114.4,352.3z"/>
			<line class="st12" x1="82.6" y1="330.6" x2="82.6" y2="340.1"/>
			<path class="st13" d="M82.6,310.6c5.3,0,9.6,4.3,9.6,9.5s-4.3,9.5-9.6,9.5c-5.3,0-9.6-4.3-9.6-9.5S77.3,310.6,82.6,310.6z"/>
			<path class="st14" d="M134.7,0l-21.3,21.1c-7.9-2.1-16.1,2.6-18.2,10.5c-2.1,7.9,2.6,16.1,10.5,18.2c7.9,2.1,16.1-2.6,18.2-10.5
				c0.7-2.5,0.7-5.2,0-7.7l3.8-3.9v-6.9h6.9v-6.9h7l3.5-3.5V0H134.7z"/>
			<path class="st10" d="M124.1,36.8c1,7.4-4.1,14.1-11.5,15.2c-7.4,1-14.2-4.1-15.2-11.5c-1-7.4,4.1-14.1,11.5-15.1
				C116.3,24.3,123.1,29.4,124.1,36.8"/>
			<path class="st15" d="M108.2,32.1c2.6,0,4.8,2.1,4.8,4.8c0,2.6-2.1,4.8-4.8,4.8c-2.6,0-4.8-2.1-4.8-4.8
				C103.4,34.2,105.5,32.1,108.2,32.1z"/>
		</g>
	</g>
</g>
</svg>
