<?xml version="1.0" encoding="utf-8"?>
<!-- Generator: Adobe Illustrator 25.1.0, SVG Export Plug-In . SVG Version: 6.00 Build 0)  -->
<svg version="1.1" id="Layer_1" xmlns="http://www.w3.org/2000/svg" xmlns:xlink="http://www.w3.org/1999/xlink" x="0px" y="0px"
	 viewBox="0 0 20 20" style="enable-background:new 0 0 20 20;" xml:space="preserve">
<style type="text/css">
	.st0{opacity:0.7;}
	.st1{fill:none;}
	.st2{fill-rule:evenodd;clip-rule:evenodd;fill:#3A4A69;}
</style>
<g transform="translate(.914 .293)" class="st0">
	<rect x="-0.9" y="-0.3" class="st1" width="20" height="20"/>
	<path class="st2" d="M4.3,13.5l9.2-9.2c0.4-0.4,1-0.4,1.4,0s0.4,1,0,1.4l-9.2,9.2c-0.4,0.4-1,0.4-1.4,0S3.9,13.9,4.3,13.5z"/>
	<path class="st2" d="M13.5,14.9L4.3,5.7c-0.4-0.4-0.4-1,0-1.4s1-0.4,1.4,0l9.2,9.2c0.4,0.4,0.4,1,0,1.4S13.9,15.3,13.5,14.9z"/>
</g>
</svg>
